<ttFont>
    <TTGlyph name="A" xMin="-29" yMin="-48" xMax="875" yMax="710">
      <contour>
        <pt x="110" y="-48" on="1"/>
        <pt x="50" y="-48" on="0"/>
        <pt x="-29" y="31" on="0"/>
        <pt x="-29" y="136" on="0"/>
        <pt x="21" y="227" on="0"/>
        <pt x="114" y="305" on="0"/>
        <pt x="264" y="356" on="0"/>
        <pt x="355" y="359" on="1"/>
        <pt x="408" y="490" on="0"/>
        <pt x="449" y="652" on="1"/>
        <pt x="450" y="658" on="0"/>
        <pt x="450" y="677" on="0"/>
        <pt x="440" y="684" on="1"/>
        <pt x="440" y="694" on="1"/>
        <pt x="526" y="710" on="0"/>
        <pt x="597" y="710" on="1"/>
        <pt x="657" y="706" on="1"/>
        <pt x="683" y="660" on="0"/>
        <pt x="689" y="497" on="0"/>
        <pt x="690" y="296" on="1"/>
        <pt x="798" y="249" on="0"/>
        <pt x="875" y="177" on="1"/>
        <pt x="871" y="164" on="0"/>
        <pt x="848" y="139" on="0"/>
        <pt x="838" y="133" on="1"/>
        <pt x="828" y="127" on="1"/>
        <pt x="769" y="185" on="0"/>
        <pt x="691" y="226" on="1"/>
        <pt x="693" y="169" on="0"/>
        <pt x="702" y="130" on="1"/>
        <pt x="716" y="66" on="0"/>
        <pt x="735" y="66" on="1"/>
        <pt x="746" y="66" on="0"/>
        <pt x="761" y="71" on="1"/>
        <pt x="776" y="32" on="1"/>
        <pt x="707" y="-12" on="0"/>
        <pt x="644" y="-12" on="1"/>
        <pt x="540" y="-12" on="0"/>
        <pt x="540" y="145" on="1"/>
        <pt x="540" y="276" on="1"/>
        <pt x="470" y="293" on="0"/>
        <pt x="413" y="297" on="1"/>
        <pt x="283" y="-48" on="0"/>
      </contour>
      <contour>
        <pt x="217" y="289" on="0"/>
        <pt x="67" y="149" on="0"/>
        <pt x="67" y="27" on="0"/>
        <pt x="114" y="27" on="1"/>
        <pt x="210" y="27" on="0"/>
        <pt x="330" y="298" on="1"/>
      </contour>
      <contour>
        <pt x="527" y="631" on="0"/>
        <pt x="515" y="631" on="0"/>
        <pt x="513" y="630" on="1"/>
        <pt x="504" y="554" on="0"/>
        <pt x="435" y="357" on="1"/>
        <pt x="484" y="354" on="0"/>
        <pt x="540" y="343" on="1"/>
        <pt x="540" y="589" on="0"/>
        <pt x="529" y="630" on="1"/>
      </contour>
    </TTGlyph>
    <TTGlyph name="AE" xMin="-29" yMin="-48" xMax="968" yMax="710">
      <contour>
        <pt x="666" y="339" on="1"/>
        <pt x="667" y="255" on="1"/>
        <pt x="668" y="147" on="0"/>
        <pt x="703" y="48" on="0"/>
        <pt x="756" y="48" on="1"/>
        <pt x="796" y="48" on="0"/>
        <pt x="891" y="100" on="0"/>
        <pt x="929" y="133" on="1"/>
        <pt x="968" y="98" on="1"/>
        <pt x="915" y="34" on="0"/>
        <pt x="756" y="-48" on="0"/>
        <pt x="677" y="-48" on="1"/>
        <pt x="596" y="-48" on="0"/>
        <pt x="556" y="3" on="1"/>
        <pt x="522" y="47" on="0"/>
        <pt x="514" y="146" on="1"/>
        <pt x="510" y="188" on="0"/>
        <pt x="510" y="247" on="1"/>
        <pt x="510" y="333" on="1"/>
        <pt x="429" y="326" on="0"/>
        <pt x="391" y="316" on="1"/>
        <pt x="256" y="-48" on="0"/>
        <pt x="84" y="-48" on="1"/>
        <pt x="33" y="-48" on="0"/>
        <pt x="-29" y="13" on="0"/>
        <pt x="-29" y="124" on="0"/>
        <pt x="44" y="233" on="0"/>
        <pt x="100" y="272" on="1"/>
        <pt x="218" y="355" on="0"/>
        <pt x="333" y="378" on="1"/>
        <pt x="380" y="497" on="0"/>
        <pt x="419" y="652" on="1"/>
        <pt x="420" y="658" on="0"/>
        <pt x="420" y="677" on="0"/>
        <pt x="410" y="684" on="1"/>
        <pt x="410" y="694" on="1"/>
        <pt x="488" y="709" on="0"/>
        <pt x="601" y="709" on="1"/>
        <pt x="810" y="706" on="1"/>
        <pt x="873" y="706" on="0"/>
        <pt x="922" y="710" on="1"/>
        <pt x="925" y="686" on="0"/>
        <pt x="925" y="664" on="1"/>
        <pt x="925" y="616" on="0"/>
        <pt x="870" y="616" on="1"/>
        <pt x="850" y="616" on="0"/>
        <pt x="722" y="633" on="0"/>
        <pt x="679" y="633" on="0"/>
        <pt x="663" y="631" on="1"/>
        <pt x="663" y="609" on="0"/>
        <pt x="665" y="403" on="1"/>
        <pt x="802" y="401" on="0"/>
        <pt x="913" y="380" on="1"/>
        <pt x="917" y="364" on="0"/>
        <pt x="903" y="324" on="0"/>
        <pt x="894" y="310" on="1"/>
        <pt x="811" y="337" on="0"/>
      </contour>
      <contour>
        <pt x="95" y="27" on="1"/>
        <pt x="136" y="27" on="0"/>
        <pt x="257" y="185" on="0"/>
        <pt x="305" y="301" on="1"/>
        <pt x="207" y="269" on="0"/>
        <pt x="66" y="129" on="0"/>
        <pt x="65" y="62" on="1"/>
        <pt x="65" y="29" on="0"/>
      </contour>
      <contour>
        <pt x="507" y="630" on="1"/>
        <pt x="495" y="631" on="1"/>
        <pt x="483" y="630" on="1"/>
        <pt x="475" y="564" on="0"/>
        <pt x="416" y="387" on="1"/>
        <pt x="448" y="392" on="0"/>
        <pt x="512" y="398" on="1"/>
        <pt x="513" y="517" on="1"/>
        <pt x="513" y="590" on="0"/>
      </contour>
    </TTGlyph>
    <TTGlyph name="Aacute" xMin="-29" yMin="-48" xMax="875" yMax="931">
      <contour>
        <pt x="110" y="-48" on="1"/>
        <pt x="50" y="-48" on="0"/>
        <pt x="-29" y="31" on="0"/>
        <pt x="-29" y="136" on="0"/>
        <pt x="21" y="227" on="0"/>
        <pt x="114" y="305" on="0"/>
        <pt x="264" y="356" on="0"/>
        <pt x="355" y="359" on="1"/>
        <pt x="408" y="490" on="0"/>
        <pt x="449" y="652" on="1"/>
        <pt x="450" y="658" on="0"/>
        <pt x="450" y="677" on="0"/>
        <pt x="440" y="684" on="1"/>
        <pt x="440" y="694" on="1"/>
        <pt x="526" y="710" on="0"/>
        <pt x="597" y="710" on="1"/>
        <pt x="657" y="706" on="1"/>
        <pt x="683" y="660" on="0"/>
        <pt x="689" y="497" on="0"/>
        <pt x="690" y="296" on="1"/>
        <pt x="798" y="249" on="0"/>
        <pt x="875" y="177" on="1"/>
        <pt x="871" y="164" on="0"/>
        <pt x="848" y="139" on="0"/>
        <pt x="838" y="133" on="1"/>
        <pt x="828" y="127" on="1"/>
        <pt x="769" y="185" on="0"/>
        <pt x="691" y="226" on="1"/>
        <pt x="693" y="169" on="0"/>
        <pt x="702" y="130" on="1"/>
        <pt x="716" y="66" on="0"/>
        <pt x="735" y="66" on="1"/>
        <pt x="746" y="66" on="0"/>
        <pt x="761" y="71" on="1"/>
        <pt x="776" y="32" on="1"/>
        <pt x="707" y="-12" on="0"/>
        <pt x="644" y="-12" on="1"/>
        <pt x="540" y="-12" on="0"/>
        <pt x="540" y="145" on="1"/>
        <pt x="540" y="276" on="1"/>
        <pt x="470" y="293" on="0"/>
        <pt x="413" y="297" on="1"/>
        <pt x="283" y="-48" on="0"/>
      </contour>
      <contour>
        <pt x="217" y="289" on="0"/>
        <pt x="67" y="149" on="0"/>
        <pt x="67" y="27" on="0"/>
        <pt x="114" y="27" on="1"/>
        <pt x="210" y="27" on="0"/>
        <pt x="330" y="298" on="1"/>
      </contour>
      <contour>
        <pt x="713" y="846" on="1"/>
        <pt x="713" y="818" on="0"/>
        <pt x="676" y="802" on="1"/>
        <pt x="585" y="776" on="0"/>
        <pt x="414" y="750" on="1"/>
        <pt x="393" y="796" on="1"/>
        <pt x="603" y="891" on="0"/>
        <pt x="676" y="931" on="1"/>
        <pt x="687" y="915" on="0"/>
        <pt x="713" y="856" on="0"/>
      </contour>
      <contour>
        <pt x="527" y="631" on="0"/>
        <pt x="515" y="631" on="0"/>
        <pt x="513" y="630" on="1"/>
        <pt x="504" y="554" on="0"/>
        <pt x="435" y="357" on="1"/>
        <pt x="484" y="354" on="0"/>
        <pt x="540" y="343" on="1"/>
        <pt x="540" y="589" on="0"/>
        <pt x="529" y="630" on="1"/>
      </contour>
    </TTGlyph>
    <TTGlyph name="Acircumflex" xMin="-29" yMin="-48" xMax="875" yMax="919">
      <contour>
        <pt x="110" y="-48" on="1"/>
        <pt x="50" y="-48" on="0"/>
        <pt x="-29" y="31" on="0"/>
        <pt x="-29" y="136" on="0"/>
        <pt x="21" y="227" on="0"/>
        <pt x="114" y="305" on="0"/>
        <pt x="264" y="356" on="0"/>
        <pt x="355" y="359" on="1"/>
        <pt x="408" y="490" on="0"/>
        <pt x="449" y="652" on="1"/>
        <pt x="450" y="658" on="0"/>
        <pt x="450" y="677" on="0"/>
        <pt x="440" y="684" on="1"/>
        <pt x="440" y="694" on="1"/>
        <pt x="526" y="710" on="0"/>
        <pt x="597" y="710" on="1"/>
        <pt x="657" y="706" on="1"/>
        <pt x="683" y="660" on="0"/>
        <pt x="689" y="497" on="0"/>
        <pt x="690" y="296" on="1"/>
        <pt x="798" y="249" on="0"/>
        <pt x="875" y="177" on="1"/>
        <pt x="871" y="164" on="0"/>
        <pt x="848" y="139" on="0"/>
        <pt x="838" y="133" on="1"/>
        <pt x="828" y="127" on="1"/>
        <pt x="769" y="185" on="0"/>
        <pt x="691" y="226" on="1"/>
        <pt x="693" y="169" on="0"/>
        <pt x="702" y="130" on="1"/>
        <pt x="716" y="66" on="0"/>
        <pt x="735" y="66" on="1"/>
        <pt x="746" y="66" on="0"/>
        <pt x="761" y="71" on="1"/>
        <pt x="776" y="32" on="1"/>
        <pt x="707" y="-12" on="0"/>
        <pt x="644" y="-12" on="1"/>
        <pt x="540" y="-12" on="0"/>
        <pt x="540" y="145" on="1"/>
        <pt x="540" y="276" on="1"/>
        <pt x="470" y="293" on="0"/>
        <pt x="413" y="297" on="1"/>
        <pt x="283" y="-48" on="0"/>
      </contour>
      <contour>
        <pt x="217" y="289" on="0"/>
        <pt x="67" y="149" on="0"/>
        <pt x="67" y="27" on="0"/>
        <pt x="114" y="27" on="1"/>
        <pt x="210" y="27" on="0"/>
        <pt x="330" y="298" on="1"/>
      </contour>
      <contour>
        <pt x="388" y="819" on="0"/>
        <pt x="568" y="919" on="0"/>
        <pt x="621" y="919" on="0"/>
        <pt x="709" y="816" on="0"/>
        <pt x="736" y="775" on="1"/>
        <pt x="702" y="743" on="1"/>
        <pt x="595" y="797" on="0"/>
        <pt x="563" y="804" on="1"/>
        <pt x="512" y="795" on="0"/>
        <pt x="373" y="742" on="0"/>
        <pt x="364" y="739" on="1"/>
        <pt x="337" y="776" on="1"/>
      </contour>
      <contour>
        <pt x="527" y="631" on="0"/>
        <pt x="515" y="631" on="0"/>
        <pt x="513" y="630" on="1"/>
        <pt x="504" y="554" on="0"/>
        <pt x="435" y="357" on="1"/>
        <pt x="484" y="354" on="0"/>
        <pt x="540" y="343" on="1"/>
        <pt x="540" y="589" on="0"/>
        <pt x="529" y="630" on="1"/>
      </contour>
    </TTGlyph>
    <TTGlyph name="Adieresis" xMin="-29" yMin="-48" xMax="875" yMax="899">
      <contour>
        <pt x="110" y="-48" on="1"/>
        <pt x="50" y="-48" on="0"/>
        <pt x="-29" y="31" on="0"/>
        <pt x="-29" y="136" on="0"/>
        <pt x="21" y="227" on="0"/>
        <pt x="114" y="305" on="0"/>
        <pt x="264" y="356" on="0"/>
        <pt x="355" y="359" on="1"/>
        <pt x="408" y="490" on="0"/>
        <pt x="449" y="652" on="1"/>
        <pt x="450" y="658" on="0"/>
        <pt x="450" y="677" on="0"/>
        <pt x="440" y="684" on="1"/>
        <pt x="440" y="694" on="1"/>
        <pt x="526" y="710" on="0"/>
        <pt x="597" y="710" on="1"/>
        <pt x="657" y="706" on="1"/>
        <pt x="683" y="660" on="0"/>
        <pt x="689" y="497" on="0"/>
        <pt x="690" y="296" on="1"/>
        <pt x="798" y="249" on="0"/>
        <pt x="875" y="177" on="1"/>
        <pt x="871" y="164" on="0"/>
        <pt x="848" y="139" on="0"/>
        <pt x="838" y="133" on="1"/>
        <pt x="828" y="127" on="1"/>
        <pt x="769" y="185" on="0"/>
        <pt x="691" y="226" on="1"/>
        <pt x="693" y="169" on="0"/>
        <pt x="702" y="130" on="1"/>
        <pt x="716" y="66" on="0"/>
        <pt x="735" y="66" on="1"/>
        <pt x="746" y="66" on="0"/>
        <pt x="761" y="71" on="1"/>
        <pt x="776" y="32" on="1"/>
        <pt x="707" y="-12" on="0"/>
        <pt x="644" y="-12" on="1"/>
        <pt x="540" y="-12" on="0"/>
        <pt x="540" y="145" on="1"/>
        <pt x="540" y="276" on="1"/>
        <pt x="470" y="293" on="0"/>
        <pt x="413" y="297" on="1"/>
        <pt x="283" y="-48" on="0"/>
      </contour>
      <contour>
        <pt x="217" y="289" on="0"/>
        <pt x="67" y="149" on="0"/>
        <pt x="67" y="27" on="0"/>
        <pt x="114" y="27" on="1"/>
        <pt x="210" y="27" on="0"/>
        <pt x="330" y="298" on="1"/>
      </contour>
      <contour>
        <pt x="527" y="631" on="0"/>
        <pt x="515" y="631" on="0"/>
        <pt x="513" y="630" on="1"/>
        <pt x="504" y="554" on="0"/>
        <pt x="435" y="357" on="1"/>
        <pt x="484" y="354" on="0"/>
        <pt x="540" y="343" on="1"/>
        <pt x="540" y="589" on="0"/>
        <pt x="529" y="630" on="1"/>
      </contour>
      <contour>
        <pt x="612" y="765" on="0"/>
        <pt x="580" y="799" on="0"/>
        <pt x="580" y="858" on="0"/>
        <pt x="625" y="899" on="0"/>
        <pt x="656" y="899" on="1"/>
        <pt x="722" y="899" on="0"/>
        <pt x="722" y="836" on="1"/>
        <pt x="722" y="808" on="0"/>
        <pt x="674" y="765" on="0"/>
      </contour>
      <contour>
        <pt x="407" y="765" on="0"/>
        <pt x="374" y="799" on="0"/>
        <pt x="374" y="858" on="0"/>
        <pt x="420" y="899" on="0"/>
        <pt x="451" y="899" on="1"/>
        <pt x="516" y="899" on="0"/>
        <pt x="516" y="836" on="1"/>
        <pt x="516" y="808" on="0"/>
        <pt x="469" y="765" on="0"/>
      </contour>
    </TTGlyph>
    <TTGlyph name="Agrave" xMin="-29" yMin="-48" xMax="875" yMax="915">
      <contour>
        <pt x="110" y="-48" on="1"/>
        <pt x="50" y="-48" on="0"/>
        <pt x="-29" y="31" on="0"/>
        <pt x="-29" y="136" on="0"/>
        <pt x="21" y="227" on="0"/>
        <pt x="114" y="305" on="0"/>
        <pt x="264" y="356" on="0"/>
        <pt x="355" y="359" on="1"/>
        <pt x="408" y="490" on="0"/>
        <pt x="449" y="652" on="1"/>
        <pt x="450" y="658" on="0"/>
        <pt x="450" y="677" on="0"/>
        <pt x="440" y="684" on="1"/>
        <pt x="440" y="694" on="1"/>
        <pt x="526" y="710" on="0"/>
        <pt x="597" y="710" on="1"/>
        <pt x="657" y="706" on="1"/>
        <pt x="683" y="660" on="0"/>
        <pt x="689" y="497" on="0"/>
        <pt x="690" y="296" on="1"/>
        <pt x="798" y="249" on="0"/>
        <pt x="875" y="177" on="1"/>
        <pt x="871" y="164" on="0"/>
        <pt x="848" y="139" on="0"/>
        <pt x="838" y="133" on="1"/>
        <pt x="828" y="127" on="1"/>
        <pt x="769" y="185" on="0"/>
        <pt x="691" y="226" on="1"/>
        <pt x="693" y="169" on="0"/>
        <pt x="702" y="130" on="1"/>
        <pt x="716" y="66" on="0"/>
        <pt x="735" y="66" on="1"/>
        <pt x="746" y="66" on="0"/>
        <pt x="761" y="71" on="1"/>
        <pt x="776" y="32" on="1"/>
        <pt x="707" y="-12" on="0"/>
        <pt x="644" y="-12" on="1"/>
        <pt x="540" y="-12" on="0"/>
        <pt x="540" y="145" on="1"/>
        <pt x="540" y="276" on="1"/>
        <pt x="470" y="293" on="0"/>
        <pt x="413" y="297" on="1"/>
        <pt x="283" y="-48" on="0"/>
      </contour>
      <contour>
        <pt x="217" y="289" on="0"/>
        <pt x="67" y="149" on="0"/>
        <pt x="67" y="27" on="0"/>
        <pt x="114" y="27" on="1"/>
        <pt x="210" y="27" on="0"/>
        <pt x="330" y="298" on="1"/>
      </contour>
      <contour>
        <pt x="416" y="915" on="1"/>
        <pt x="456" y="915" on="0"/>
        <pt x="675" y="783" on="1"/>
        <pt x="658" y="736" on="1"/>
        <pt x="563" y="764" on="0"/>
        <pt x="352" y="819" on="1"/>
        <pt x="378" y="915" on="0"/>
      </contour>
      <contour>
        <pt x="527" y="631" on="0"/>
        <pt x="515" y="631" on="0"/>
        <pt x="513" y="630" on="1"/>
        <pt x="504" y="554" on="0"/>
        <pt x="435" y="357" on="1"/>
        <pt x="484" y="354" on="0"/>
        <pt x="540" y="343" on="1"/>
        <pt x="540" y="589" on="0"/>
        <pt x="529" y="630" on="1"/>
      </contour>
    </TTGlyph>
    <TTGlyph name="Aring" xMin="-29" yMin="-48" xMax="875" yMax="938">
      <contour>
        <pt x="110" y="-48" on="1"/>
        <pt x="50" y="-48" on="0"/>
        <pt x="-29" y="31" on="0"/>
        <pt x="-29" y="136" on="0"/>
        <pt x="21" y="227" on="0"/>
        <pt x="114" y="305" on="0"/>
        <pt x="264" y="356" on="0"/>
        <pt x="355" y="359" on="1"/>
        <pt x="408" y="490" on="0"/>
        <pt x="449" y="652" on="1"/>
        <pt x="450" y="658" on="0"/>
        <pt x="450" y="677" on="0"/>
        <pt x="440" y="684" on="1"/>
        <pt x="440" y="694" on="1"/>
        <pt x="526" y="710" on="0"/>
        <pt x="597" y="710" on="1"/>
        <pt x="657" y="706" on="1"/>
        <pt x="683" y="660" on="0"/>
        <pt x="689" y="497" on="0"/>
        <pt x="690" y="296" on="1"/>
        <pt x="798" y="249" on="0"/>
        <pt x="875" y="177" on="1"/>
        <pt x="871" y="164" on="0"/>
        <pt x="848" y="139" on="0"/>
        <pt x="838" y="133" on="1"/>
        <pt x="828" y="127" on="1"/>
        <pt x="769" y="185" on="0"/>
        <pt x="691" y="226" on="1"/>
        <pt x="693" y="169" on="0"/>
        <pt x="702" y="130" on="1"/>
        <pt x="716" y="66" on="0"/>
        <pt x="735" y="66" on="1"/>
        <pt x="746" y="66" on="0"/>
        <pt x="761" y="71" on="1"/>
        <pt x="776" y="32" on="1"/>
        <pt x="707" y="-12" on="0"/>
        <pt x="644" y="-12" on="1"/>
        <pt x="540" y="-12" on="0"/>
        <pt x="540" y="145" on="1"/>
        <pt x="540" y="276" on="1"/>
        <pt x="470" y="293" on="0"/>
        <pt x="413" y="297" on="1"/>
        <pt x="283" y="-48" on="0"/>
      </contour>
      <contour>
        <pt x="217" y="289" on="0"/>
        <pt x="67" y="149" on="0"/>
        <pt x="67" y="27" on="0"/>
        <pt x="114" y="27" on="1"/>
        <pt x="210" y="27" on="0"/>
        <pt x="330" y="298" on="1"/>
      </contour>
      <contour>
        <pt x="515" y="741" on="0"/>
        <pt x="458" y="798" on="0"/>
        <pt x="458" y="883" on="0"/>
        <pt x="515" y="938" on="0"/>
        <pt x="617" y="938" on="0"/>
        <pt x="674" y="883" on="0"/>
        <pt x="674" y="798" on="0"/>
        <pt x="617" y="741" on="0"/>
      </contour>
      <contour>
        <pt x="527" y="631" on="0"/>
        <pt x="515" y="631" on="0"/>
        <pt x="513" y="630" on="1"/>
        <pt x="504" y="554" on="0"/>
        <pt x="435" y="357" on="1"/>
        <pt x="484" y="354" on="0"/>
        <pt x="540" y="343" on="1"/>
        <pt x="540" y="589" on="0"/>
        <pt x="529" y="630" on="1"/>
      </contour>
      <contour>
        <pt x="512" y="861" on="0"/>
        <pt x="512" y="819" on="0"/>
        <pt x="541" y="792" on="0"/>
        <pt x="591" y="792" on="0"/>
        <pt x="617" y="819" on="0"/>
        <pt x="617" y="861" on="0"/>
        <pt x="591" y="888" on="0"/>
        <pt x="541" y="888" on="0"/>
      </contour>
    </TTGlyph>
    <TTGlyph name="Atilde" xMin="-29" yMin="-48" xMax="875" yMax="901">
      <contour>
        <pt x="110" y="-48" on="1"/>
        <pt x="50" y="-48" on="0"/>
        <pt x="-29" y="31" on="0"/>
        <pt x="-29" y="136" on="0"/>
        <pt x="21" y="227" on="0"/>
        <pt x="114" y="305" on="0"/>
        <pt x="264" y="356" on="0"/>
        <pt x="355" y="359" on="1"/>
        <pt x="408" y="490" on="0"/>
        <pt x="449" y="652" on="1"/>
        <pt x="450" y="658" on="0"/>
        <pt x="450" y="677" on="0"/>
        <pt x="440" y="684" on="1"/>
        <pt x="440" y="694" on="1"/>
        <pt x="526" y="710" on="0"/>
        <pt x="597" y="710" on="1"/>
        <pt x="657" y="706" on="1"/>
        <pt x="683" y="660" on="0"/>
        <pt x="689" y="497" on="0"/>
        <pt x="690" y="296" on="1"/>
        <pt x="798" y="249" on="0"/>
        <pt x="875" y="177" on="1"/>
        <pt x="871" y="164" on="0"/>
        <pt x="848" y="139" on="0"/>
        <pt x="838" y="133" on="1"/>
        <pt x="828" y="127" on="1"/>
        <pt x="769" y="185" on="0"/>
        <pt x="691" y="226" on="1"/>
        <pt x="693" y="169" on="0"/>
        <pt x="702" y="130" on="1"/>
        <pt x="716" y="66" on="0"/>
        <pt x="735" y="66" on="1"/>
        <pt x="746" y="66" on="0"/>
        <pt x="761" y="71" on="1"/>
        <pt x="776" y="32" on="1"/>
        <pt x="707" y="-12" on="0"/>
        <pt x="644" y="-12" on="1"/>
        <pt x="540" y="-12" on="0"/>
        <pt x="540" y="145" on="1"/>
        <pt x="540" y="276" on="1"/>
        <pt x="470" y="293" on="0"/>
        <pt x="413" y="297" on="1"/>
        <pt x="283" y="-48" on="0"/>
      </contour>
      <contour>
        <pt x="360" y="765" on="1"/>
        <pt x="374" y="901" on="0"/>
        <pt x="462" y="901" on="1"/>
        <pt x="496" y="901" on="0"/>
        <pt x="637" y="865" on="0"/>
        <pt x="682" y="865" on="0"/>
        <pt x="691" y="866" on="1"/>
        <pt x="711" y="870" on="0"/>
        <pt x="727" y="898" on="1"/>
        <pt x="759" y="892" on="1"/>
        <pt x="755" y="851" on="0"/>
        <pt x="742" y="819" on="1"/>
        <pt x="722" y="763" on="0"/>
        <pt x="656" y="763" on="1"/>
        <pt x="633" y="763" on="0"/>
        <pt x="498" y="798" on="0"/>
        <pt x="435" y="798" on="0"/>
        <pt x="407" y="783" on="0"/>
        <pt x="393" y="758" on="1"/>
      </contour>
      <contour>
        <pt x="217" y="289" on="0"/>
        <pt x="67" y="149" on="0"/>
        <pt x="67" y="27" on="0"/>
        <pt x="114" y="27" on="1"/>
        <pt x="210" y="27" on="0"/>
        <pt x="330" y="298" on="1"/>
      </contour>
      <contour>
        <pt x="527" y="631" on="0"/>
        <pt x="515" y="631" on="0"/>
        <pt x="513" y="630" on="1"/>
        <pt x="504" y="554" on="0"/>
        <pt x="435" y="357" on="1"/>
        <pt x="484" y="354" on="0"/>
        <pt x="540" y="343" on="1"/>
        <pt x="540" y="589" on="0"/>
        <pt x="529" y="630" on="1"/>
      </contour>
    </TTGlyph>
    <TTGlyph name="B" xMin="-43" yMin="-51" xMax="785" yMax="725">
      <contour>
        <pt x="425" y="416" on="0"/>
        <pt x="483" y="494" on="0"/>
        <pt x="483" y="611" on="0"/>
        <pt x="400" y="665" on="0"/>
        <pt x="314" y="665" on="1"/>
        <pt x="186" y="665" on="0"/>
        <pt x="23" y="567" on="0"/>
        <pt x="23" y="511" on="1"/>
        <pt x="23" y="482" on="0"/>
        <pt x="67" y="447" on="0"/>
        <pt x="89" y="441" on="1"/>
        <pt x="86" y="402" on="0"/>
        <pt x="62" y="367" on="1"/>
        <pt x="23" y="374" on="0"/>
        <pt x="-43" y="443" on="0"/>
        <pt x="-43" y="498" on="1"/>
        <pt x="-43" y="596" on="0"/>
        <pt x="175" y="725" on="0"/>
        <pt x="348" y="725" on="1"/>
        <pt x="481" y="725" on="0"/>
        <pt x="637" y="641" on="0"/>
        <pt x="637" y="554" on="1"/>
        <pt x="637" y="486" on="0"/>
        <pt x="543" y="396" on="0"/>
        <pt x="470" y="373" on="1"/>
        <pt x="543" y="362" on="0"/>
        <pt x="586" y="318" on="1"/>
        <pt x="666" y="339" on="0"/>
        <pt x="734" y="339" on="1"/>
        <pt x="783" y="336" on="1"/>
        <pt x="785" y="329" on="0"/>
        <pt x="785" y="322" on="1"/>
        <pt x="785" y="287" on="0"/>
        <pt x="775" y="267" on="1"/>
        <pt x="748" y="273" on="0"/>
        <pt x="657" y="273" on="0"/>
        <pt x="621" y="262" on="1"/>
        <pt x="634" y="225" on="0"/>
        <pt x="634" y="183" on="1"/>
        <pt x="634" y="81" on="0"/>
        <pt x="512" y="-51" on="0"/>
        <pt x="433" y="-51" on="1"/>
        <pt x="379" y="-51" on="0"/>
        <pt x="307" y="14" on="0"/>
        <pt x="307" y="137" on="0"/>
        <pt x="398" y="248" on="0"/>
        <pt x="464" y="280" on="1"/>
        <pt x="438" y="347" on="0"/>
        <pt x="371" y="347" on="1"/>
        <pt x="364" y="347" on="1"/>
        <pt x="358" y="373" on="0"/>
        <pt x="367" y="406" on="1"/>
        <pt x="382" y="406" on="0"/>
        <pt x="394" y="409" on="1"/>
      </contour>
      <contour>
        <pt x="200" y="518" on="1"/>
        <pt x="200" y="537" on="0"/>
        <pt x="191" y="555" on="0"/>
        <pt x="176" y="572" on="1"/>
        <pt x="177" y="579" on="1"/>
        <pt x="230" y="610" on="0"/>
        <pt x="309" y="610" on="1"/>
        <pt x="340" y="610" on="0"/>
        <pt x="355" y="605" on="1"/>
        <pt x="360" y="595" on="0"/>
        <pt x="360" y="530" on="0"/>
        <pt x="257" y="113" on="0"/>
        <pt x="248" y="11" on="1"/>
        <pt x="189" y="-6" on="0"/>
        <pt x="117" y="-6" on="1"/>
        <pt x="100" y="-6" on="0"/>
        <pt x="92" y="-3" on="1"/>
        <pt x="97" y="60" on="0"/>
        <pt x="200" y="458" on="0"/>
      </contour>
      <contour>
        <pt x="409" y="34" on="1"/>
        <pt x="436" y="34" on="0"/>
        <pt x="478" y="133" on="0"/>
        <pt x="478" y="195" on="1"/>
        <pt x="477" y="212" on="1"/>
        <pt x="440" y="198" on="0"/>
        <pt x="373" y="124" on="0"/>
        <pt x="373" y="82" on="1"/>
        <pt x="373" y="57" on="0"/>
        <pt x="396" y="34" on="0"/>
      </contour>
    </TTGlyph>
    <TTGlyph name="C" xMin="49" yMin="-12" xMax="715" yMax="747">
      <contour>
        <pt x="270" y="-12" on="1"/>
        <pt x="171" y="-12" on="0"/>
        <pt x="49" y="137" on="0"/>
        <pt x="49" y="383" on="0"/>
        <pt x="134" y="584" on="0"/>
        <pt x="292" y="710" on="0"/>
        <pt x="388" y="710" on="1"/>
        <pt x="424" y="710" on="0"/>
        <pt x="452" y="699" on="1"/>
        <pt x="524" y="747" on="0"/>
        <pt x="601" y="747" on="1"/>
        <pt x="637" y="747" on="0"/>
        <pt x="700" y="726" on="0"/>
        <pt x="715" y="711" on="1"/>
        <pt x="707" y="677" on="0"/>
        <pt x="689" y="649" on="1"/>
        <pt x="642" y="684" on="0"/>
        <pt x="546" y="684" on="0"/>
        <pt x="506" y="665" on="1"/>
        <pt x="553" y="615" on="0"/>
        <pt x="553" y="432" on="0"/>
        <pt x="457" y="282" on="0"/>
        <pt x="385" y="282" on="1"/>
        <pt x="342" y="282" on="0"/>
        <pt x="289" y="354" on="0"/>
        <pt x="289" y="408" on="1"/>
        <pt x="289" y="538" on="0"/>
        <pt x="386" y="643" on="1"/>
        <pt x="307" y="640" on="0"/>
        <pt x="209" y="439" on="0"/>
        <pt x="209" y="297" on="1"/>
        <pt x="209" y="90" on="0"/>
        <pt x="329" y="90" on="1"/>
        <pt x="411" y="90" on="0"/>
        <pt x="504" y="192" on="1"/>
        <pt x="539" y="163" on="1"/>
        <pt x="526" y="140" on="0"/>
        <pt x="467" y="72" on="0"/>
        <pt x="409" y="26" on="0"/>
        <pt x="317" y="-12" on="0"/>
      </contour>
      <contour>
        <pt x="484" y="513" on="1"/>
        <pt x="484" y="595" on="0"/>
        <pt x="447" y="625" on="1"/>
        <pt x="403" y="586" on="0"/>
        <pt x="350" y="474" on="0"/>
        <pt x="350" y="414" on="1"/>
        <pt x="350" y="383" on="0"/>
        <pt x="373" y="343" on="0"/>
        <pt x="391" y="343" on="1"/>
        <pt x="430" y="343" on="0"/>
        <pt x="484" y="453" on="0"/>
      </contour>
    </TTGlyph>
    <TTGlyph name="Ccedilla" xMin="49" yMin="-194" xMax="715" yMax="747">
      <contour>
        <pt x="256" y="-94" on="1"/>
        <pt x="256" y="-118" on="0"/>
        <pt x="304" y="-118" on="0"/>
        <pt x="337" y="-102" on="1"/>
        <pt x="348" y="-96" on="1"/>
        <pt x="366" y="-130" on="1"/>
        <pt x="359" y="-137" on="0"/>
        <pt x="335" y="-158" on="0"/>
        <pt x="263" y="-194" on="0"/>
        <pt x="201" y="-194" on="0"/>
        <pt x="163" y="-157" on="0"/>
        <pt x="163" y="-100" on="0"/>
        <pt x="210" y="-32" on="0"/>
        <pt x="239" y="-10" on="1"/>
        <pt x="152" y="2" on="0"/>
        <pt x="49" y="148" on="0"/>
        <pt x="49" y="383" on="0"/>
        <pt x="134" y="584" on="0"/>
        <pt x="292" y="710" on="0"/>
        <pt x="388" y="710" on="1"/>
        <pt x="424" y="710" on="0"/>
        <pt x="452" y="699" on="1"/>
        <pt x="524" y="747" on="0"/>
        <pt x="601" y="747" on="1"/>
        <pt x="637" y="747" on="0"/>
        <pt x="700" y="726" on="0"/>
        <pt x="715" y="711" on="1"/>
        <pt x="707" y="677" on="0"/>
        <pt x="689" y="649" on="1"/>
        <pt x="642" y="684" on="0"/>
        <pt x="546" y="684" on="0"/>
        <pt x="506" y="665" on="1"/>
        <pt x="553" y="615" on="0"/>
        <pt x="553" y="432" on="0"/>
        <pt x="457" y="282" on="0"/>
        <pt x="385" y="282" on="1"/>
        <pt x="342" y="282" on="0"/>
        <pt x="289" y="354" on="0"/>
        <pt x="289" y="408" on="1"/>
        <pt x="289" y="538" on="0"/>
        <pt x="386" y="643" on="1"/>
        <pt x="307" y="640" on="0"/>
        <pt x="209" y="439" on="0"/>
        <pt x="209" y="297" on="1"/>
        <pt x="209" y="90" on="0"/>
        <pt x="329" y="90" on="1"/>
        <pt x="411" y="90" on="0"/>
        <pt x="504" y="192" on="1"/>
        <pt x="539" y="163" on="1"/>
        <pt x="535" y="157" on="0"/>
        <pt x="522" y="136" on="0"/>
        <pt x="477" y="82" on="0"/>
        <pt x="427" y="39" on="0"/>
        <pt x="348" y="-3" on="0"/>
        <pt x="307" y="-9" on="1"/>
        <pt x="256" y="-53" on="0"/>
      </contour>
      <contour>
        <pt x="484" y="513" on="1"/>
        <pt x="484" y="595" on="0"/>
        <pt x="447" y="625" on="1"/>
        <pt x="403" y="586" on="0"/>
        <pt x="350" y="474" on="0"/>
        <pt x="350" y="414" on="1"/>
        <pt x="350" y="383" on="0"/>
        <pt x="373" y="343" on="0"/>
        <pt x="391" y="343" on="1"/>
        <pt x="430" y="343" on="0"/>
        <pt x="484" y="453" on="0"/>
      </contour>
    </TTGlyph>
    <TTGlyph name="D" xMin="24" yMin="-13" xMax="782" yMax="725">
      <contour>
        <pt x="24" y="125" on="0"/>
        <pt x="90" y="179" on="0"/>
        <pt x="182" y="179" on="0"/>
        <pt x="231" y="157" on="1"/>
        <pt x="236" y="169" on="0"/>
        <pt x="273" y="284" on="0"/>
        <pt x="305" y="471" on="0"/>
        <pt x="305" y="549" on="0"/>
        <pt x="283" y="569" on="1"/>
        <pt x="283" y="579" on="1"/>
        <pt x="341" y="609" on="0"/>
        <pt x="419" y="609" on="1"/>
        <pt x="461" y="605" on="1"/>
        <pt x="466" y="593" on="0"/>
        <pt x="466" y="559" on="1"/>
        <pt x="466" y="447" on="0"/>
        <pt x="386" y="198" on="0"/>
        <pt x="322" y="110" on="1"/>
        <pt x="394" y="72" on="0"/>
        <pt x="488" y="72" on="0"/>
        <pt x="563" y="157" on="0"/>
        <pt x="584" y="220" on="1"/>
        <pt x="629" y="350" on="0"/>
        <pt x="629" y="561" on="0"/>
        <pt x="517" y="663" on="0"/>
        <pt x="296" y="663" on="0"/>
        <pt x="109" y="537" on="0"/>
        <pt x="109" y="454" on="1"/>
        <pt x="109" y="419" on="0"/>
        <pt x="143" y="385" on="0"/>
        <pt x="172" y="375" on="1"/>
        <pt x="171" y="337" on="0"/>
        <pt x="150" y="298" on="1"/>
        <pt x="109" y="306" on="0"/>
        <pt x="43" y="381" on="0"/>
        <pt x="43" y="446" on="1"/>
        <pt x="43" y="566" on="0"/>
        <pt x="271" y="725" on="0"/>
        <pt x="442" y="725" on="1"/>
        <pt x="586" y="725" on="0"/>
        <pt x="681" y="658" on="1"/>
        <pt x="729" y="624" on="0"/>
        <pt x="782" y="505" on="0"/>
        <pt x="782" y="320" on="0"/>
        <pt x="700" y="121" on="0"/>
        <pt x="543" y="-13" on="0"/>
        <pt x="362" y="-13" on="0"/>
        <pt x="268" y="50" on="1"/>
        <pt x="201" y="-12" on="0"/>
        <pt x="132" y="-12" on="1"/>
        <pt x="85" y="-12" on="0"/>
        <pt x="24" y="39" on="0"/>
      </contour>
      <contour>
        <pt x="129" y="64" on="1"/>
        <pt x="166" y="64" on="0"/>
        <pt x="195" y="98" on="1"/>
        <pt x="158" y="119" on="0"/>
        <pt x="136" y="119" on="1"/>
        <pt x="90" y="119" on="0"/>
        <pt x="90" y="92" on="1"/>
        <pt x="90" y="80" on="0"/>
        <pt x="110" y="64" on="0"/>
      </contour>
    </TTGlyph>
    <TTGlyph name="E" xMin="52" yMin="-12" xMax="708" yMax="747">
      <contour>
        <pt x="578" y="691" on="1"/>
        <pt x="538" y="691" on="0"/>
        <pt x="501" y="674" on="1"/>
        <pt x="543" y="640" on="0"/>
        <pt x="543" y="538" on="0"/>
        <pt x="489" y="460" on="0"/>
        <pt x="408" y="460" on="0"/>
        <pt x="359" y="511" on="0"/>
        <pt x="359" y="601" on="0"/>
        <pt x="389" y="644" on="1"/>
        <pt x="342" y="641" on="0"/>
        <pt x="276" y="568" on="0"/>
        <pt x="276" y="448" on="0"/>
        <pt x="300" y="402" on="1"/>
        <pt x="334" y="409" on="0"/>
        <pt x="369" y="409" on="1"/>
        <pt x="482" y="409" on="0"/>
        <pt x="482" y="341" on="1"/>
        <pt x="482" y="312" on="0"/>
        <pt x="437" y="267" on="0"/>
        <pt x="332" y="267" on="0"/>
        <pt x="270" y="304" on="1"/>
        <pt x="212" y="249" on="0"/>
        <pt x="212" y="182" on="1"/>
        <pt x="212" y="138" on="0"/>
        <pt x="268" y="80" on="0"/>
        <pt x="364" y="80" on="0"/>
        <pt x="468" y="144" on="0"/>
        <pt x="508" y="189" on="1"/>
        <pt x="544" y="157" on="1"/>
        <pt x="518" y="119" on="0"/>
        <pt x="472" y="76" on="1"/>
        <pt x="379" y="-12" on="0"/>
        <pt x="266" y="-12" on="1"/>
        <pt x="189" y="-12" on="0"/>
        <pt x="124" y="28" on="1"/>
        <pt x="92" y="49" on="0"/>
        <pt x="52" y="123" on="0"/>
        <pt x="52" y="171" on="1"/>
        <pt x="52" y="303" on="0"/>
        <pt x="194" y="370" on="1"/>
        <pt x="144" y="433" on="0"/>
        <pt x="144" y="510" on="1"/>
        <pt x="144" y="605" on="0"/>
        <pt x="284" y="710" on="0"/>
        <pt x="378" y="710" on="1"/>
        <pt x="416" y="710" on="0"/>
        <pt x="447" y="701" on="1"/>
        <pt x="514" y="747" on="0"/>
        <pt x="594" y="747" on="1"/>
        <pt x="631" y="747" on="0"/>
        <pt x="694" y="727" on="0"/>
        <pt x="708" y="713" on="1"/>
        <pt x="706" y="680" on="0"/>
        <pt x="686" y="658" on="1"/>
        <pt x="679" y="651" on="1"/>
        <pt x="644" y="691" on="0"/>
      </contour>
      <contour>
        <pt x="484" y="572" on="1"/>
        <pt x="484" y="615" on="0"/>
        <pt x="446" y="635" on="1"/>
        <pt x="416" y="603" on="0"/>
        <pt x="416" y="515" on="0"/>
        <pt x="447" y="515" on="1"/>
        <pt x="463" y="515" on="0"/>
        <pt x="484" y="548" on="0"/>
      </contour>
      <contour>
        <pt x="428" y="348" on="0"/>
        <pt x="405" y="361" on="0"/>
        <pt x="362" y="361" on="0"/>
        <pt x="335" y="349" on="1"/>
        <pt x="363" y="320" on="0"/>
        <pt x="428" y="320" on="0"/>
        <pt x="428" y="338" on="1"/>
      </contour>
    </TTGlyph>
    <TTGlyph name="Eacute" xMin="52" yMin="-12" xMax="708" yMax="931">
      <contour>
        <pt x="578" y="691" on="1"/>
        <pt x="538" y="691" on="0"/>
        <pt x="501" y="674" on="1"/>
        <pt x="543" y="640" on="0"/>
        <pt x="543" y="538" on="0"/>
        <pt x="489" y="460" on="0"/>
        <pt x="408" y="460" on="0"/>
        <pt x="359" y="511" on="0"/>
        <pt x="359" y="601" on="0"/>
        <pt x="389" y="644" on="1"/>
        <pt x="342" y="641" on="0"/>
        <pt x="276" y="568" on="0"/>
        <pt x="276" y="448" on="0"/>
        <pt x="300" y="402" on="1"/>
        <pt x="334" y="409" on="0"/>
        <pt x="369" y="409" on="1"/>
        <pt x="482" y="409" on="0"/>
        <pt x="482" y="341" on="1"/>
        <pt x="482" y="312" on="0"/>
        <pt x="437" y="267" on="0"/>
        <pt x="332" y="267" on="0"/>
        <pt x="270" y="304" on="1"/>
        <pt x="212" y="249" on="0"/>
        <pt x="212" y="182" on="1"/>
        <pt x="212" y="138" on="0"/>
        <pt x="268" y="80" on="0"/>
        <pt x="364" y="80" on="0"/>
        <pt x="468" y="144" on="0"/>
        <pt x="508" y="189" on="1"/>
        <pt x="544" y="157" on="1"/>
        <pt x="518" y="119" on="0"/>
        <pt x="472" y="76" on="1"/>
        <pt x="379" y="-12" on="0"/>
        <pt x="266" y="-12" on="1"/>
        <pt x="189" y="-12" on="0"/>
        <pt x="124" y="28" on="1"/>
        <pt x="92" y="49" on="0"/>
        <pt x="52" y="123" on="0"/>
        <pt x="52" y="171" on="1"/>
        <pt x="52" y="303" on="0"/>
        <pt x="194" y="370" on="1"/>
        <pt x="144" y="433" on="0"/>
        <pt x="144" y="510" on="1"/>
        <pt x="144" y="605" on="0"/>
        <pt x="284" y="710" on="0"/>
        <pt x="378" y="710" on="1"/>
        <pt x="416" y="710" on="0"/>
        <pt x="447" y="701" on="1"/>
        <pt x="514" y="747" on="0"/>
        <pt x="594" y="747" on="1"/>
        <pt x="631" y="747" on="0"/>
        <pt x="694" y="727" on="0"/>
        <pt x="708" y="713" on="1"/>
        <pt x="706" y="680" on="0"/>
        <pt x="686" y="658" on="1"/>
        <pt x="679" y="651" on="1"/>
        <pt x="644" y="691" on="0"/>
      </contour>
      <contour>
        <pt x="546" y="846" on="1"/>
        <pt x="546" y="818" on="0"/>
        <pt x="509" y="802" on="1"/>
        <pt x="418" y="776" on="0"/>
        <pt x="247" y="750" on="1"/>
        <pt x="226" y="796" on="1"/>
        <pt x="436" y="891" on="0"/>
        <pt x="509" y="931" on="1"/>
        <pt x="520" y="915" on="0"/>
        <pt x="546" y="856" on="0"/>
      </contour>
      <contour>
        <pt x="484" y="572" on="1"/>
        <pt x="484" y="615" on="0"/>
        <pt x="446" y="635" on="1"/>
        <pt x="416" y="603" on="0"/>
        <pt x="416" y="515" on="0"/>
        <pt x="447" y="515" on="1"/>
        <pt x="463" y="515" on="0"/>
        <pt x="484" y="548" on="0"/>
      </contour>
      <contour>
        <pt x="428" y="348" on="0"/>
        <pt x="405" y="361" on="0"/>
        <pt x="362" y="361" on="0"/>
        <pt x="335" y="349" on="1"/>
        <pt x="363" y="320" on="0"/>
        <pt x="428" y="320" on="0"/>
        <pt x="428" y="338" on="1"/>
      </contour>
    </TTGlyph>
    <TTGlyph name="Ecircumflex" xMin="52" yMin="-12" xMax="708" yMax="919">
      <contour>
        <pt x="578" y="691" on="1"/>
        <pt x="538" y="691" on="0"/>
        <pt x="501" y="674" on="1"/>
        <pt x="543" y="640" on="0"/>
        <pt x="543" y="538" on="0"/>
        <pt x="489" y="460" on="0"/>
        <pt x="408" y="460" on="0"/>
        <pt x="359" y="511" on="0"/>
        <pt x="359" y="601" on="0"/>
        <pt x="389" y="644" on="1"/>
        <pt x="342" y="641" on="0"/>
        <pt x="276" y="568" on="0"/>
        <pt x="276" y="448" on="0"/>
        <pt x="300" y="402" on="1"/>
        <pt x="334" y="409" on="0"/>
        <pt x="369" y="409" on="1"/>
        <pt x="482" y="409" on="0"/>
        <pt x="482" y="341" on="1"/>
        <pt x="482" y="312" on="0"/>
        <pt x="437" y="267" on="0"/>
        <pt x="332" y="267" on="0"/>
        <pt x="270" y="304" on="1"/>
        <pt x="212" y="249" on="0"/>
        <pt x="212" y="182" on="1"/>
        <pt x="212" y="138" on="0"/>
        <pt x="268" y="80" on="0"/>
        <pt x="364" y="80" on="0"/>
        <pt x="468" y="144" on="0"/>
        <pt x="508" y="189" on="1"/>
        <pt x="544" y="157" on="1"/>
        <pt x="518" y="119" on="0"/>
        <pt x="472" y="76" on="1"/>
        <pt x="379" y="-12" on="0"/>
        <pt x="266" y="-12" on="1"/>
        <pt x="189" y="-12" on="0"/>
        <pt x="124" y="28" on="1"/>
        <pt x="92" y="49" on="0"/>
        <pt x="52" y="123" on="0"/>
        <pt x="52" y="171" on="1"/>
        <pt x="52" y="303" on="0"/>
        <pt x="194" y="370" on="1"/>
        <pt x="144" y="433" on="0"/>
        <pt x="144" y="510" on="1"/>
        <pt x="144" y="605" on="0"/>
        <pt x="284" y="710" on="0"/>
        <pt x="378" y="710" on="1"/>
        <pt x="416" y="710" on="0"/>
        <pt x="447" y="701" on="1"/>
        <pt x="514" y="747" on="0"/>
        <pt x="594" y="747" on="1"/>
        <pt x="631" y="747" on="0"/>
        <pt x="694" y="727" on="0"/>
        <pt x="708" y="713" on="1"/>
        <pt x="706" y="680" on="0"/>
        <pt x="686" y="658" on="1"/>
        <pt x="679" y="651" on="1"/>
        <pt x="644" y="691" on="0"/>
      </contour>
      <contour>
        <pt x="211" y="822" on="0"/>
        <pt x="389" y="919" on="0"/>
        <pt x="442" y="919" on="0"/>
        <pt x="536" y="821" on="0"/>
        <pt x="558" y="786" on="1"/>
        <pt x="531" y="760" on="1"/>
        <pt x="449" y="801" on="0"/>
        <pt x="393" y="814" on="1"/>
        <pt x="347" y="806" on="0"/>
        <pt x="187" y="743" on="1"/>
        <pt x="160" y="780" on="1"/>
      </contour>
      <contour>
        <pt x="484" y="572" on="1"/>
        <pt x="484" y="615" on="0"/>
        <pt x="446" y="635" on="1"/>
        <pt x="416" y="603" on="0"/>
        <pt x="416" y="515" on="0"/>
        <pt x="447" y="515" on="1"/>
        <pt x="463" y="515" on="0"/>
        <pt x="484" y="548" on="0"/>
      </contour>
      <contour>
        <pt x="428" y="348" on="0"/>
        <pt x="405" y="361" on="0"/>
        <pt x="362" y="361" on="0"/>
        <pt x="335" y="349" on="1"/>
        <pt x="363" y="320" on="0"/>
        <pt x="428" y="320" on="0"/>
        <pt x="428" y="338" on="1"/>
      </contour>
    </TTGlyph>
    <TTGlyph name="Edieresis" xMin="52" yMin="-12" xMax="708" yMax="899">
      <contour>
        <pt x="578" y="691" on="1"/>
        <pt x="538" y="691" on="0"/>
        <pt x="501" y="674" on="1"/>
        <pt x="543" y="640" on="0"/>
        <pt x="543" y="538" on="0"/>
        <pt x="489" y="460" on="0"/>
        <pt x="408" y="460" on="0"/>
        <pt x="359" y="511" on="0"/>
        <pt x="359" y="601" on="0"/>
        <pt x="389" y="644" on="1"/>
        <pt x="342" y="641" on="0"/>
        <pt x="276" y="568" on="0"/>
        <pt x="276" y="448" on="0"/>
        <pt x="300" y="402" on="1"/>
        <pt x="334" y="409" on="0"/>
        <pt x="369" y="409" on="1"/>
        <pt x="482" y="409" on="0"/>
        <pt x="482" y="341" on="1"/>
        <pt x="482" y="312" on="0"/>
        <pt x="437" y="267" on="0"/>
        <pt x="332" y="267" on="0"/>
        <pt x="270" y="304" on="1"/>
        <pt x="212" y="249" on="0"/>
        <pt x="212" y="182" on="1"/>
        <pt x="212" y="138" on="0"/>
        <pt x="268" y="80" on="0"/>
        <pt x="364" y="80" on="0"/>
        <pt x="468" y="144" on="0"/>
        <pt x="508" y="189" on="1"/>
        <pt x="544" y="157" on="1"/>
        <pt x="518" y="119" on="0"/>
        <pt x="472" y="76" on="1"/>
        <pt x="379" y="-12" on="0"/>
        <pt x="266" y="-12" on="1"/>
        <pt x="189" y="-12" on="0"/>
        <pt x="124" y="28" on="1"/>
        <pt x="92" y="49" on="0"/>
        <pt x="52" y="123" on="0"/>
        <pt x="52" y="171" on="1"/>
        <pt x="52" y="303" on="0"/>
        <pt x="194" y="370" on="1"/>
        <pt x="144" y="433" on="0"/>
        <pt x="144" y="510" on="1"/>
        <pt x="144" y="605" on="0"/>
        <pt x="284" y="710" on="0"/>
        <pt x="378" y="710" on="1"/>
        <pt x="416" y="710" on="0"/>
        <pt x="447" y="701" on="1"/>
        <pt x="514" y="747" on="0"/>
        <pt x="594" y="747" on="1"/>
        <pt x="631" y="747" on="0"/>
        <pt x="694" y="727" on="0"/>
        <pt x="708" y="713" on="1"/>
        <pt x="706" y="680" on="0"/>
        <pt x="686" y="658" on="1"/>
        <pt x="679" y="651" on="1"/>
        <pt x="644" y="691" on="0"/>
      </contour>
      <contour>
        <pt x="437" y="765" on="0"/>
        <pt x="405" y="799" on="0"/>
        <pt x="405" y="858" on="0"/>
        <pt x="450" y="899" on="0"/>
        <pt x="481" y="899" on="1"/>
        <pt x="547" y="899" on="0"/>
        <pt x="547" y="836" on="1"/>
        <pt x="547" y="808" on="0"/>
        <pt x="499" y="765" on="0"/>
      </contour>
      <contour>
        <pt x="232" y="765" on="0"/>
        <pt x="199" y="799" on="0"/>
        <pt x="199" y="858" on="0"/>
        <pt x="245" y="899" on="0"/>
        <pt x="276" y="899" on="1"/>
        <pt x="341" y="899" on="0"/>
        <pt x="341" y="836" on="1"/>
        <pt x="341" y="808" on="0"/>
        <pt x="294" y="765" on="0"/>
      </contour>
      <contour>
        <pt x="484" y="572" on="1"/>
        <pt x="484" y="615" on="0"/>
        <pt x="446" y="635" on="1"/>
        <pt x="416" y="603" on="0"/>
        <pt x="416" y="515" on="0"/>
        <pt x="447" y="515" on="1"/>
        <pt x="463" y="515" on="0"/>
        <pt x="484" y="548" on="0"/>
      </contour>
      <contour>
        <pt x="428" y="348" on="0"/>
        <pt x="405" y="361" on="0"/>
        <pt x="362" y="361" on="0"/>
        <pt x="335" y="349" on="1"/>
        <pt x="363" y="320" on="0"/>
        <pt x="428" y="320" on="0"/>
        <pt x="428" y="338" on="1"/>
      </contour>
    </TTGlyph>
    <TTGlyph name="Egrave" xMin="52" yMin="-12" xMax="708" yMax="915">
      <contour>
        <pt x="578" y="691" on="1"/>
        <pt x="538" y="691" on="0"/>
        <pt x="501" y="674" on="1"/>
        <pt x="543" y="640" on="0"/>
        <pt x="543" y="538" on="0"/>
        <pt x="489" y="460" on="0"/>
        <pt x="408" y="460" on="0"/>
        <pt x="359" y="511" on="0"/>
        <pt x="359" y="601" on="0"/>
        <pt x="389" y="644" on="1"/>
        <pt x="342" y="641" on="0"/>
        <pt x="276" y="568" on="0"/>
        <pt x="276" y="448" on="0"/>
        <pt x="300" y="402" on="1"/>
        <pt x="334" y="409" on="0"/>
        <pt x="369" y="409" on="1"/>
        <pt x="482" y="409" on="0"/>
        <pt x="482" y="341" on="1"/>
        <pt x="482" y="312" on="0"/>
        <pt x="437" y="267" on="0"/>
        <pt x="332" y="267" on="0"/>
        <pt x="270" y="304" on="1"/>
        <pt x="212" y="249" on="0"/>
        <pt x="212" y="182" on="1"/>
        <pt x="212" y="138" on="0"/>
        <pt x="268" y="80" on="0"/>
        <pt x="364" y="80" on="0"/>
        <pt x="468" y="144" on="0"/>
        <pt x="508" y="189" on="1"/>
        <pt x="544" y="157" on="1"/>
        <pt x="518" y="119" on="0"/>
        <pt x="472" y="76" on="1"/>
        <pt x="379" y="-12" on="0"/>
        <pt x="266" y="-12" on="1"/>
        <pt x="189" y="-12" on="0"/>
        <pt x="124" y="28" on="1"/>
        <pt x="92" y="49" on="0"/>
        <pt x="52" y="123" on="0"/>
        <pt x="52" y="171" on="1"/>
        <pt x="52" y="303" on="0"/>
        <pt x="194" y="370" on="1"/>
        <pt x="144" y="433" on="0"/>
        <pt x="144" y="510" on="1"/>
        <pt x="144" y="605" on="0"/>
        <pt x="284" y="710" on="0"/>
        <pt x="378" y="710" on="1"/>
        <pt x="416" y="710" on="0"/>
        <pt x="447" y="701" on="1"/>
        <pt x="514" y="747" on="0"/>
        <pt x="594" y="747" on="1"/>
        <pt x="631" y="747" on="0"/>
        <pt x="694" y="727" on="0"/>
        <pt x="708" y="713" on="1"/>
        <pt x="706" y="680" on="0"/>
        <pt x="686" y="658" on="1"/>
        <pt x="679" y="651" on="1"/>
        <pt x="644" y="691" on="0"/>
      </contour>
      <contour>
        <pt x="234" y="915" on="1"/>
        <pt x="274" y="915" on="0"/>
        <pt x="493" y="783" on="1"/>
        <pt x="476" y="736" on="1"/>
        <pt x="381" y="764" on="0"/>
        <pt x="170" y="819" on="1"/>
        <pt x="196" y="915" on="0"/>
      </contour>
      <contour>
        <pt x="484" y="572" on="1"/>
        <pt x="484" y="615" on="0"/>
        <pt x="446" y="635" on="1"/>
        <pt x="416" y="603" on="0"/>
        <pt x="416" y="515" on="0"/>
        <pt x="447" y="515" on="1"/>
        <pt x="463" y="515" on="0"/>
        <pt x="484" y="548" on="0"/>
      </contour>
      <contour>
        <pt x="428" y="348" on="0"/>
        <pt x="405" y="361" on="0"/>
        <pt x="362" y="361" on="0"/>
        <pt x="335" y="349" on="1"/>
        <pt x="363" y="320" on="0"/>
        <pt x="428" y="320" on="0"/>
        <pt x="428" y="338" on="1"/>
      </contour>
    </TTGlyph>
    <TTGlyph name="Eth" xMin="24" yMin="-13" xMax="782" yMax="707">
      <contour>
        <pt x="225" y="671" on="0"/>
        <pt x="371" y="707" on="0"/>
        <pt x="518" y="707" on="0"/>
        <pt x="632" y="676" on="0"/>
        <pt x="728" y="610" on="0"/>
        <pt x="782" y="494" on="0"/>
        <pt x="782" y="339" on="0"/>
        <pt x="732" y="187" on="0"/>
        <pt x="647" y="64" on="0"/>
        <pt x="520" y="-13" on="0"/>
        <pt x="362" y="-13" on="0"/>
        <pt x="269" y="49" on="1"/>
        <pt x="202" y="-12" on="0"/>
        <pt x="132" y="-12" on="1"/>
        <pt x="85" y="-12" on="0"/>
        <pt x="24" y="39" on="0"/>
        <pt x="24" y="125" on="0"/>
        <pt x="90" y="179" on="0"/>
        <pt x="181" y="179" on="0"/>
        <pt x="232" y="157" on="1"/>
        <pt x="245" y="188" on="0"/>
        <pt x="252" y="211" on="1"/>
        <pt x="261" y="241" on="1"/>
        <pt x="166" y="261" on="0"/>
        <pt x="37" y="354" on="0"/>
        <pt x="37" y="497" on="0"/>
        <pt x="108" y="605" on="0"/>
      </contour>
      <contour>
        <pt x="398" y="72" on="0"/>
        <pt x="488" y="72" on="0"/>
        <pt x="563" y="155" on="0"/>
        <pt x="584" y="216" on="1"/>
        <pt x="629" y="342" on="0"/>
        <pt x="629" y="548" on="0"/>
        <pt x="518" y="647" on="0"/>
        <pt x="420" y="647" on="1"/>
        <pt x="298" y="647" on="0"/>
        <pt x="102" y="518" on="0"/>
        <pt x="102" y="441" on="1"/>
        <pt x="102" y="390" on="0"/>
        <pt x="199" y="324" on="0"/>
        <pt x="277" y="309" on="1"/>
        <pt x="305" y="431" on="0"/>
        <pt x="305" y="491" on="1"/>
        <pt x="305" y="525" on="0"/>
        <pt x="283" y="544" on="1"/>
        <pt x="283" y="554" on="1"/>
        <pt x="341" y="584" on="0"/>
        <pt x="419" y="584" on="1"/>
        <pt x="461" y="580" on="1"/>
        <pt x="466" y="568" on="0"/>
        <pt x="466" y="535" on="1"/>
        <pt x="466" y="424" on="0"/>
        <pt x="421" y="297" on="1"/>
        <pt x="497" y="299" on="0"/>
        <pt x="533" y="313" on="1"/>
        <pt x="535" y="301" on="0"/>
        <pt x="535" y="261" on="0"/>
        <pt x="523" y="237" on="1"/>
        <pt x="475" y="226" on="0"/>
        <pt x="393" y="226" on="1"/>
        <pt x="361" y="158" on="0"/>
        <pt x="324" y="109" on="1"/>
      </contour>
      <contour>
        <pt x="129" y="64" on="1"/>
        <pt x="168" y="64" on="0"/>
        <pt x="196" y="97" on="1"/>
        <pt x="159" y="119" on="0"/>
        <pt x="137" y="119" on="1"/>
        <pt x="90" y="119" on="0"/>
        <pt x="90" y="92" on="1"/>
        <pt x="90" y="80" on="0"/>
        <pt x="110" y="64" on="0"/>
      </contour>
    </TTGlyph>
    <TTGlyph name="Euro" xMin="12" yMin="-12" xMax="623" yMax="710">
      <contour>
        <pt x="466" y="315" on="1"/>
        <pt x="464" y="290" on="0"/>
        <pt x="449" y="257" on="1"/>
        <pt x="411" y="261" on="0"/>
        <pt x="311" y="261" on="0"/>
        <pt x="253" y="259" on="1"/>
        <pt x="257" y="169" on="0"/>
        <pt x="325" y="90" on="0"/>
        <pt x="374" y="90" on="1"/>
        <pt x="453" y="90" on="0"/>
        <pt x="526" y="164" on="1"/>
        <pt x="567" y="127" on="1"/>
        <pt x="556" y="111" on="0"/>
        <pt x="498" y="55" on="0"/>
        <pt x="442" y="18" on="0"/>
        <pt x="356" y="-12" on="0"/>
        <pt x="312" y="-12" on="1"/>
        <pt x="222" y="-12" on="0"/>
        <pt x="100" y="131" on="0"/>
        <pt x="97" y="257" on="1"/>
        <pt x="44" y="254" on="0"/>
        <pt x="14" y="249" on="1"/>
        <pt x="12" y="261" on="0"/>
        <pt x="12" y="296" on="0"/>
        <pt x="15" y="315" on="1"/>
        <pt x="99" y="315" on="1"/>
        <pt x="100" y="335" on="0"/>
        <pt x="106" y="373" on="1"/>
        <pt x="58" y="370" on="0"/>
        <pt x="32" y="365" on="1"/>
        <pt x="30" y="377" on="0"/>
        <pt x="30" y="411" on="0"/>
        <pt x="33" y="431" on="1"/>
        <pt x="121" y="431" on="1"/>
        <pt x="158" y="553" on="0"/>
        <pt x="324" y="710" on="0"/>
        <pt x="432" y="710" on="1"/>
        <pt x="514" y="710" on="0"/>
        <pt x="623" y="630" on="0"/>
        <pt x="623" y="519" on="0"/>
        <pt x="590" y="480" on="1"/>
        <pt x="558" y="480" on="0"/>
        <pt x="478" y="508" on="0"/>
        <pt x="458" y="528" on="1"/>
        <pt x="477" y="629" on="1"/>
        <pt x="453" y="644" on="0"/>
        <pt x="367" y="644" on="0"/>
        <pt x="287" y="527" on="0"/>
        <pt x="267" y="431" on="1"/>
        <pt x="484" y="431" on="1"/>
        <pt x="482" y="406" on="0"/>
        <pt x="467" y="373" on="1"/>
        <pt x="429" y="377" on="0"/>
        <pt x="324" y="377" on="0"/>
        <pt x="258" y="375" on="1"/>
        <pt x="254" y="335" on="0"/>
        <pt x="253" y="315" on="1"/>
      </contour>
    </TTGlyph>
    <TTGlyph name="F" xMin="-13" yMin="-39" xMax="675" yMax="734">
      <contour>
        <pt x="639" y="555" on="1"/>
        <pt x="589" y="595" on="0"/>
        <pt x="458" y="595" on="0"/>
        <pt x="353" y="569" on="1"/>
        <pt x="369" y="514" on="0"/>
        <pt x="369" y="400" on="0"/>
        <pt x="366" y="365" on="1"/>
        <pt x="409" y="373" on="0"/>
        <pt x="495" y="373" on="0"/>
        <pt x="536" y="357" on="1"/>
        <pt x="536" y="313" on="0"/>
        <pt x="518" y="288" on="1"/>
        <pt x="473" y="305" on="0"/>
        <pt x="414" y="305" on="1"/>
        <pt x="397" y="305" on="0"/>
        <pt x="359" y="299" on="1"/>
        <pt x="336" y="144" on="0"/>
        <pt x="201" y="-39" on="0"/>
        <pt x="110" y="-39" on="1"/>
        <pt x="55" y="-39" on="0"/>
        <pt x="-13" y="27" on="0"/>
        <pt x="-13" y="82" on="1"/>
        <pt x="-13" y="157" on="0"/>
        <pt x="112" y="292" on="0"/>
        <pt x="214" y="332" on="1"/>
        <pt x="221" y="362" on="0"/>
        <pt x="221" y="479" on="0"/>
        <pt x="210" y="523" on="1"/>
        <pt x="185" y="517" on="0"/>
        <pt x="154" y="517" on="1"/>
        <pt x="95" y="517" on="0"/>
        <pt x="26" y="571" on="0"/>
        <pt x="26" y="656" on="0"/>
        <pt x="106" y="710" on="0"/>
        <pt x="170" y="710" on="1"/>
        <pt x="267" y="710" on="0"/>
        <pt x="320" y="635" on="1"/>
        <pt x="398" y="677" on="0"/>
        <pt x="431" y="693" on="1"/>
        <pt x="512" y="734" on="0"/>
        <pt x="615" y="734" on="0"/>
        <pt x="675" y="640" on="0"/>
        <pt x="675" y="581" on="1"/>
        <pt x="671" y="573" on="0"/>
      </contour>
      <contour>
        <pt x="95" y="57" on="1"/>
        <pt x="131" y="57" on="0"/>
        <pt x="189" y="173" on="0"/>
        <pt x="203" y="257" on="1"/>
        <pt x="142" y="233" on="0"/>
        <pt x="59" y="141" on="0"/>
        <pt x="59" y="100" on="1"/>
        <pt x="59" y="80" on="0"/>
        <pt x="79" y="57" on="0"/>
      </contour>
      <contour>
        <pt x="101" y="589" on="0"/>
        <pt x="134" y="572" on="0"/>
        <pt x="174" y="572" on="0"/>
        <pt x="190" y="578" on="1"/>
        <pt x="165" y="627" on="0"/>
        <pt x="127" y="627" on="1"/>
        <pt x="101" y="627" on="0"/>
        <pt x="101" y="605" on="1"/>
      </contour>
    </TTGlyph>
    <TTGlyph name="G" xMin="49" yMin="-369" xMax="797" yMax="747">
      <contour>
        <pt x="780" y="-317" on="0"/>
        <pt x="711" y="-369" on="0"/>
        <pt x="636" y="-369" on="0"/>
        <pt x="572" y="-347" on="0"/>
        <pt x="501" y="-300" on="0"/>
        <pt x="453" y="-263" on="0"/>
        <pt x="371" y="-194" on="0"/>
        <pt x="354" y="-181" on="1"/>
        <pt x="293" y="-240" on="0"/>
        <pt x="216" y="-240" on="1"/>
        <pt x="167" y="-240" on="0"/>
        <pt x="104" y="-190" on="0"/>
        <pt x="104" y="-107" on="0"/>
        <pt x="171" y="-48" on="0"/>
        <pt x="267" y="-48" on="0"/>
        <pt x="313" y="-64" on="1"/>
        <pt x="339" y="-5" on="0"/>
        <pt x="351" y="82" on="1"/>
        <pt x="308" y="55" on="0"/>
        <pt x="254" y="55" on="1"/>
        <pt x="163" y="55" on="0"/>
        <pt x="49" y="190" on="0"/>
        <pt x="49" y="406" on="0"/>
        <pt x="133" y="591" on="0"/>
        <pt x="290" y="710" on="0"/>
        <pt x="385" y="710" on="1"/>
        <pt x="418" y="710" on="0"/>
        <pt x="448" y="700" on="1"/>
        <pt x="523" y="747" on="0"/>
        <pt x="674" y="747" on="0"/>
        <pt x="712" y="711" on="1"/>
        <pt x="704" y="671" on="0"/>
        <pt x="684" y="649" on="1"/>
        <pt x="644" y="684" on="0"/>
        <pt x="546" y="684" on="0"/>
        <pt x="503" y="665" on="1"/>
        <pt x="549" y="616" on="0"/>
        <pt x="549" y="536" on="1"/>
        <pt x="549" y="478" on="0"/>
        <pt x="512" y="369" on="0"/>
        <pt x="432" y="292" on="0"/>
        <pt x="335" y="292" on="0"/>
        <pt x="285" y="366" on="0"/>
        <pt x="285" y="424" on="1"/>
        <pt x="285" y="541" on="0"/>
        <pt x="378" y="641" on="1"/>
        <pt x="304" y="636" on="0"/>
        <pt x="209" y="457" on="0"/>
        <pt x="209" y="234" on="0"/>
        <pt x="267" y="150" on="0"/>
        <pt x="311" y="150" on="1"/>
        <pt x="384" y="150" on="0"/>
        <pt x="443" y="247" on="1"/>
        <pt x="523" y="228" on="1"/>
        <pt x="483" y="9" on="0"/>
        <pt x="410" y="-111" on="1"/>
        <pt x="425" y="-119" on="0"/>
        <pt x="542" y="-190" on="0"/>
        <pt x="595" y="-217" on="0"/>
        <pt x="689" y="-248" on="0"/>
        <pt x="729" y="-248" on="1"/>
        <pt x="774" y="-245" on="1"/>
        <pt x="791" y="-269" on="0"/>
        <pt x="797" y="-284" on="1"/>
      </contour>
      <contour>
        <pt x="428" y="353" on="0"/>
        <pt x="479" y="458" on="0"/>
        <pt x="479" y="596" on="0"/>
        <pt x="441" y="626" on="1"/>
        <pt x="397" y="588" on="0"/>
        <pt x="346" y="480" on="0"/>
        <pt x="346" y="434" on="1"/>
        <pt x="346" y="353" on="0"/>
      </contour>
      <contour>
        <pt x="211" y="-165" on="1"/>
        <pt x="247" y="-165" on="0"/>
        <pt x="279" y="-129" on="1"/>
        <pt x="242" y="-109" on="0"/>
        <pt x="212" y="-109" on="1"/>
        <pt x="169" y="-109" on="0"/>
        <pt x="169" y="-138" on="1"/>
        <pt x="169" y="-151" on="0"/>
        <pt x="195" y="-165" on="0"/>
      </contour>
    </TTGlyph>
    <TTGlyph name="H" xMin="16" yMin="-39" xMax="857" yMax="710">
      <contour>
        <pt x="533" y="-12" on="0"/>
        <pt x="485" y="43" on="0"/>
        <pt x="485" y="134" on="0"/>
        <pt x="530" y="334" on="1"/>
        <pt x="445" y="332" on="0"/>
        <pt x="394" y="318" on="1"/>
        <pt x="365" y="177" on="0"/>
        <pt x="305" y="74" on="1"/>
        <pt x="274" y="22" on="0"/>
        <pt x="186" y="-39" on="0"/>
        <pt x="82" y="-39" on="0"/>
        <pt x="16" y="30" on="0"/>
        <pt x="16" y="86" on="1"/>
        <pt x="16" y="166" on="0"/>
        <pt x="148" y="307" on="0"/>
        <pt x="249" y="350" on="1"/>
        <pt x="258" y="442" on="0"/>
        <pt x="258" y="559" on="0"/>
        <pt x="235" y="607" on="0"/>
        <pt x="185" y="607" on="0"/>
        <pt x="103" y="570" on="0"/>
        <pt x="67" y="539" on="1"/>
        <pt x="42" y="575" on="1"/>
        <pt x="78" y="619" on="0"/>
        <pt x="218" y="698" on="0"/>
        <pt x="283" y="698" on="1"/>
        <pt x="414" y="698" on="0"/>
        <pt x="414" y="499" on="1"/>
        <pt x="414" y="452" on="0"/>
        <pt x="406" y="386" on="1"/>
        <pt x="471" y="399" on="0"/>
        <pt x="545" y="403" on="1"/>
        <pt x="579" y="561" on="0"/>
        <pt x="579" y="653" on="1"/>
        <pt x="579" y="670" on="0"/>
        <pt x="577" y="679" on="1"/>
        <pt x="657" y="710" on="0"/>
        <pt x="738" y="710" on="1"/>
        <pt x="741" y="702" on="0"/>
        <pt x="741" y="682" on="1"/>
        <pt x="741" y="620" on="0"/>
        <pt x="692" y="399" on="1"/>
        <pt x="812" y="390" on="0"/>
        <pt x="856" y="375" on="1"/>
        <pt x="857" y="371" on="0"/>
        <pt x="857" y="360" on="1"/>
        <pt x="857" y="339" on="0"/>
        <pt x="838" y="307" on="1"/>
        <pt x="773" y="327" on="0"/>
        <pt x="678" y="333" on="1"/>
        <pt x="643" y="165" on="0"/>
        <pt x="643" y="66" on="0"/>
        <pt x="667" y="66" on="1"/>
        <pt x="680" y="66" on="0"/>
        <pt x="695" y="71" on="1"/>
        <pt x="710" y="32" on="1"/>
        <pt x="638" y="-12" on="0"/>
      </contour>
      <contour>
        <pt x="124" y="57" on="1"/>
        <pt x="156" y="57" on="0"/>
        <pt x="218" y="167" on="0"/>
        <pt x="237" y="276" on="1"/>
        <pt x="181" y="252" on="0"/>
        <pt x="89" y="150" on="0"/>
        <pt x="89" y="103" on="1"/>
        <pt x="89" y="81" on="0"/>
        <pt x="110" y="57" on="0"/>
      </contour>
    </TTGlyph>
    <TTGlyph name="I" xMin="7" yMin="-39" xMax="409" yMax="698">
      <contour>
        <pt x="273" y="698" on="1"/>
        <pt x="409" y="698" on="0"/>
        <pt x="409" y="501" on="1"/>
        <pt x="409" y="368" on="0"/>
        <pt x="365" y="228" on="1"/>
        <pt x="342" y="155" on="0"/>
        <pt x="279" y="36" on="0"/>
        <pt x="184" y="-39" on="0"/>
        <pt x="73" y="-39" on="0"/>
        <pt x="7" y="32" on="0"/>
        <pt x="7" y="88" on="1"/>
        <pt x="7" y="168" on="0"/>
        <pt x="138" y="304" on="0"/>
        <pt x="239" y="350" on="1"/>
        <pt x="253" y="427" on="0"/>
        <pt x="253" y="562" on="0"/>
        <pt x="227" y="612" on="0"/>
        <pt x="178" y="612" on="0"/>
        <pt x="110" y="586" on="0"/>
        <pt x="79" y="564" on="1"/>
        <pt x="52" y="604" on="1"/>
        <pt x="94" y="641" on="0"/>
        <pt x="217" y="698" on="0"/>
      </contour>
      <contour>
        <pt x="168" y="246" on="0"/>
        <pt x="82" y="153" on="0"/>
        <pt x="82" y="58" on="0"/>
        <pt x="119" y="58" on="1"/>
        <pt x="151" y="59" on="0"/>
        <pt x="210" y="162" on="0"/>
        <pt x="229" y="272" on="1"/>
      </contour>
    </TTGlyph>
    <TTGlyph name="IJ" xMin="7" yMin="-185" xMax="892" yMax="698">
      <contour>
        <pt x="714" y="698" on="0"/>
        <pt x="762" y="598" on="0"/>
        <pt x="762" y="386" on="0"/>
        <pt x="735" y="252" on="1"/>
        <pt x="796" y="260" on="0"/>
        <pt x="876" y="260" on="0"/>
        <pt x="889" y="260" on="1"/>
        <pt x="891" y="252" on="0"/>
        <pt x="891" y="220" on="0"/>
        <pt x="882" y="191" on="1"/>
        <pt x="846" y="195" on="0"/>
        <pt x="757" y="193" on="0"/>
        <pt x="721" y="188" on="1"/>
        <pt x="684" y="34" on="0"/>
        <pt x="622" y="-68" on="1"/>
        <pt x="589" y="-123" on="0"/>
        <pt x="500" y="-185" on="0"/>
        <pt x="394" y="-185" on="0"/>
        <pt x="329" y="-111" on="0"/>
        <pt x="329" y="-53" on="1"/>
        <pt x="329" y="34" on="0"/>
        <pt x="470" y="185" on="0"/>
        <pt x="572" y="223" on="1"/>
        <pt x="604" y="358" on="0"/>
        <pt x="604" y="491" on="1"/>
        <pt x="604" y="555" on="0"/>
        <pt x="585" y="601" on="0"/>
        <pt x="567" y="601" on="1"/>
        <pt x="522" y="601" on="0"/>
        <pt x="441" y="551" on="1"/>
        <pt x="414" y="591" on="1"/>
        <pt x="459" y="631" on="0"/>
        <pt x="591" y="698" on="0"/>
      </contour>
      <contour>
        <pt x="273" y="698" on="1"/>
        <pt x="409" y="698" on="0"/>
        <pt x="409" y="501" on="1"/>
        <pt x="409" y="368" on="0"/>
        <pt x="365" y="228" on="1"/>
        <pt x="342" y="155" on="0"/>
        <pt x="279" y="36" on="0"/>
        <pt x="184" y="-39" on="0"/>
        <pt x="73" y="-39" on="0"/>
        <pt x="7" y="32" on="0"/>
        <pt x="7" y="88" on="1"/>
        <pt x="7" y="168" on="0"/>
        <pt x="138" y="304" on="0"/>
        <pt x="239" y="350" on="1"/>
        <pt x="253" y="427" on="0"/>
        <pt x="253" y="562" on="0"/>
        <pt x="227" y="612" on="0"/>
        <pt x="178" y="612" on="0"/>
        <pt x="110" y="586" on="0"/>
        <pt x="79" y="564" on="1"/>
        <pt x="52" y="604" on="1"/>
        <pt x="94" y="641" on="0"/>
        <pt x="217" y="698" on="0"/>
      </contour>
      <contour>
        <pt x="398" y="-43" on="1"/>
        <pt x="398" y="-64" on="0"/>
        <pt x="406" y="-76" on="1"/>
        <pt x="417" y="-93" on="0"/>
        <pt x="436" y="-93" on="1"/>
        <pt x="468" y="-92" on="0"/>
        <pt x="537" y="32" on="0"/>
        <pt x="561" y="147" on="1"/>
        <pt x="494" y="122" on="0"/>
        <pt x="398" y="13" on="0"/>
      </contour>
      <contour>
        <pt x="168" y="246" on="0"/>
        <pt x="82" y="153" on="0"/>
        <pt x="82" y="58" on="0"/>
        <pt x="119" y="58" on="1"/>
        <pt x="151" y="59" on="0"/>
        <pt x="210" y="162" on="0"/>
        <pt x="229" y="272" on="1"/>
      </contour>
    </TTGlyph>
    <TTGlyph name="Iacute" xMin="7" yMin="-39" xMax="426" yMax="931">
      <contour>
        <pt x="273" y="698" on="1"/>
        <pt x="409" y="698" on="0"/>
        <pt x="409" y="501" on="1"/>
        <pt x="409" y="368" on="0"/>
        <pt x="365" y="228" on="1"/>
        <pt x="342" y="155" on="0"/>
        <pt x="279" y="36" on="0"/>
        <pt x="184" y="-39" on="0"/>
        <pt x="73" y="-39" on="0"/>
        <pt x="7" y="32" on="0"/>
        <pt x="7" y="88" on="1"/>
        <pt x="7" y="168" on="0"/>
        <pt x="138" y="304" on="0"/>
        <pt x="239" y="350" on="1"/>
        <pt x="253" y="427" on="0"/>
        <pt x="253" y="562" on="0"/>
        <pt x="227" y="612" on="0"/>
        <pt x="178" y="612" on="0"/>
        <pt x="110" y="586" on="0"/>
        <pt x="79" y="564" on="1"/>
        <pt x="52" y="604" on="1"/>
        <pt x="94" y="641" on="0"/>
        <pt x="217" y="698" on="0"/>
      </contour>
      <contour>
        <pt x="168" y="246" on="0"/>
        <pt x="82" y="153" on="0"/>
        <pt x="82" y="58" on="0"/>
        <pt x="119" y="58" on="1"/>
        <pt x="151" y="59" on="0"/>
        <pt x="210" y="162" on="0"/>
        <pt x="229" y="272" on="1"/>
      </contour>
      <contour>
        <pt x="426" y="846" on="1"/>
        <pt x="426" y="818" on="0"/>
        <pt x="389" y="802" on="1"/>
        <pt x="298" y="776" on="0"/>
        <pt x="127" y="750" on="1"/>
        <pt x="106" y="796" on="1"/>
        <pt x="316" y="891" on="0"/>
        <pt x="389" y="931" on="1"/>
        <pt x="400" y="915" on="0"/>
        <pt x="426" y="856" on="0"/>
      </contour>
    </TTGlyph>
    <TTGlyph name="Icircumflex" xMin="7" yMin="-39" xMax="476" yMax="919">
      <contour>
        <pt x="273" y="698" on="1"/>
        <pt x="409" y="698" on="0"/>
        <pt x="409" y="501" on="1"/>
        <pt x="409" y="368" on="0"/>
        <pt x="365" y="228" on="1"/>
        <pt x="342" y="155" on="0"/>
        <pt x="279" y="36" on="0"/>
        <pt x="184" y="-39" on="0"/>
        <pt x="73" y="-39" on="0"/>
        <pt x="7" y="32" on="0"/>
        <pt x="7" y="88" on="1"/>
        <pt x="7" y="168" on="0"/>
        <pt x="138" y="304" on="0"/>
        <pt x="239" y="350" on="1"/>
        <pt x="253" y="427" on="0"/>
        <pt x="253" y="562" on="0"/>
        <pt x="227" y="612" on="0"/>
        <pt x="178" y="612" on="0"/>
        <pt x="110" y="586" on="0"/>
        <pt x="79" y="564" on="1"/>
        <pt x="52" y="604" on="1"/>
        <pt x="94" y="641" on="0"/>
        <pt x="217" y="698" on="0"/>
      </contour>
      <contour>
        <pt x="168" y="246" on="0"/>
        <pt x="82" y="153" on="0"/>
        <pt x="82" y="58" on="0"/>
        <pt x="119" y="58" on="1"/>
        <pt x="151" y="59" on="0"/>
        <pt x="210" y="162" on="0"/>
        <pt x="229" y="272" on="1"/>
      </contour>
      <contour>
        <pt x="128" y="819" on="0"/>
        <pt x="308" y="919" on="0"/>
        <pt x="361" y="919" on="0"/>
        <pt x="449" y="816" on="0"/>
        <pt x="476" y="775" on="1"/>
        <pt x="442" y="743" on="1"/>
        <pt x="335" y="797" on="0"/>
        <pt x="303" y="804" on="1"/>
        <pt x="252" y="795" on="0"/>
        <pt x="113" y="742" on="0"/>
        <pt x="104" y="739" on="1"/>
        <pt x="77" y="776" on="1"/>
      </contour>
    </TTGlyph>
    <TTGlyph name="Idieresis" xMin="7" yMin="-39" xMax="452" yMax="899">
      <contour>
        <pt x="273" y="698" on="1"/>
        <pt x="409" y="698" on="0"/>
        <pt x="409" y="501" on="1"/>
        <pt x="409" y="368" on="0"/>
        <pt x="365" y="228" on="1"/>
        <pt x="342" y="155" on="0"/>
        <pt x="279" y="36" on="0"/>
        <pt x="184" y="-39" on="0"/>
        <pt x="73" y="-39" on="0"/>
        <pt x="7" y="32" on="0"/>
        <pt x="7" y="88" on="1"/>
        <pt x="7" y="168" on="0"/>
        <pt x="138" y="304" on="0"/>
        <pt x="239" y="350" on="1"/>
        <pt x="253" y="427" on="0"/>
        <pt x="253" y="562" on="0"/>
        <pt x="227" y="612" on="0"/>
        <pt x="178" y="612" on="0"/>
        <pt x="110" y="586" on="0"/>
        <pt x="79" y="564" on="1"/>
        <pt x="52" y="604" on="1"/>
        <pt x="94" y="641" on="0"/>
        <pt x="217" y="698" on="0"/>
      </contour>
      <contour>
        <pt x="168" y="246" on="0"/>
        <pt x="82" y="153" on="0"/>
        <pt x="82" y="58" on="0"/>
        <pt x="119" y="58" on="1"/>
        <pt x="151" y="59" on="0"/>
        <pt x="210" y="162" on="0"/>
        <pt x="229" y="272" on="1"/>
      </contour>
      <contour>
        <pt x="137" y="765" on="0"/>
        <pt x="104" y="799" on="0"/>
        <pt x="104" y="858" on="0"/>
        <pt x="150" y="899" on="0"/>
        <pt x="181" y="899" on="1"/>
        <pt x="246" y="899" on="0"/>
        <pt x="246" y="836" on="1"/>
        <pt x="246" y="808" on="0"/>
        <pt x="199" y="765" on="0"/>
      </contour>
      <contour>
        <pt x="342" y="765" on="0"/>
        <pt x="310" y="799" on="0"/>
        <pt x="310" y="858" on="0"/>
        <pt x="355" y="899" on="0"/>
        <pt x="386" y="899" on="1"/>
        <pt x="452" y="899" on="0"/>
        <pt x="452" y="836" on="1"/>
        <pt x="452" y="808" on="0"/>
        <pt x="404" y="765" on="0"/>
      </contour>
    </TTGlyph>
    <TTGlyph name="Igrave" xMin="7" yMin="-39" xMax="432" yMax="915">
      <contour>
        <pt x="273" y="698" on="1"/>
        <pt x="409" y="698" on="0"/>
        <pt x="409" y="501" on="1"/>
        <pt x="409" y="368" on="0"/>
        <pt x="365" y="228" on="1"/>
        <pt x="342" y="155" on="0"/>
        <pt x="279" y="36" on="0"/>
        <pt x="184" y="-39" on="0"/>
        <pt x="73" y="-39" on="0"/>
        <pt x="7" y="32" on="0"/>
        <pt x="7" y="88" on="1"/>
        <pt x="7" y="168" on="0"/>
        <pt x="138" y="304" on="0"/>
        <pt x="239" y="350" on="1"/>
        <pt x="253" y="427" on="0"/>
        <pt x="253" y="562" on="0"/>
        <pt x="227" y="612" on="0"/>
        <pt x="178" y="612" on="0"/>
        <pt x="110" y="586" on="0"/>
        <pt x="79" y="564" on="1"/>
        <pt x="52" y="604" on="1"/>
        <pt x="94" y="641" on="0"/>
        <pt x="217" y="698" on="0"/>
      </contour>
      <contour>
        <pt x="168" y="246" on="0"/>
        <pt x="82" y="153" on="0"/>
        <pt x="82" y="58" on="0"/>
        <pt x="119" y="58" on="1"/>
        <pt x="151" y="59" on="0"/>
        <pt x="210" y="162" on="0"/>
        <pt x="229" y="272" on="1"/>
      </contour>
      <contour>
        <pt x="173" y="915" on="1"/>
        <pt x="213" y="915" on="0"/>
        <pt x="432" y="783" on="1"/>
        <pt x="415" y="736" on="1"/>
        <pt x="320" y="764" on="0"/>
        <pt x="109" y="819" on="1"/>
        <pt x="135" y="915" on="0"/>
      </contour>
    </TTGlyph>
    <TTGlyph name="Itilde" xMin="7" yMin="-39" xMax="458" yMax="901">
      <contour>
        <pt x="273" y="698" on="1"/>
        <pt x="409" y="698" on="0"/>
        <pt x="409" y="501" on="1"/>
        <pt x="409" y="368" on="0"/>
        <pt x="365" y="228" on="1"/>
        <pt x="342" y="155" on="0"/>
        <pt x="279" y="36" on="0"/>
        <pt x="184" y="-39" on="0"/>
        <pt x="73" y="-39" on="0"/>
        <pt x="7" y="32" on="0"/>
        <pt x="7" y="88" on="1"/>
        <pt x="7" y="168" on="0"/>
        <pt x="138" y="304" on="0"/>
        <pt x="239" y="350" on="1"/>
        <pt x="253" y="427" on="0"/>
        <pt x="253" y="562" on="0"/>
        <pt x="227" y="612" on="0"/>
        <pt x="178" y="612" on="0"/>
        <pt x="110" y="586" on="0"/>
        <pt x="79" y="564" on="1"/>
        <pt x="52" y="604" on="1"/>
        <pt x="94" y="641" on="0"/>
        <pt x="217" y="698" on="0"/>
      </contour>
      <contour>
        <pt x="168" y="246" on="0"/>
        <pt x="82" y="153" on="0"/>
        <pt x="82" y="58" on="0"/>
        <pt x="119" y="58" on="1"/>
        <pt x="151" y="59" on="0"/>
        <pt x="210" y="162" on="0"/>
        <pt x="229" y="272" on="1"/>
      </contour>
      <contour>
        <pt x="59" y="765" on="1"/>
        <pt x="73" y="901" on="0"/>
        <pt x="161" y="901" on="1"/>
        <pt x="195" y="901" on="0"/>
        <pt x="336" y="865" on="0"/>
        <pt x="381" y="865" on="0"/>
        <pt x="390" y="866" on="1"/>
        <pt x="410" y="870" on="0"/>
        <pt x="426" y="898" on="1"/>
        <pt x="458" y="892" on="1"/>
        <pt x="454" y="851" on="0"/>
        <pt x="441" y="819" on="1"/>
        <pt x="421" y="763" on="0"/>
        <pt x="355" y="763" on="1"/>
        <pt x="332" y="763" on="0"/>
        <pt x="197" y="798" on="0"/>
        <pt x="134" y="798" on="0"/>
        <pt x="106" y="783" on="0"/>
        <pt x="92" y="758" on="1"/>
      </contour>
    </TTGlyph>
    <TTGlyph name="J" xMin="-79" yMin="-185" xMax="484" yMax="698">
      <contour>
        <pt x="306" y="698" on="0"/>
        <pt x="354" y="598" on="0"/>
        <pt x="354" y="386" on="0"/>
        <pt x="327" y="252" on="1"/>
        <pt x="388" y="260" on="0"/>
        <pt x="468" y="260" on="0"/>
        <pt x="481" y="260" on="1"/>
        <pt x="483" y="252" on="0"/>
        <pt x="483" y="220" on="0"/>
        <pt x="474" y="191" on="1"/>
        <pt x="438" y="195" on="0"/>
        <pt x="349" y="193" on="0"/>
        <pt x="313" y="188" on="1"/>
        <pt x="276" y="34" on="0"/>
        <pt x="214" y="-68" on="1"/>
        <pt x="181" y="-123" on="0"/>
        <pt x="92" y="-185" on="0"/>
        <pt x="-14" y="-185" on="0"/>
        <pt x="-79" y="-111" on="0"/>
        <pt x="-79" y="-53" on="1"/>
        <pt x="-79" y="34" on="0"/>
        <pt x="62" y="185" on="0"/>
        <pt x="164" y="223" on="1"/>
        <pt x="196" y="358" on="0"/>
        <pt x="196" y="491" on="1"/>
        <pt x="196" y="555" on="0"/>
        <pt x="177" y="601" on="0"/>
        <pt x="159" y="601" on="1"/>
        <pt x="114" y="601" on="0"/>
        <pt x="33" y="551" on="1"/>
        <pt x="6" y="591" on="1"/>
        <pt x="51" y="631" on="0"/>
        <pt x="183" y="698" on="0"/>
      </contour>
      <contour>
        <pt x="-10" y="-43" on="1"/>
        <pt x="-10" y="-64" on="0"/>
        <pt x="-2" y="-76" on="1"/>
        <pt x="9" y="-93" on="0"/>
        <pt x="28" y="-93" on="1"/>
        <pt x="60" y="-92" on="0"/>
        <pt x="129" y="32" on="0"/>
        <pt x="153" y="147" on="1"/>
        <pt x="86" y="122" on="0"/>
        <pt x="-10" y="13" on="0"/>
      </contour>
    </TTGlyph>
    <TTGlyph name="Jcircumflex" xMin="-79" yMin="-185" xMax="484" yMax="919">
      <contour>
        <pt x="306" y="698" on="0"/>
        <pt x="354" y="598" on="0"/>
        <pt x="354" y="386" on="0"/>
        <pt x="327" y="252" on="1"/>
        <pt x="388" y="260" on="0"/>
        <pt x="468" y="260" on="0"/>
        <pt x="481" y="260" on="1"/>
        <pt x="483" y="252" on="0"/>
        <pt x="483" y="220" on="0"/>
        <pt x="474" y="191" on="1"/>
        <pt x="438" y="195" on="0"/>
        <pt x="349" y="193" on="0"/>
        <pt x="313" y="188" on="1"/>
        <pt x="276" y="34" on="0"/>
        <pt x="214" y="-68" on="1"/>
        <pt x="181" y="-123" on="0"/>
        <pt x="92" y="-185" on="0"/>
        <pt x="-14" y="-185" on="0"/>
        <pt x="-79" y="-111" on="0"/>
        <pt x="-79" y="-53" on="1"/>
        <pt x="-79" y="34" on="0"/>
        <pt x="62" y="185" on="0"/>
        <pt x="164" y="223" on="1"/>
        <pt x="196" y="358" on="0"/>
        <pt x="196" y="491" on="1"/>
        <pt x="196" y="555" on="0"/>
        <pt x="177" y="601" on="0"/>
        <pt x="159" y="601" on="1"/>
        <pt x="114" y="601" on="0"/>
        <pt x="33" y="551" on="1"/>
        <pt x="6" y="591" on="1"/>
        <pt x="51" y="631" on="0"/>
        <pt x="183" y="698" on="0"/>
      </contour>
      <contour>
        <pt x="111" y="821" on="0"/>
        <pt x="275" y="919" on="0"/>
        <pt x="324" y="919" on="0"/>
        <pt x="401" y="821" on="0"/>
        <pt x="428" y="777" on="1"/>
        <pt x="394" y="745" on="1"/>
        <pt x="301" y="796" on="0"/>
        <pt x="270" y="804" on="1"/>
        <pt x="233" y="797" on="0"/>
        <pt x="90" y="741" on="1"/>
        <pt x="63" y="778" on="1"/>
      </contour>
      <contour>
        <pt x="-10" y="-43" on="1"/>
        <pt x="-10" y="-64" on="0"/>
        <pt x="-2" y="-76" on="1"/>
        <pt x="9" y="-93" on="0"/>
        <pt x="28" y="-93" on="1"/>
        <pt x="60" y="-92" on="0"/>
        <pt x="129" y="32" on="0"/>
        <pt x="153" y="147" on="1"/>
        <pt x="86" y="122" on="0"/>
        <pt x="-10" y="13" on="0"/>
      </contour>
    </TTGlyph>
    <TTGlyph name="K" xMin="44" yMin="-129" xMax="656" yMax="710">
      <contour>
        <pt x="652" y="638" on="1"/>
        <pt x="652" y="559" on="0"/>
        <pt x="515" y="400" on="0"/>
        <pt x="422" y="345" on="1"/>
        <pt x="443" y="324" on="0"/>
        <pt x="511" y="138" on="0"/>
        <pt x="551" y="37" on="0"/>
        <pt x="608" y="-55" on="0"/>
        <pt x="637" y="-55" on="1"/>
        <pt x="643" y="-55" on="0"/>
        <pt x="646" y="-54" on="1"/>
        <pt x="656" y="-90" on="1"/>
        <pt x="607" y="-129" on="0"/>
        <pt x="481" y="-129" on="0"/>
        <pt x="429" y="-64" on="0"/>
        <pt x="407" y="37" on="1"/>
        <pt x="404" y="50" on="0"/>
        <pt x="390" y="120" on="1"/>
        <pt x="359" y="273" on="0"/>
        <pt x="340" y="308" on="1"/>
        <pt x="334" y="307" on="0"/>
        <pt x="298" y="307" on="0"/>
        <pt x="289" y="314" on="1"/>
        <pt x="282" y="321" on="0"/>
        <pt x="282" y="375" on="0"/>
        <pt x="292" y="404" on="0"/>
        <pt x="349" y="404" on="0"/>
        <pt x="375" y="387" on="1"/>
        <pt x="411" y="411" on="0"/>
        <pt x="464" y="479" on="1"/>
        <pt x="492" y="530" on="0"/>
        <pt x="492" y="595" on="1"/>
        <pt x="492" y="624" on="0"/>
        <pt x="487" y="656" on="1"/>
        <pt x="520" y="677" on="0"/>
        <pt x="589" y="702" on="0"/>
        <pt x="607" y="704" on="1"/>
        <pt x="625" y="706" on="1"/>
        <pt x="652" y="690" on="0"/>
      </contour>
      <contour>
        <pt x="161" y="621" on="1"/>
        <pt x="161" y="644" on="0"/>
        <pt x="137" y="671" on="1"/>
        <pt x="138" y="678" on="1"/>
        <pt x="193" y="710" on="0"/>
        <pt x="273" y="710" on="1"/>
        <pt x="304" y="710" on="0"/>
        <pt x="319" y="705" on="1"/>
        <pt x="324" y="694" on="0"/>
        <pt x="324" y="655" on="0"/>
        <pt x="318" y="606" on="0"/>
        <pt x="313" y="569" on="0"/>
        <pt x="297" y="499" on="0"/>
        <pt x="293" y="484" on="1"/>
        <pt x="211" y="167" on="0"/>
        <pt x="200" y="11" on="1"/>
        <pt x="141" y="-6" on="0"/>
        <pt x="69" y="-6" on="1"/>
        <pt x="52" y="-6" on="0"/>
        <pt x="44" y="-3" on="1"/>
        <pt x="49" y="59" on="0"/>
        <pt x="161" y="555" on="0"/>
      </contour>
    </TTGlyph>
    <TTGlyph name="L" xMin="-26" yMin="-141" xMax="582" yMax="710">
      <contour>
        <pt x="567" y="-88" on="0"/>
        <pt x="502" y="-141" on="0"/>
        <pt x="428" y="-141" on="0"/>
        <pt x="357" y="-100" on="0"/>
        <pt x="313" y="-58" on="0"/>
        <pt x="232" y="30" on="0"/>
        <pt x="217" y="45" on="1"/>
        <pt x="164" y="-12" on="0"/>
        <pt x="88" y="-12" on="1"/>
        <pt x="38" y="-12" on="0"/>
        <pt x="-26" y="38" on="0"/>
        <pt x="-26" y="121" on="0"/>
        <pt x="43" y="180" on="0"/>
        <pt x="101" y="180" on="1"/>
        <pt x="134" y="180" on="0"/>
        <pt x="167" y="169" on="1"/>
        <pt x="177" y="218" on="0"/>
        <pt x="183" y="308" on="1"/>
        <pt x="122" y="319" on="0"/>
        <pt x="45" y="400" on="0"/>
        <pt x="45" y="472" on="1"/>
        <pt x="45" y="500" on="0"/>
        <pt x="54" y="543" on="1"/>
        <pt x="65" y="545" on="0"/>
        <pt x="101" y="545" on="0"/>
        <pt x="120" y="531" on="1"/>
        <pt x="107" y="507" on="0"/>
        <pt x="107" y="467" on="1"/>
        <pt x="107" y="386" on="0"/>
        <pt x="186" y="367" on="1"/>
        <pt x="190" y="476" on="0"/>
        <pt x="206" y="565" on="0"/>
        <pt x="246" y="646" on="0"/>
        <pt x="339" y="710" on="0"/>
        <pt x="483" y="710" on="0"/>
        <pt x="562" y="625" on="0"/>
        <pt x="562" y="567" on="1"/>
        <pt x="562" y="486" on="0"/>
        <pt x="413" y="321" on="0"/>
        <pt x="303" y="303" on="1"/>
        <pt x="272" y="168" on="0"/>
        <pt x="258" y="120" on="1"/>
        <pt x="274" y="108" on="0"/>
        <pt x="359" y="42" on="0"/>
        <pt x="404" y="11" on="0"/>
        <pt x="481" y="-20" on="0"/>
        <pt x="517" y="-20" on="1"/>
        <pt x="559" y="-17" on="1"/>
        <pt x="576" y="-41" on="0"/>
        <pt x="582" y="-56" on="1"/>
      </contour>
      <contour>
        <pt x="495" y="558" on="1"/>
        <pt x="495" y="588" on="0"/>
        <pt x="464" y="626" on="0"/>
        <pt x="438" y="626" on="1"/>
        <pt x="371" y="626" on="0"/>
        <pt x="340" y="480" on="1"/>
        <pt x="323" y="400" on="0"/>
        <pt x="316" y="364" on="1"/>
        <pt x="390" y="377" on="0"/>
        <pt x="495" y="498" on="0"/>
      </contour>
      <contour>
        <pt x="79" y="63" on="1"/>
        <pt x="114" y="63" on="0"/>
        <pt x="141" y="101" on="1"/>
        <pt x="112" y="119" on="0"/>
        <pt x="83" y="119" on="1"/>
        <pt x="40" y="119" on="0"/>
        <pt x="40" y="91" on="1"/>
        <pt x="40" y="77" on="0"/>
        <pt x="64" y="63" on="0"/>
      </contour>
    </TTGlyph>
    <TTGlyph name="Ldotaccent" xMin="-26" yMin="-141" xMax="582" yMax="710">
      <contour>
        <pt x="567" y="-88" on="0"/>
        <pt x="502" y="-141" on="0"/>
        <pt x="428" y="-141" on="0"/>
        <pt x="357" y="-100" on="0"/>
        <pt x="313" y="-58" on="0"/>
        <pt x="232" y="30" on="0"/>
        <pt x="217" y="45" on="1"/>
        <pt x="164" y="-12" on="0"/>
        <pt x="88" y="-12" on="1"/>
        <pt x="38" y="-12" on="0"/>
        <pt x="-26" y="38" on="0"/>
        <pt x="-26" y="121" on="0"/>
        <pt x="43" y="180" on="0"/>
        <pt x="101" y="180" on="1"/>
        <pt x="134" y="180" on="0"/>
        <pt x="167" y="169" on="1"/>
        <pt x="177" y="218" on="0"/>
        <pt x="183" y="308" on="1"/>
        <pt x="122" y="319" on="0"/>
        <pt x="45" y="400" on="0"/>
        <pt x="45" y="472" on="1"/>
        <pt x="45" y="500" on="0"/>
        <pt x="54" y="543" on="1"/>
        <pt x="65" y="545" on="0"/>
        <pt x="101" y="545" on="0"/>
        <pt x="120" y="531" on="1"/>
        <pt x="107" y="507" on="0"/>
        <pt x="107" y="467" on="1"/>
        <pt x="107" y="386" on="0"/>
        <pt x="186" y="367" on="1"/>
        <pt x="190" y="476" on="0"/>
        <pt x="206" y="565" on="0"/>
        <pt x="246" y="646" on="0"/>
        <pt x="339" y="710" on="0"/>
        <pt x="483" y="710" on="0"/>
        <pt x="562" y="625" on="0"/>
        <pt x="562" y="567" on="1"/>
        <pt x="562" y="486" on="0"/>
        <pt x="413" y="321" on="0"/>
        <pt x="303" y="303" on="1"/>
        <pt x="272" y="168" on="0"/>
        <pt x="258" y="120" on="1"/>
        <pt x="274" y="108" on="0"/>
        <pt x="359" y="42" on="0"/>
        <pt x="404" y="11" on="0"/>
        <pt x="481" y="-20" on="0"/>
        <pt x="517" y="-20" on="1"/>
        <pt x="559" y="-17" on="1"/>
        <pt x="576" y="-41" on="0"/>
        <pt x="582" y="-56" on="1"/>
      </contour>
      <contour>
        <pt x="495" y="558" on="1"/>
        <pt x="495" y="588" on="0"/>
        <pt x="464" y="626" on="0"/>
        <pt x="438" y="626" on="1"/>
        <pt x="371" y="626" on="0"/>
        <pt x="340" y="480" on="1"/>
        <pt x="323" y="400" on="0"/>
        <pt x="316" y="364" on="1"/>
        <pt x="390" y="377" on="0"/>
        <pt x="495" y="498" on="0"/>
      </contour>
      <contour>
        <pt x="378" y="122" on="0"/>
        <pt x="343" y="161" on="0"/>
        <pt x="343" y="224" on="0"/>
        <pt x="392" y="271" on="0"/>
        <pt x="456" y="271" on="0"/>
        <pt x="490" y="233" on="0"/>
        <pt x="490" y="172" on="0"/>
        <pt x="440" y="122" on="0"/>
      </contour>
      <contour>
        <pt x="79" y="63" on="1"/>
        <pt x="114" y="63" on="0"/>
        <pt x="141" y="101" on="1"/>
        <pt x="112" y="119" on="0"/>
        <pt x="83" y="119" on="1"/>
        <pt x="40" y="119" on="0"/>
        <pt x="40" y="91" on="1"/>
        <pt x="40" y="77" on="0"/>
        <pt x="64" y="63" on="0"/>
      </contour>
    </TTGlyph>
    <TTGlyph name="Lslash" xMin="-26" yMin="-141" xMax="582" yMax="710">
      <contour>
        <pt x="45" y="472" on="1"/>
        <pt x="45" y="500" on="0"/>
        <pt x="54" y="543" on="1"/>
        <pt x="65" y="545" on="0"/>
        <pt x="101" y="545" on="0"/>
        <pt x="120" y="531" on="1"/>
        <pt x="107" y="507" on="0"/>
        <pt x="107" y="467" on="1"/>
        <pt x="107" y="386" on="0"/>
        <pt x="186" y="367" on="1"/>
        <pt x="190" y="476" on="0"/>
        <pt x="206" y="565" on="0"/>
        <pt x="246" y="646" on="0"/>
        <pt x="339" y="710" on="0"/>
        <pt x="483" y="710" on="0"/>
        <pt x="562" y="625" on="0"/>
        <pt x="562" y="567" on="1"/>
        <pt x="562" y="486" on="0"/>
        <pt x="413" y="321" on="0"/>
        <pt x="303" y="303" on="1"/>
        <pt x="297" y="276" on="1"/>
        <pt x="384" y="276" on="0"/>
        <pt x="436" y="265" on="1"/>
        <pt x="439" y="257" on="0"/>
        <pt x="437" y="248" on="1"/>
        <pt x="437" y="226" on="0"/>
        <pt x="420" y="198" on="1"/>
        <pt x="375" y="213" on="0"/>
        <pt x="290" y="216" on="0"/>
        <pt x="283" y="217" on="1"/>
        <pt x="273" y="170" on="0"/>
        <pt x="258" y="120" on="1"/>
        <pt x="274" y="108" on="0"/>
        <pt x="359" y="42" on="0"/>
        <pt x="404" y="11" on="0"/>
        <pt x="481" y="-20" on="0"/>
        <pt x="517" y="-20" on="1"/>
        <pt x="559" y="-17" on="1"/>
        <pt x="576" y="-41" on="0"/>
        <pt x="582" y="-56" on="1"/>
        <pt x="567" y="-88" on="0"/>
        <pt x="502" y="-141" on="0"/>
        <pt x="428" y="-141" on="0"/>
        <pt x="357" y="-100" on="0"/>
        <pt x="313" y="-58" on="0"/>
        <pt x="232" y="30" on="0"/>
        <pt x="217" y="45" on="1"/>
        <pt x="164" y="-12" on="0"/>
        <pt x="88" y="-12" on="1"/>
        <pt x="38" y="-12" on="0"/>
        <pt x="-26" y="38" on="0"/>
        <pt x="-26" y="121" on="0"/>
        <pt x="43" y="180" on="0"/>
        <pt x="101" y="180" on="1"/>
        <pt x="134" y="180" on="0"/>
        <pt x="167" y="169" on="1"/>
        <pt x="173" y="201" on="0"/>
        <pt x="175" y="219" on="1"/>
        <pt x="122" y="217" on="0"/>
        <pt x="64" y="209" on="1"/>
        <pt x="64" y="261" on="1"/>
        <pt x="117" y="269" on="0"/>
        <pt x="181" y="274" on="1"/>
        <pt x="183" y="296" on="0"/>
        <pt x="183" y="308" on="1"/>
        <pt x="122" y="319" on="0"/>
        <pt x="45" y="400" on="0"/>
      </contour>
      <contour>
        <pt x="495" y="558" on="1"/>
        <pt x="495" y="588" on="0"/>
        <pt x="464" y="626" on="0"/>
        <pt x="438" y="626" on="1"/>
        <pt x="371" y="626" on="0"/>
        <pt x="340" y="480" on="1"/>
        <pt x="323" y="400" on="0"/>
        <pt x="316" y="364" on="1"/>
        <pt x="390" y="377" on="0"/>
        <pt x="495" y="498" on="0"/>
      </contour>
      <contour>
        <pt x="79" y="63" on="1"/>
        <pt x="114" y="63" on="0"/>
        <pt x="141" y="101" on="1"/>
        <pt x="112" y="119" on="0"/>
        <pt x="83" y="119" on="1"/>
        <pt x="40" y="119" on="0"/>
        <pt x="40" y="91" on="1"/>
        <pt x="40" y="77" on="0"/>
        <pt x="64" y="63" on="0"/>
      </contour>
    </TTGlyph>
    <TTGlyph name="M" xMin="17" yMin="-39" xMax="1027" yMax="710">
      <contour>
        <pt x="999" y="33" on="1"/>
        <pt x="934" y="-12" on="0"/>
        <pt x="820" y="-12" on="0"/>
        <pt x="773" y="42" on="0"/>
        <pt x="773" y="130" on="0"/>
        <pt x="867" y="495" on="0"/>
        <pt x="867" y="539" on="1"/>
        <pt x="867" y="594" on="0"/>
        <pt x="789" y="594" on="0"/>
        <pt x="722" y="536" on="1"/>
        <pt x="720" y="528" on="0"/>
        <pt x="689" y="414" on="1"/>
        <pt x="621" y="164" on="0"/>
        <pt x="616" y="11" on="1"/>
        <pt x="577" y="-4" on="0"/>
        <pt x="475" y="-4" on="1"/>
        <pt x="462" y="-4" on="1"/>
        <pt x="462" y="58" on="0"/>
        <pt x="568" y="506" on="0"/>
        <pt x="568" y="543" on="1"/>
        <pt x="568" y="594" on="0"/>
        <pt x="527" y="594" on="1"/>
        <pt x="483" y="594" on="0"/>
        <pt x="412" y="532" on="1"/>
        <pt x="412" y="328" on="0"/>
        <pt x="340" y="150" on="1"/>
        <pt x="306" y="66" on="0"/>
        <pt x="197" y="-39" on="0"/>
        <pt x="82" y="-39" on="0"/>
        <pt x="17" y="30" on="0"/>
        <pt x="17" y="153" on="0"/>
        <pt x="105" y="320" on="0"/>
        <pt x="204" y="439" on="0"/>
        <pt x="256" y="487" on="1"/>
        <pt x="256" y="579" on="0"/>
        <pt x="234" y="598" on="1"/>
        <pt x="223" y="607" on="0"/>
        <pt x="182" y="607" on="0"/>
        <pt x="103" y="571" on="0"/>
        <pt x="67" y="540" on="1"/>
        <pt x="42" y="575" on="1"/>
        <pt x="77" y="618" on="0"/>
        <pt x="217" y="698" on="0"/>
        <pt x="326" y="698" on="0"/>
        <pt x="389" y="641" on="0"/>
        <pt x="402" y="597" on="1"/>
        <pt x="540" y="710" on="0"/>
        <pt x="620" y="710" on="1"/>
        <pt x="660" y="710" on="0"/>
        <pt x="717" y="660" on="0"/>
        <pt x="725" y="610" on="1"/>
        <pt x="843" y="710" on="0"/>
        <pt x="922" y="710" on="1"/>
        <pt x="966" y="710" on="0"/>
        <pt x="1027" y="640" on="0"/>
        <pt x="1027" y="521" on="0"/>
        <pt x="929" y="161" on="0"/>
        <pt x="929" y="66" on="0"/>
        <pt x="959" y="66" on="1"/>
        <pt x="969" y="66" on="0"/>
        <pt x="984" y="71" on="1"/>
      </contour>
      <contour>
        <pt x="120" y="56" on="1"/>
        <pt x="160" y="56" on="0"/>
        <pt x="239" y="255" on="0"/>
        <pt x="253" y="405" on="1"/>
        <pt x="189" y="339" on="0"/>
        <pt x="87" y="158" on="0"/>
        <pt x="87" y="56" on="0"/>
      </contour>
    </TTGlyph>
    <TTGlyph name="N" xMin="17" yMin="-39" xMax="744" yMax="710">
      <contour>
        <pt x="411" y="516" on="1"/>
        <pt x="412" y="497" on="1"/>
        <pt x="412" y="419" on="0"/>
        <pt x="374" y="237" on="0"/>
        <pt x="306" y="71" on="0"/>
        <pt x="197" y="-39" on="0"/>
        <pt x="82" y="-39" on="0"/>
        <pt x="17" y="29" on="0"/>
        <pt x="17" y="89" on="1"/>
        <pt x="17" y="184" on="0"/>
        <pt x="171" y="407" on="0"/>
        <pt x="256" y="480" on="1"/>
        <pt x="256" y="576" on="0"/>
        <pt x="234" y="597" on="1"/>
        <pt x="223" y="607" on="0"/>
        <pt x="182" y="607" on="0"/>
        <pt x="103" y="571" on="0"/>
        <pt x="67" y="540" on="1"/>
        <pt x="42" y="575" on="1"/>
        <pt x="78" y="619" on="0"/>
        <pt x="217" y="698" on="0"/>
        <pt x="280" y="698" on="1"/>
        <pt x="380" y="698" on="0"/>
        <pt x="404" y="582" on="1"/>
        <pt x="550" y="710" on="0"/>
        <pt x="639" y="710" on="1"/>
        <pt x="683" y="710" on="0"/>
        <pt x="744" y="640" on="0"/>
        <pt x="744" y="521" on="0"/>
        <pt x="646" y="161" on="0"/>
        <pt x="646" y="66" on="0"/>
        <pt x="676" y="66" on="1"/>
        <pt x="686" y="66" on="0"/>
        <pt x="701" y="71" on="1"/>
        <pt x="716" y="33" on="1"/>
        <pt x="651" y="-12" on="0"/>
        <pt x="537" y="-12" on="0"/>
        <pt x="490" y="42" on="0"/>
        <pt x="490" y="130" on="0"/>
        <pt x="584" y="495" on="0"/>
        <pt x="584" y="539" on="1"/>
        <pt x="584" y="594" on="0"/>
        <pt x="544" y="594" on="1"/>
        <pt x="496" y="594" on="0"/>
      </contour>
      <contour>
        <pt x="120" y="56" on="1"/>
        <pt x="160" y="56" on="0"/>
        <pt x="239" y="248" on="0"/>
        <pt x="253" y="398" on="1"/>
        <pt x="198" y="347" on="0"/>
        <pt x="87" y="163" on="0"/>
        <pt x="87" y="104" on="1"/>
        <pt x="87" y="80" on="0"/>
        <pt x="106" y="56" on="0"/>
      </contour>
    </TTGlyph>
    <TTGlyph name="Nacute" xMin="17" yMin="-39" xMax="744" yMax="931">
      <contour>
        <pt x="411" y="516" on="1"/>
        <pt x="412" y="497" on="1"/>
        <pt x="412" y="419" on="0"/>
        <pt x="374" y="237" on="0"/>
        <pt x="306" y="71" on="0"/>
        <pt x="197" y="-39" on="0"/>
        <pt x="82" y="-39" on="0"/>
        <pt x="17" y="29" on="0"/>
        <pt x="17" y="89" on="1"/>
        <pt x="17" y="184" on="0"/>
        <pt x="171" y="407" on="0"/>
        <pt x="256" y="480" on="1"/>
        <pt x="256" y="576" on="0"/>
        <pt x="234" y="597" on="1"/>
        <pt x="223" y="607" on="0"/>
        <pt x="182" y="607" on="0"/>
        <pt x="103" y="571" on="0"/>
        <pt x="67" y="540" on="1"/>
        <pt x="42" y="575" on="1"/>
        <pt x="78" y="619" on="0"/>
        <pt x="217" y="698" on="0"/>
        <pt x="280" y="698" on="1"/>
        <pt x="380" y="698" on="0"/>
        <pt x="404" y="582" on="1"/>
        <pt x="550" y="710" on="0"/>
        <pt x="639" y="710" on="1"/>
        <pt x="683" y="710" on="0"/>
        <pt x="744" y="640" on="0"/>
        <pt x="744" y="521" on="0"/>
        <pt x="646" y="161" on="0"/>
        <pt x="646" y="66" on="0"/>
        <pt x="676" y="66" on="1"/>
        <pt x="686" y="66" on="0"/>
        <pt x="701" y="71" on="1"/>
        <pt x="716" y="33" on="1"/>
        <pt x="651" y="-12" on="0"/>
        <pt x="537" y="-12" on="0"/>
        <pt x="490" y="42" on="0"/>
        <pt x="490" y="130" on="0"/>
        <pt x="584" y="495" on="0"/>
        <pt x="584" y="539" on="1"/>
        <pt x="584" y="594" on="0"/>
        <pt x="544" y="594" on="1"/>
        <pt x="496" y="594" on="0"/>
      </contour>
      <contour>
        <pt x="700" y="846" on="1"/>
        <pt x="700" y="818" on="0"/>
        <pt x="663" y="802" on="1"/>
        <pt x="572" y="776" on="0"/>
        <pt x="401" y="750" on="1"/>
        <pt x="380" y="796" on="1"/>
        <pt x="590" y="891" on="0"/>
        <pt x="663" y="931" on="1"/>
        <pt x="674" y="915" on="0"/>
        <pt x="700" y="856" on="0"/>
      </contour>
      <contour>
        <pt x="120" y="56" on="1"/>
        <pt x="160" y="56" on="0"/>
        <pt x="239" y="248" on="0"/>
        <pt x="253" y="398" on="1"/>
        <pt x="198" y="347" on="0"/>
        <pt x="87" y="163" on="0"/>
        <pt x="87" y="104" on="1"/>
        <pt x="87" y="80" on="0"/>
        <pt x="106" y="56" on="0"/>
      </contour>
    </TTGlyph>
    <TTGlyph name="Ntilde" xMin="17" yMin="-39" xMax="744" yMax="901">
      <contour>
        <pt x="411" y="516" on="1"/>
        <pt x="412" y="497" on="1"/>
        <pt x="412" y="419" on="0"/>
        <pt x="374" y="237" on="0"/>
        <pt x="306" y="71" on="0"/>
        <pt x="197" y="-39" on="0"/>
        <pt x="82" y="-39" on="0"/>
        <pt x="17" y="29" on="0"/>
        <pt x="17" y="89" on="1"/>
        <pt x="17" y="184" on="0"/>
        <pt x="171" y="407" on="0"/>
        <pt x="256" y="480" on="1"/>
        <pt x="256" y="576" on="0"/>
        <pt x="234" y="597" on="1"/>
        <pt x="223" y="607" on="0"/>
        <pt x="182" y="607" on="0"/>
        <pt x="103" y="571" on="0"/>
        <pt x="67" y="540" on="1"/>
        <pt x="42" y="575" on="1"/>
        <pt x="78" y="619" on="0"/>
        <pt x="217" y="698" on="0"/>
        <pt x="280" y="698" on="1"/>
        <pt x="380" y="698" on="0"/>
        <pt x="404" y="582" on="1"/>
        <pt x="550" y="710" on="0"/>
        <pt x="639" y="710" on="1"/>
        <pt x="683" y="710" on="0"/>
        <pt x="744" y="640" on="0"/>
        <pt x="744" y="521" on="0"/>
        <pt x="646" y="161" on="0"/>
        <pt x="646" y="66" on="0"/>
        <pt x="676" y="66" on="1"/>
        <pt x="686" y="66" on="0"/>
        <pt x="701" y="71" on="1"/>
        <pt x="716" y="33" on="1"/>
        <pt x="651" y="-12" on="0"/>
        <pt x="537" y="-12" on="0"/>
        <pt x="490" y="42" on="0"/>
        <pt x="490" y="130" on="0"/>
        <pt x="584" y="495" on="0"/>
        <pt x="584" y="539" on="1"/>
        <pt x="584" y="594" on="0"/>
        <pt x="544" y="594" on="1"/>
        <pt x="496" y="594" on="0"/>
      </contour>
      <contour>
        <pt x="319" y="765" on="1"/>
        <pt x="333" y="901" on="0"/>
        <pt x="421" y="901" on="1"/>
        <pt x="455" y="901" on="0"/>
        <pt x="596" y="865" on="0"/>
        <pt x="641" y="865" on="0"/>
        <pt x="650" y="866" on="1"/>
        <pt x="670" y="870" on="0"/>
        <pt x="686" y="898" on="1"/>
        <pt x="718" y="892" on="1"/>
        <pt x="714" y="851" on="0"/>
        <pt x="701" y="819" on="1"/>
        <pt x="681" y="763" on="0"/>
        <pt x="615" y="763" on="1"/>
        <pt x="592" y="763" on="0"/>
        <pt x="457" y="798" on="0"/>
        <pt x="394" y="798" on="0"/>
        <pt x="366" y="783" on="0"/>
        <pt x="352" y="758" on="1"/>
      </contour>
      <contour>
        <pt x="120" y="56" on="1"/>
        <pt x="160" y="56" on="0"/>
        <pt x="239" y="248" on="0"/>
        <pt x="253" y="398" on="1"/>
        <pt x="198" y="347" on="0"/>
        <pt x="87" y="163" on="0"/>
        <pt x="87" y="104" on="1"/>
        <pt x="87" y="80" on="0"/>
        <pt x="106" y="56" on="0"/>
      </contour>
    </TTGlyph>
    <TTGlyph name="O" xMin="32" yMin="-12" xMax="740" yMax="709">
      <contour>
        <pt x="725" y="322" on="1"/>
        <pt x="736" y="295" on="0"/>
        <pt x="740" y="263" on="1"/>
        <pt x="717" y="249" on="0"/>
        <pt x="623" y="219" on="0"/>
        <pt x="582" y="216" on="1"/>
        <pt x="538" y="113" on="0"/>
        <pt x="383" y="-12" on="0"/>
        <pt x="153" y="-12" on="0"/>
        <pt x="32" y="143" on="0"/>
        <pt x="32" y="418" on="0"/>
        <pt x="160" y="645" on="0"/>
        <pt x="279" y="709" on="1"/>
        <pt x="300" y="674" on="1"/>
        <pt x="192" y="539" on="0"/>
        <pt x="192" y="287" on="1"/>
        <pt x="192" y="123" on="0"/>
        <pt x="242" y="78" on="1"/>
        <pt x="265" y="56" on="0"/>
        <pt x="300" y="56" on="1"/>
        <pt x="399" y="56" on="0"/>
        <pt x="444" y="226" on="1"/>
        <pt x="366" y="240" on="0"/>
        <pt x="282" y="345" on="0"/>
        <pt x="282" y="534" on="0"/>
        <pt x="390" y="685" on="0"/>
        <pt x="543" y="685" on="0"/>
        <pt x="629" y="550" on="0"/>
        <pt x="629" y="444" on="1"/>
        <pt x="629" y="377" on="0"/>
        <pt x="602" y="281" on="1"/>
        <pt x="647" y="283" on="0"/>
        <pt x="706" y="312" on="1"/>
      </contour>
      <contour>
        <pt x="471" y="518" on="0"/>
        <pt x="455" y="587" on="0"/>
        <pt x="395" y="587" on="0"/>
        <pt x="344" y="498" on="0"/>
        <pt x="344" y="368" on="0"/>
        <pt x="402" y="295" on="0"/>
        <pt x="455" y="290" on="1"/>
        <pt x="471" y="375" on="0"/>
      </contour>
    </TTGlyph>
    <TTGlyph name="OE" xMin="32" yMin="-12" xMax="996" yMax="747">
      <contour>
        <pt x="866" y="691" on="1"/>
        <pt x="826" y="691" on="0"/>
        <pt x="789" y="674" on="1"/>
        <pt x="831" y="640" on="0"/>
        <pt x="831" y="538" on="0"/>
        <pt x="777" y="460" on="0"/>
        <pt x="696" y="460" on="0"/>
        <pt x="647" y="511" on="0"/>
        <pt x="647" y="601" on="0"/>
        <pt x="677" y="644" on="1"/>
        <pt x="630" y="641" on="0"/>
        <pt x="564" y="568" on="0"/>
        <pt x="564" y="448" on="0"/>
        <pt x="588" y="402" on="1"/>
        <pt x="622" y="409" on="0"/>
        <pt x="657" y="409" on="1"/>
        <pt x="770" y="409" on="0"/>
        <pt x="770" y="341" on="1"/>
        <pt x="770" y="312" on="0"/>
        <pt x="725" y="267" on="0"/>
        <pt x="620" y="267" on="0"/>
        <pt x="558" y="304" on="1"/>
        <pt x="500" y="249" on="0"/>
        <pt x="500" y="182" on="1"/>
        <pt x="500" y="138" on="0"/>
        <pt x="556" y="80" on="0"/>
        <pt x="652" y="80" on="0"/>
        <pt x="756" y="144" on="0"/>
        <pt x="796" y="189" on="1"/>
        <pt x="832" y="157" on="1"/>
        <pt x="806" y="119" on="0"/>
        <pt x="760" y="76" on="1"/>
        <pt x="667" y="-12" on="0"/>
        <pt x="554" y="-12" on="1"/>
        <pt x="464" y="-12" on="0"/>
        <pt x="405" y="34" on="1"/>
        <pt x="345" y="-12" on="0"/>
        <pt x="273" y="-12" on="1"/>
        <pt x="163" y="-12" on="0"/>
        <pt x="32" y="141" on="0"/>
        <pt x="32" y="264" on="1"/>
        <pt x="32" y="339" on="0"/>
        <pt x="82" y="495" on="0"/>
        <pt x="171" y="627" on="0"/>
        <pt x="309" y="711" on="0"/>
        <pt x="466" y="711" on="0"/>
        <pt x="520" y="669" on="1"/>
        <pt x="584" y="710" on="0"/>
        <pt x="666" y="710" on="1"/>
        <pt x="704" y="710" on="0"/>
        <pt x="735" y="701" on="1"/>
        <pt x="802" y="747" on="0"/>
        <pt x="882" y="747" on="1"/>
        <pt x="919" y="747" on="0"/>
        <pt x="982" y="727" on="0"/>
        <pt x="996" y="713" on="1"/>
        <pt x="994" y="680" on="0"/>
        <pt x="974" y="658" on="1"/>
        <pt x="967" y="651" on="1"/>
        <pt x="932" y="691" on="0"/>
      </contour>
      <contour>
        <pt x="482" y="370" on="1"/>
        <pt x="432" y="433" on="0"/>
        <pt x="432" y="570" on="0"/>
        <pt x="462" y="614" on="1"/>
        <pt x="433" y="643" on="0"/>
        <pt x="343" y="643" on="0"/>
        <pt x="260" y="552" on="0"/>
        <pt x="236" y="484" on="1"/>
        <pt x="188" y="342" on="0"/>
        <pt x="188" y="212" on="1"/>
        <pt x="188" y="55" on="0"/>
        <pt x="279" y="55" on="1"/>
        <pt x="325" y="55" on="0"/>
        <pt x="357" y="92" on="1"/>
        <pt x="340" y="126" on="0"/>
        <pt x="340" y="171" on="1"/>
        <pt x="340" y="303" on="0"/>
      </contour>
      <contour>
        <pt x="772" y="572" on="1"/>
        <pt x="772" y="615" on="0"/>
        <pt x="734" y="635" on="1"/>
        <pt x="704" y="603" on="0"/>
        <pt x="704" y="515" on="0"/>
        <pt x="735" y="515" on="1"/>
        <pt x="751" y="515" on="0"/>
        <pt x="772" y="548" on="0"/>
      </contour>
      <contour>
        <pt x="716" y="348" on="0"/>
        <pt x="693" y="361" on="0"/>
        <pt x="650" y="361" on="0"/>
        <pt x="623" y="349" on="1"/>
        <pt x="651" y="320" on="0"/>
        <pt x="716" y="320" on="0"/>
        <pt x="716" y="338" on="1"/>
      </contour>
    </TTGlyph>
    <TTGlyph name="Oacute" xMin="32" yMin="-12" xMax="740" yMax="931">
      <contour>
        <pt x="725" y="322" on="1"/>
        <pt x="736" y="295" on="0"/>
        <pt x="740" y="263" on="1"/>
        <pt x="717" y="249" on="0"/>
        <pt x="623" y="219" on="0"/>
        <pt x="582" y="216" on="1"/>
        <pt x="538" y="113" on="0"/>
        <pt x="383" y="-12" on="0"/>
        <pt x="153" y="-12" on="0"/>
        <pt x="32" y="143" on="0"/>
        <pt x="32" y="418" on="0"/>
        <pt x="160" y="645" on="0"/>
        <pt x="279" y="709" on="1"/>
        <pt x="300" y="674" on="1"/>
        <pt x="192" y="539" on="0"/>
        <pt x="192" y="287" on="1"/>
        <pt x="192" y="123" on="0"/>
        <pt x="242" y="78" on="1"/>
        <pt x="265" y="56" on="0"/>
        <pt x="300" y="56" on="1"/>
        <pt x="399" y="56" on="0"/>
        <pt x="444" y="226" on="1"/>
        <pt x="366" y="240" on="0"/>
        <pt x="282" y="345" on="0"/>
        <pt x="282" y="534" on="0"/>
        <pt x="390" y="685" on="0"/>
        <pt x="543" y="685" on="0"/>
        <pt x="629" y="550" on="0"/>
        <pt x="629" y="444" on="1"/>
        <pt x="629" y="377" on="0"/>
        <pt x="602" y="281" on="1"/>
        <pt x="647" y="283" on="0"/>
        <pt x="706" y="312" on="1"/>
      </contour>
      <contour>
        <pt x="471" y="518" on="0"/>
        <pt x="455" y="587" on="0"/>
        <pt x="395" y="587" on="0"/>
        <pt x="344" y="498" on="0"/>
        <pt x="344" y="368" on="0"/>
        <pt x="402" y="295" on="0"/>
        <pt x="455" y="290" on="1"/>
        <pt x="471" y="375" on="0"/>
      </contour>
      <contour>
        <pt x="604" y="846" on="1"/>
        <pt x="604" y="818" on="0"/>
        <pt x="567" y="802" on="1"/>
        <pt x="476" y="776" on="0"/>
        <pt x="305" y="750" on="1"/>
        <pt x="284" y="796" on="1"/>
        <pt x="494" y="891" on="0"/>
        <pt x="567" y="931" on="1"/>
        <pt x="578" y="915" on="0"/>
        <pt x="604" y="856" on="0"/>
      </contour>
    </TTGlyph>
    <TTGlyph name="Ocircumflex" xMin="32" yMin="-12" xMax="740" yMax="919">
      <contour>
        <pt x="725" y="322" on="1"/>
        <pt x="736" y="295" on="0"/>
        <pt x="740" y="263" on="1"/>
        <pt x="717" y="249" on="0"/>
        <pt x="623" y="219" on="0"/>
        <pt x="582" y="216" on="1"/>
        <pt x="538" y="113" on="0"/>
        <pt x="383" y="-12" on="0"/>
        <pt x="153" y="-12" on="0"/>
        <pt x="32" y="143" on="0"/>
        <pt x="32" y="418" on="0"/>
        <pt x="160" y="645" on="0"/>
        <pt x="279" y="709" on="1"/>
        <pt x="300" y="674" on="1"/>
        <pt x="192" y="539" on="0"/>
        <pt x="192" y="287" on="1"/>
        <pt x="192" y="123" on="0"/>
        <pt x="242" y="78" on="1"/>
        <pt x="265" y="56" on="0"/>
        <pt x="300" y="56" on="1"/>
        <pt x="399" y="56" on="0"/>
        <pt x="444" y="226" on="1"/>
        <pt x="366" y="240" on="0"/>
        <pt x="282" y="345" on="0"/>
        <pt x="282" y="534" on="0"/>
        <pt x="390" y="685" on="0"/>
        <pt x="543" y="685" on="0"/>
        <pt x="629" y="550" on="0"/>
        <pt x="629" y="444" on="1"/>
        <pt x="629" y="377" on="0"/>
        <pt x="602" y="281" on="1"/>
        <pt x="647" y="283" on="0"/>
        <pt x="706" y="312" on="1"/>
      </contour>
      <contour>
        <pt x="471" y="518" on="0"/>
        <pt x="455" y="587" on="0"/>
        <pt x="395" y="587" on="0"/>
        <pt x="344" y="498" on="0"/>
        <pt x="344" y="368" on="0"/>
        <pt x="402" y="295" on="0"/>
        <pt x="455" y="290" on="1"/>
        <pt x="471" y="375" on="0"/>
      </contour>
      <contour>
        <pt x="251" y="819" on="0"/>
        <pt x="431" y="919" on="0"/>
        <pt x="484" y="919" on="0"/>
        <pt x="572" y="816" on="0"/>
        <pt x="599" y="775" on="1"/>
        <pt x="565" y="743" on="1"/>
        <pt x="458" y="797" on="0"/>
        <pt x="426" y="804" on="1"/>
        <pt x="375" y="795" on="0"/>
        <pt x="236" y="742" on="0"/>
        <pt x="227" y="739" on="1"/>
        <pt x="200" y="776" on="1"/>
      </contour>
    </TTGlyph>
    <TTGlyph name="Odieresis" xMin="32" yMin="-12" xMax="740" yMax="899">
      <contour>
        <pt x="725" y="322" on="1"/>
        <pt x="736" y="295" on="0"/>
        <pt x="740" y="263" on="1"/>
        <pt x="717" y="249" on="0"/>
        <pt x="623" y="219" on="0"/>
        <pt x="582" y="216" on="1"/>
        <pt x="538" y="113" on="0"/>
        <pt x="383" y="-12" on="0"/>
        <pt x="153" y="-12" on="0"/>
        <pt x="32" y="143" on="0"/>
        <pt x="32" y="418" on="0"/>
        <pt x="160" y="645" on="0"/>
        <pt x="279" y="709" on="1"/>
        <pt x="300" y="674" on="1"/>
        <pt x="192" y="539" on="0"/>
        <pt x="192" y="287" on="1"/>
        <pt x="192" y="123" on="0"/>
        <pt x="242" y="78" on="1"/>
        <pt x="265" y="56" on="0"/>
        <pt x="300" y="56" on="1"/>
        <pt x="399" y="56" on="0"/>
        <pt x="444" y="226" on="1"/>
        <pt x="366" y="240" on="0"/>
        <pt x="282" y="345" on="0"/>
        <pt x="282" y="534" on="0"/>
        <pt x="390" y="685" on="0"/>
        <pt x="543" y="685" on="0"/>
        <pt x="629" y="550" on="0"/>
        <pt x="629" y="444" on="1"/>
        <pt x="629" y="377" on="0"/>
        <pt x="602" y="281" on="1"/>
        <pt x="647" y="283" on="0"/>
        <pt x="706" y="312" on="1"/>
      </contour>
      <contour>
        <pt x="471" y="518" on="0"/>
        <pt x="455" y="587" on="0"/>
        <pt x="395" y="587" on="0"/>
        <pt x="344" y="498" on="0"/>
        <pt x="344" y="368" on="0"/>
        <pt x="402" y="295" on="0"/>
        <pt x="455" y="290" on="1"/>
        <pt x="471" y="375" on="0"/>
      </contour>
      <contour>
        <pt x="271" y="765" on="0"/>
        <pt x="238" y="799" on="0"/>
        <pt x="238" y="858" on="0"/>
        <pt x="284" y="899" on="0"/>
        <pt x="315" y="899" on="1"/>
        <pt x="380" y="899" on="0"/>
        <pt x="380" y="836" on="1"/>
        <pt x="380" y="808" on="0"/>
        <pt x="333" y="765" on="0"/>
      </contour>
      <contour>
        <pt x="476" y="765" on="0"/>
        <pt x="444" y="799" on="0"/>
        <pt x="444" y="858" on="0"/>
        <pt x="489" y="899" on="0"/>
        <pt x="520" y="899" on="1"/>
        <pt x="586" y="899" on="0"/>
        <pt x="586" y="836" on="1"/>
        <pt x="586" y="808" on="0"/>
        <pt x="538" y="765" on="0"/>
      </contour>
    </TTGlyph>
    <TTGlyph name="Ograve" xMin="32" yMin="-12" xMax="740" yMax="915">
      <contour>
        <pt x="725" y="322" on="1"/>
        <pt x="736" y="295" on="0"/>
        <pt x="740" y="263" on="1"/>
        <pt x="717" y="249" on="0"/>
        <pt x="623" y="219" on="0"/>
        <pt x="582" y="216" on="1"/>
        <pt x="538" y="113" on="0"/>
        <pt x="383" y="-12" on="0"/>
        <pt x="153" y="-12" on="0"/>
        <pt x="32" y="143" on="0"/>
        <pt x="32" y="418" on="0"/>
        <pt x="160" y="645" on="0"/>
        <pt x="279" y="709" on="1"/>
        <pt x="300" y="674" on="1"/>
        <pt x="192" y="539" on="0"/>
        <pt x="192" y="287" on="1"/>
        <pt x="192" y="123" on="0"/>
        <pt x="242" y="78" on="1"/>
        <pt x="265" y="56" on="0"/>
        <pt x="300" y="56" on="1"/>
        <pt x="399" y="56" on="0"/>
        <pt x="444" y="226" on="1"/>
        <pt x="366" y="240" on="0"/>
        <pt x="282" y="345" on="0"/>
        <pt x="282" y="534" on="0"/>
        <pt x="390" y="685" on="0"/>
        <pt x="543" y="685" on="0"/>
        <pt x="629" y="550" on="0"/>
        <pt x="629" y="444" on="1"/>
        <pt x="629" y="377" on="0"/>
        <pt x="602" y="281" on="1"/>
        <pt x="647" y="283" on="0"/>
        <pt x="706" y="312" on="1"/>
      </contour>
      <contour>
        <pt x="471" y="518" on="0"/>
        <pt x="455" y="587" on="0"/>
        <pt x="395" y="587" on="0"/>
        <pt x="344" y="498" on="0"/>
        <pt x="344" y="368" on="0"/>
        <pt x="402" y="295" on="0"/>
        <pt x="455" y="290" on="1"/>
        <pt x="471" y="375" on="0"/>
      </contour>
      <contour>
        <pt x="274" y="915" on="1"/>
        <pt x="314" y="915" on="0"/>
        <pt x="533" y="783" on="1"/>
        <pt x="516" y="736" on="1"/>
        <pt x="421" y="764" on="0"/>
        <pt x="210" y="819" on="1"/>
        <pt x="236" y="915" on="0"/>
      </contour>
    </TTGlyph>
    <TTGlyph name="Oslash" xMin="51" yMin="-100" xMax="631" yMax="798">
      <contour>
        <pt x="572" y="647" on="0"/>
        <pt x="631" y="517" on="0"/>
        <pt x="631" y="385" on="0"/>
        <pt x="607" y="263" on="0"/>
        <pt x="551" y="141" on="0"/>
        <pt x="471" y="47" on="0"/>
        <pt x="349" y="-12" on="0"/>
        <pt x="276" y="-12" on="1"/>
        <pt x="258" y="-12" on="0"/>
        <pt x="242" y="-9" on="1"/>
        <pt x="215" y="-86" on="0"/>
        <pt x="210" y="-100" on="1"/>
        <pt x="181" y="-98" on="0"/>
        <pt x="168" y="-88" on="1"/>
        <pt x="156" y="-81" on="0"/>
        <pt x="142" y="-72" on="1"/>
        <pt x="172" y="12" on="1"/>
        <pt x="113" y="43" on="0"/>
        <pt x="51" y="177" on="0"/>
        <pt x="51" y="382" on="0"/>
        <pt x="136" y="583" on="0"/>
        <pt x="295" y="710" on="0"/>
        <pt x="392" y="710" on="1"/>
        <pt x="410" y="710" on="0"/>
        <pt x="440" y="706" on="1"/>
        <pt x="476" y="798" on="1"/>
        <pt x="528" y="790" on="0"/>
        <pt x="539" y="780" on="1"/>
        <pt x="540" y="779" on="0"/>
        <pt x="548" y="772" on="1"/>
        <pt x="512" y="681" on="1"/>
      </contour>
      <contour>
        <pt x="310" y="56" on="1"/>
        <pt x="353" y="56" on="0"/>
        <pt x="419" y="138" on="0"/>
        <pt x="436" y="204" on="1"/>
        <pt x="471" y="333" on="0"/>
        <pt x="471" y="471" on="1"/>
        <pt x="471" y="526" on="0"/>
        <pt x="463" y="559" on="1"/>
        <pt x="311" y="173" on="0"/>
        <pt x="269" y="63" on="1"/>
        <pt x="284" y="56" on="0"/>
      </contour>
      <contour>
        <pt x="377" y="642" on="1"/>
        <pt x="323" y="642" on="0"/>
        <pt x="284" y="580" on="1"/>
        <pt x="211" y="463" on="0"/>
        <pt x="211" y="256" on="1"/>
        <pt x="211" y="169" on="0"/>
        <pt x="218" y="135" on="1"/>
        <pt x="253" y="227" on="0"/>
        <pt x="412" y="635" on="1"/>
        <pt x="394" y="642" on="0"/>
      </contour>
    </TTGlyph>
    <TTGlyph name="Otilde" xMin="32" yMin="-12" xMax="740" yMax="901">
      <contour>
        <pt x="725" y="322" on="1"/>
        <pt x="736" y="295" on="0"/>
        <pt x="740" y="263" on="1"/>
        <pt x="717" y="249" on="0"/>
        <pt x="623" y="219" on="0"/>
        <pt x="582" y="216" on="1"/>
        <pt x="538" y="113" on="0"/>
        <pt x="383" y="-12" on="0"/>
        <pt x="153" y="-12" on="0"/>
        <pt x="32" y="143" on="0"/>
        <pt x="32" y="418" on="0"/>
        <pt x="160" y="645" on="0"/>
        <pt x="279" y="709" on="1"/>
        <pt x="300" y="674" on="1"/>
        <pt x="192" y="539" on="0"/>
        <pt x="192" y="287" on="1"/>
        <pt x="192" y="123" on="0"/>
        <pt x="242" y="78" on="1"/>
        <pt x="265" y="56" on="0"/>
        <pt x="300" y="56" on="1"/>
        <pt x="399" y="56" on="0"/>
        <pt x="444" y="226" on="1"/>
        <pt x="366" y="240" on="0"/>
        <pt x="282" y="345" on="0"/>
        <pt x="282" y="534" on="0"/>
        <pt x="390" y="685" on="0"/>
        <pt x="543" y="685" on="0"/>
        <pt x="629" y="550" on="0"/>
        <pt x="629" y="444" on="1"/>
        <pt x="629" y="377" on="0"/>
        <pt x="602" y="281" on="1"/>
        <pt x="647" y="283" on="0"/>
        <pt x="706" y="312" on="1"/>
      </contour>
      <contour>
        <pt x="471" y="518" on="0"/>
        <pt x="455" y="587" on="0"/>
        <pt x="395" y="587" on="0"/>
        <pt x="344" y="498" on="0"/>
        <pt x="344" y="368" on="0"/>
        <pt x="402" y="295" on="0"/>
        <pt x="455" y="290" on="1"/>
        <pt x="471" y="375" on="0"/>
      </contour>
      <contour>
        <pt x="198" y="765" on="1"/>
        <pt x="212" y="901" on="0"/>
        <pt x="300" y="901" on="1"/>
        <pt x="334" y="901" on="0"/>
        <pt x="475" y="865" on="0"/>
        <pt x="520" y="865" on="0"/>
        <pt x="529" y="866" on="1"/>
        <pt x="549" y="870" on="0"/>
        <pt x="565" y="898" on="1"/>
        <pt x="597" y="892" on="1"/>
        <pt x="593" y="851" on="0"/>
        <pt x="580" y="819" on="1"/>
        <pt x="560" y="763" on="0"/>
        <pt x="494" y="763" on="1"/>
        <pt x="471" y="763" on="0"/>
        <pt x="336" y="798" on="0"/>
        <pt x="273" y="798" on="0"/>
        <pt x="245" y="783" on="0"/>
        <pt x="231" y="758" on="1"/>
      </contour>
    </TTGlyph>
    <TTGlyph name="P" xMin="-43" yMin="-6" xMax="645" yMax="725">
      <contour>
        <pt x="200" y="518" on="1"/>
        <pt x="200" y="537" on="0"/>
        <pt x="191" y="555" on="0"/>
        <pt x="176" y="572" on="1"/>
        <pt x="177" y="579" on="1"/>
        <pt x="230" y="610" on="0"/>
        <pt x="309" y="610" on="1"/>
        <pt x="340" y="610" on="0"/>
        <pt x="355" y="605" on="1"/>
        <pt x="360" y="595" on="0"/>
        <pt x="360" y="532" on="0"/>
        <pt x="312" y="338" on="1"/>
        <pt x="334" y="329" on="0"/>
        <pt x="362" y="329" on="1"/>
        <pt x="410" y="329" on="0"/>
        <pt x="472" y="395" on="0"/>
        <pt x="491" y="472" on="0"/>
        <pt x="491" y="515" on="1"/>
        <pt x="491" y="594" on="0"/>
        <pt x="406" y="665" on="0"/>
        <pt x="311" y="665" on="1"/>
        <pt x="187" y="665" on="0"/>
        <pt x="23" y="565" on="0"/>
        <pt x="23" y="510" on="1"/>
        <pt x="23" y="482" on="0"/>
        <pt x="66" y="447" on="0"/>
        <pt x="89" y="441" on="1"/>
        <pt x="85" y="405" on="0"/>
        <pt x="64" y="367" on="1"/>
        <pt x="26" y="372" on="0"/>
        <pt x="-43" y="442" on="0"/>
        <pt x="-43" y="499" on="1"/>
        <pt x="-43" y="601" on="0"/>
        <pt x="185" y="725" on="0"/>
        <pt x="489" y="725" on="0"/>
        <pt x="645" y="624" on="0"/>
        <pt x="645" y="518" on="1"/>
        <pt x="645" y="379" on="0"/>
        <pt x="534" y="308" on="1"/>
        <pt x="474" y="269" on="0"/>
        <pt x="390" y="269" on="1"/>
        <pt x="337" y="269" on="0"/>
        <pt x="299" y="285" on="1"/>
        <pt x="257" y="114" on="0"/>
        <pt x="248" y="11" on="1"/>
        <pt x="189" y="-6" on="0"/>
        <pt x="117" y="-6" on="1"/>
        <pt x="100" y="-6" on="0"/>
        <pt x="92" y="-3" on="1"/>
        <pt x="97" y="60" on="0"/>
        <pt x="200" y="458" on="0"/>
      </contour>
    </TTGlyph>
    <TTGlyph name="Q" xMin="29" yMin="-303" xMax="683" yMax="710">
      <contour>
        <pt x="635" y="431" on="1"/>
        <pt x="635" y="281" on="0"/>
        <pt x="485" y="8" on="0"/>
        <pt x="372" y="-79" on="1"/>
        <pt x="424" y="-113" on="0"/>
        <pt x="484" y="-148" on="0"/>
        <pt x="578" y="-182" on="0"/>
        <pt x="618" y="-182" on="1"/>
        <pt x="660" y="-179" on="1"/>
        <pt x="677" y="-203" on="0"/>
        <pt x="683" y="-218" on="1"/>
        <pt x="666" y="-253" on="0"/>
        <pt x="602" y="-303" on="0"/>
        <pt x="560" y="-303" on="1"/>
        <pt x="522" y="-303" on="0"/>
        <pt x="460" y="-270" on="0"/>
        <pt x="428" y="-251" on="0"/>
        <pt x="379" y="-211" on="0"/>
        <pt x="354" y="-190" on="0"/>
        <pt x="299" y="-141" on="0"/>
        <pt x="290" y="-133" on="1"/>
        <pt x="210" y="-174" on="0"/>
        <pt x="92" y="-174" on="0"/>
        <pt x="29" y="-124" on="0"/>
        <pt x="29" y="-41" on="0"/>
        <pt x="93" y="18" on="0"/>
        <pt x="208" y="18" on="0"/>
        <pt x="290" y="-28" on="1"/>
        <pt x="369" y="41" on="0"/>
        <pt x="475" y="279" on="0"/>
        <pt x="475" y="443" on="1"/>
        <pt x="475" y="642" on="0"/>
        <pt x="385" y="642" on="1"/>
        <pt x="311" y="642" on="0"/>
        <pt x="214" y="424" on="0"/>
        <pt x="214" y="284" on="1"/>
        <pt x="214" y="184" on="0"/>
        <pt x="245" y="184" on="1"/>
        <pt x="270" y="184" on="0"/>
        <pt x="309" y="285" on="0"/>
        <pt x="309" y="385" on="0"/>
        <pt x="303" y="418" on="1"/>
        <pt x="332" y="430" on="0"/>
        <pt x="365" y="430" on="1"/>
        <pt x="367" y="430" on="1"/>
        <pt x="371" y="404" on="0"/>
        <pt x="371" y="371" on="1"/>
        <pt x="371" y="244" on="0"/>
        <pt x="280" y="82" on="0"/>
        <pt x="200" y="82" on="1"/>
        <pt x="135" y="82" on="0"/>
        <pt x="64" y="192" on="0"/>
        <pt x="64" y="403" on="0"/>
        <pt x="149" y="593" on="0"/>
        <pt x="309" y="710" on="0"/>
        <pt x="409" y="710" on="1"/>
        <pt x="554" y="710" on="0"/>
        <pt x="607" y="586" on="1"/>
        <pt x="635" y="520" on="0"/>
      </contour>
      <contour>
        <pt x="94" y="-72" on="1"/>
        <pt x="94" y="-100" on="0"/>
        <pt x="146" y="-100" on="1"/>
        <pt x="174" y="-100" on="0"/>
        <pt x="219" y="-76" on="1"/>
        <pt x="170" y="-43" on="0"/>
        <pt x="135" y="-43" on="1"/>
        <pt x="116" y="-43" on="0"/>
        <pt x="94" y="-61" on="0"/>
      </contour>
    </TTGlyph>
    <TTGlyph name="R" xMin="-45" yMin="-129" xMax="694" yMax="725">
      <contour>
        <pt x="381" y="282" on="1"/>
        <pt x="374" y="281" on="0"/>
        <pt x="336" y="281" on="0"/>
        <pt x="327" y="288" on="1"/>
        <pt x="320" y="295" on="0"/>
        <pt x="320" y="349" on="0"/>
        <pt x="330" y="378" on="0"/>
        <pt x="383" y="378" on="0"/>
        <pt x="407" y="365" on="1"/>
        <pt x="436" y="387" on="0"/>
        <pt x="486" y="479" on="0"/>
        <pt x="486" y="528" on="1"/>
        <pt x="486" y="599" on="0"/>
        <pt x="401" y="665" on="0"/>
        <pt x="312" y="665" on="1"/>
        <pt x="184" y="665" on="0"/>
        <pt x="21" y="565" on="0"/>
        <pt x="21" y="509" on="1"/>
        <pt x="21" y="482" on="0"/>
        <pt x="65" y="447" on="0"/>
        <pt x="87" y="441" on="1"/>
        <pt x="83" y="401" on="0"/>
        <pt x="62" y="367" on="1"/>
        <pt x="23" y="373" on="0"/>
        <pt x="-45" y="442" on="0"/>
        <pt x="-45" y="501" on="1"/>
        <pt x="-45" y="599" on="0"/>
        <pt x="181" y="725" on="0"/>
        <pt x="348" y="725" on="1"/>
        <pt x="482" y="725" on="0"/>
        <pt x="638" y="625" on="0"/>
        <pt x="638" y="528" on="1"/>
        <pt x="638" y="460" on="0"/>
        <pt x="536" y="351" on="0"/>
        <pt x="464" y="316" on="1"/>
        <pt x="481" y="299" on="0"/>
        <pt x="508" y="237" on="0"/>
        <pt x="525" y="198" on="0"/>
        <pt x="535" y="174" on="0"/>
        <pt x="544" y="152" on="1"/>
        <pt x="583" y="46" on="0"/>
        <pt x="646" y="-55" on="0"/>
        <pt x="675" y="-55" on="1"/>
        <pt x="681" y="-55" on="0"/>
        <pt x="684" y="-54" on="1"/>
        <pt x="694" y="-90" on="1"/>
        <pt x="645" y="-129" on="0"/>
        <pt x="519" y="-129" on="0"/>
        <pt x="467" y="-64" on="0"/>
        <pt x="445" y="37" on="1"/>
        <pt x="442" y="47" on="0"/>
        <pt x="428" y="110" on="1"/>
        <pt x="400" y="244" on="0"/>
      </contour>
      <contour>
        <pt x="188" y="522" on="1"/>
        <pt x="188" y="545" on="0"/>
        <pt x="164" y="572" on="1"/>
        <pt x="165" y="579" on="1"/>
        <pt x="218" y="610" on="0"/>
        <pt x="297" y="610" on="1"/>
        <pt x="328" y="610" on="0"/>
        <pt x="343" y="605" on="1"/>
        <pt x="348" y="594" on="0"/>
        <pt x="348" y="574" on="1"/>
        <pt x="348" y="530" on="0"/>
        <pt x="245" y="114" on="0"/>
        <pt x="236" y="11" on="1"/>
        <pt x="177" y="-6" on="0"/>
        <pt x="105" y="-6" on="1"/>
        <pt x="88" y="-6" on="0"/>
        <pt x="80" y="-3" on="1"/>
        <pt x="85" y="61" on="0"/>
        <pt x="188" y="456" on="0"/>
      </contour>
    </TTGlyph>
    <TTGlyph name="Racute" xMin="-45" yMin="-129" xMax="694" yMax="931">
      <contour>
        <pt x="381" y="282" on="1"/>
        <pt x="374" y="281" on="0"/>
        <pt x="336" y="281" on="0"/>
        <pt x="327" y="288" on="1"/>
        <pt x="320" y="295" on="0"/>
        <pt x="320" y="349" on="0"/>
        <pt x="330" y="378" on="0"/>
        <pt x="383" y="378" on="0"/>
        <pt x="407" y="365" on="1"/>
        <pt x="436" y="387" on="0"/>
        <pt x="486" y="479" on="0"/>
        <pt x="486" y="528" on="1"/>
        <pt x="486" y="599" on="0"/>
        <pt x="401" y="665" on="0"/>
        <pt x="312" y="665" on="1"/>
        <pt x="184" y="665" on="0"/>
        <pt x="21" y="565" on="0"/>
        <pt x="21" y="509" on="1"/>
        <pt x="21" y="482" on="0"/>
        <pt x="65" y="447" on="0"/>
        <pt x="87" y="441" on="1"/>
        <pt x="83" y="401" on="0"/>
        <pt x="62" y="367" on="1"/>
        <pt x="23" y="373" on="0"/>
        <pt x="-45" y="442" on="0"/>
        <pt x="-45" y="501" on="1"/>
        <pt x="-45" y="599" on="0"/>
        <pt x="181" y="725" on="0"/>
        <pt x="348" y="725" on="1"/>
        <pt x="482" y="725" on="0"/>
        <pt x="638" y="625" on="0"/>
        <pt x="638" y="528" on="1"/>
        <pt x="638" y="460" on="0"/>
        <pt x="536" y="351" on="0"/>
        <pt x="464" y="316" on="1"/>
        <pt x="481" y="299" on="0"/>
        <pt x="508" y="237" on="0"/>
        <pt x="525" y="198" on="0"/>
        <pt x="535" y="174" on="0"/>
        <pt x="544" y="152" on="1"/>
        <pt x="583" y="46" on="0"/>
        <pt x="646" y="-55" on="0"/>
        <pt x="675" y="-55" on="1"/>
        <pt x="681" y="-55" on="0"/>
        <pt x="684" y="-54" on="1"/>
        <pt x="694" y="-90" on="1"/>
        <pt x="645" y="-129" on="0"/>
        <pt x="519" y="-129" on="0"/>
        <pt x="467" y="-64" on="0"/>
        <pt x="445" y="37" on="1"/>
        <pt x="442" y="47" on="0"/>
        <pt x="428" y="110" on="1"/>
        <pt x="400" y="244" on="0"/>
      </contour>
      <contour>
        <pt x="188" y="522" on="1"/>
        <pt x="188" y="545" on="0"/>
        <pt x="164" y="572" on="1"/>
        <pt x="165" y="579" on="1"/>
        <pt x="218" y="610" on="0"/>
        <pt x="297" y="610" on="1"/>
        <pt x="328" y="610" on="0"/>
        <pt x="343" y="605" on="1"/>
        <pt x="348" y="594" on="0"/>
        <pt x="348" y="574" on="1"/>
        <pt x="348" y="530" on="0"/>
        <pt x="245" y="114" on="0"/>
        <pt x="236" y="11" on="1"/>
        <pt x="177" y="-6" on="0"/>
        <pt x="105" y="-6" on="1"/>
        <pt x="88" y="-6" on="0"/>
        <pt x="80" y="-3" on="1"/>
        <pt x="85" y="61" on="0"/>
        <pt x="188" y="456" on="0"/>
      </contour>
      <contour>
        <pt x="600" y="846" on="1"/>
        <pt x="600" y="818" on="0"/>
        <pt x="563" y="802" on="1"/>
        <pt x="472" y="776" on="0"/>
        <pt x="301" y="750" on="1"/>
        <pt x="280" y="796" on="1"/>
        <pt x="490" y="891" on="0"/>
        <pt x="563" y="931" on="1"/>
        <pt x="574" y="915" on="0"/>
        <pt x="600" y="856" on="0"/>
      </contour>
    </TTGlyph>
    <TTGlyph name="Rcaron" xMin="-45" yMin="-129" xMax="694" yMax="925">
      <contour>
        <pt x="381" y="282" on="1"/>
        <pt x="374" y="281" on="0"/>
        <pt x="336" y="281" on="0"/>
        <pt x="327" y="288" on="1"/>
        <pt x="320" y="295" on="0"/>
        <pt x="320" y="349" on="0"/>
        <pt x="330" y="378" on="0"/>
        <pt x="383" y="378" on="0"/>
        <pt x="407" y="365" on="1"/>
        <pt x="436" y="387" on="0"/>
        <pt x="486" y="479" on="0"/>
        <pt x="486" y="528" on="1"/>
        <pt x="486" y="599" on="0"/>
        <pt x="401" y="665" on="0"/>
        <pt x="312" y="665" on="1"/>
        <pt x="184" y="665" on="0"/>
        <pt x="21" y="565" on="0"/>
        <pt x="21" y="509" on="1"/>
        <pt x="21" y="482" on="0"/>
        <pt x="65" y="447" on="0"/>
        <pt x="87" y="441" on="1"/>
        <pt x="83" y="401" on="0"/>
        <pt x="62" y="367" on="1"/>
        <pt x="23" y="373" on="0"/>
        <pt x="-45" y="442" on="0"/>
        <pt x="-45" y="501" on="1"/>
        <pt x="-45" y="599" on="0"/>
        <pt x="181" y="725" on="0"/>
        <pt x="348" y="725" on="1"/>
        <pt x="482" y="725" on="0"/>
        <pt x="638" y="625" on="0"/>
        <pt x="638" y="528" on="1"/>
        <pt x="638" y="460" on="0"/>
        <pt x="536" y="351" on="0"/>
        <pt x="464" y="316" on="1"/>
        <pt x="481" y="299" on="0"/>
        <pt x="508" y="237" on="0"/>
        <pt x="525" y="198" on="0"/>
        <pt x="535" y="174" on="0"/>
        <pt x="544" y="152" on="1"/>
        <pt x="583" y="46" on="0"/>
        <pt x="646" y="-55" on="0"/>
        <pt x="675" y="-55" on="1"/>
        <pt x="681" y="-55" on="0"/>
        <pt x="684" y="-54" on="1"/>
        <pt x="694" y="-90" on="1"/>
        <pt x="645" y="-129" on="0"/>
        <pt x="519" y="-129" on="0"/>
        <pt x="467" y="-64" on="0"/>
        <pt x="445" y="37" on="1"/>
        <pt x="442" y="47" on="0"/>
        <pt x="428" y="110" on="1"/>
        <pt x="400" y="244" on="0"/>
      </contour>
      <contour>
        <pt x="188" y="522" on="1"/>
        <pt x="188" y="545" on="0"/>
        <pt x="164" y="572" on="1"/>
        <pt x="165" y="579" on="1"/>
        <pt x="218" y="610" on="0"/>
        <pt x="297" y="610" on="1"/>
        <pt x="328" y="610" on="0"/>
        <pt x="343" y="605" on="1"/>
        <pt x="348" y="594" on="0"/>
        <pt x="348" y="574" on="1"/>
        <pt x="348" y="530" on="0"/>
        <pt x="245" y="114" on="0"/>
        <pt x="236" y="11" on="1"/>
        <pt x="177" y="-6" on="0"/>
        <pt x="105" y="-6" on="1"/>
        <pt x="88" y="-6" on="0"/>
        <pt x="80" y="-3" on="1"/>
        <pt x="85" y="61" on="0"/>
        <pt x="188" y="456" on="0"/>
      </contour>
      <contour>
        <pt x="540" y="845" on="0"/>
        <pt x="360" y="745" on="0"/>
        <pt x="307" y="745" on="0"/>
        <pt x="219" y="848" on="0"/>
        <pt x="192" y="889" on="1"/>
        <pt x="226" y="921" on="1"/>
        <pt x="333" y="867" on="0"/>
        <pt x="365" y="860" on="1"/>
        <pt x="416" y="869" on="0"/>
        <pt x="555" y="922" on="0"/>
        <pt x="564" y="925" on="1"/>
        <pt x="591" y="888" on="1"/>
      </contour>
    </TTGlyph>
    <TTGlyph name="Rcommaaccent" xMin="-45" yMin="-262" xMax="694" yMax="725">
      <contour>
        <pt x="381" y="282" on="1"/>
        <pt x="374" y="281" on="0"/>
        <pt x="336" y="281" on="0"/>
        <pt x="327" y="288" on="1"/>
        <pt x="320" y="295" on="0"/>
        <pt x="320" y="349" on="0"/>
        <pt x="330" y="378" on="0"/>
        <pt x="383" y="378" on="0"/>
        <pt x="407" y="365" on="1"/>
        <pt x="436" y="387" on="0"/>
        <pt x="486" y="479" on="0"/>
        <pt x="486" y="528" on="1"/>
        <pt x="486" y="599" on="0"/>
        <pt x="401" y="665" on="0"/>
        <pt x="312" y="665" on="1"/>
        <pt x="184" y="665" on="0"/>
        <pt x="21" y="565" on="0"/>
        <pt x="21" y="509" on="1"/>
        <pt x="21" y="482" on="0"/>
        <pt x="65" y="447" on="0"/>
        <pt x="87" y="441" on="1"/>
        <pt x="83" y="401" on="0"/>
        <pt x="62" y="367" on="1"/>
        <pt x="23" y="373" on="0"/>
        <pt x="-45" y="442" on="0"/>
        <pt x="-45" y="501" on="1"/>
        <pt x="-45" y="599" on="0"/>
        <pt x="181" y="725" on="0"/>
        <pt x="348" y="725" on="1"/>
        <pt x="482" y="725" on="0"/>
        <pt x="638" y="625" on="0"/>
        <pt x="638" y="528" on="1"/>
        <pt x="638" y="460" on="0"/>
        <pt x="536" y="351" on="0"/>
        <pt x="464" y="316" on="1"/>
        <pt x="481" y="299" on="0"/>
        <pt x="508" y="237" on="0"/>
        <pt x="525" y="198" on="0"/>
        <pt x="535" y="174" on="0"/>
        <pt x="544" y="152" on="1"/>
        <pt x="583" y="46" on="0"/>
        <pt x="646" y="-55" on="0"/>
        <pt x="675" y="-55" on="1"/>
        <pt x="681" y="-55" on="0"/>
        <pt x="684" y="-54" on="1"/>
        <pt x="694" y="-90" on="1"/>
        <pt x="645" y="-129" on="0"/>
        <pt x="519" y="-129" on="0"/>
        <pt x="467" y="-64" on="0"/>
        <pt x="445" y="37" on="1"/>
        <pt x="442" y="47" on="0"/>
        <pt x="428" y="110" on="1"/>
        <pt x="400" y="244" on="0"/>
      </contour>
      <contour>
        <pt x="188" y="522" on="1"/>
        <pt x="188" y="545" on="0"/>
        <pt x="164" y="572" on="1"/>
        <pt x="165" y="579" on="1"/>
        <pt x="218" y="610" on="0"/>
        <pt x="297" y="610" on="1"/>
        <pt x="328" y="610" on="0"/>
        <pt x="343" y="605" on="1"/>
        <pt x="348" y="594" on="0"/>
        <pt x="348" y="574" on="1"/>
        <pt x="348" y="530" on="0"/>
        <pt x="245" y="114" on="0"/>
        <pt x="236" y="11" on="1"/>
        <pt x="177" y="-6" on="0"/>
        <pt x="105" y="-6" on="1"/>
        <pt x="88" y="-6" on="0"/>
        <pt x="80" y="-3" on="1"/>
        <pt x="85" y="61" on="0"/>
        <pt x="188" y="456" on="0"/>
      </contour>
      <contour>
        <pt x="393" y="-90" on="1"/>
        <pt x="393" y="-174" on="0"/>
        <pt x="305" y="-262" on="1"/>
        <pt x="271" y="-244" on="1"/>
        <pt x="291" y="-203" on="0"/>
        <pt x="297" y="-156" on="1"/>
        <pt x="238" y="-105" on="1"/>
        <pt x="242" y="-84" on="0"/>
        <pt x="289" y="-24" on="0"/>
        <pt x="313" y="-14" on="1"/>
        <pt x="345" y="-14" on="0"/>
        <pt x="393" y="-64" on="0"/>
      </contour>
    </TTGlyph>
    <TTGlyph name="S" xMin="-37" yMin="-22" xMax="638" yMax="710">
      <contour>
        <pt x="217" y="-22" on="0"/>
        <pt x="141" y="46" on="0"/>
        <pt x="141" y="153" on="0"/>
        <pt x="236" y="221" on="0"/>
        <pt x="300" y="235" on="1"/>
        <pt x="289" y="253" on="0"/>
        <pt x="221" y="353" on="1"/>
        <pt x="180" y="344" on="0"/>
        <pt x="142" y="344" on="1"/>
        <pt x="58" y="344" on="0"/>
        <pt x="-37" y="431" on="0"/>
        <pt x="-37" y="506" on="1"/>
        <pt x="-37" y="538" on="0"/>
        <pt x="-28" y="579" on="1"/>
        <pt x="-26" y="591" on="1"/>
        <pt x="15" y="590" on="0"/>
        <pt x="41" y="579" on="1"/>
        <pt x="24" y="540" on="0"/>
        <pt x="24" y="456" on="0"/>
        <pt x="86" y="405" on="0"/>
        <pt x="131" y="405" on="1"/>
        <pt x="152" y="405" on="0"/>
        <pt x="184" y="412" on="1"/>
        <pt x="139" y="490" on="0"/>
        <pt x="139" y="548" on="1"/>
        <pt x="139" y="623" on="0"/>
        <pt x="261" y="710" on="0"/>
        <pt x="416" y="710" on="0"/>
        <pt x="501" y="639" on="0"/>
        <pt x="501" y="534" on="0"/>
        <pt x="423" y="445" on="0"/>
        <pt x="375" y="417" on="1"/>
        <pt x="447" y="325" on="0"/>
        <pt x="472" y="230" on="1"/>
        <pt x="556" y="219" on="0"/>
        <pt x="638" y="189" on="1"/>
        <pt x="624" y="139" on="0"/>
        <pt x="612" y="117" on="1"/>
        <pt x="590" y="134" on="0"/>
        <pt x="514" y="168" on="0"/>
        <pt x="481" y="172" on="1"/>
        <pt x="481" y="171" on="1"/>
        <pt x="481" y="92" on="0"/>
        <pt x="360" y="-22" on="0"/>
      </contour>
      <contour>
        <pt x="375" y="489" on="0"/>
        <pt x="436" y="554" on="0"/>
        <pt x="436" y="612" on="0"/>
        <pt x="391" y="643" on="0"/>
        <pt x="321" y="643" on="0"/>
        <pt x="276" y="613" on="0"/>
        <pt x="276" y="588" on="1"/>
        <pt x="276" y="572" on="0"/>
        <pt x="292" y="538" on="0"/>
        <pt x="302" y="518" on="0"/>
        <pt x="316" y="498" on="0"/>
        <pt x="325" y="486" on="0"/>
        <pt x="336" y="471" on="1"/>
      </contour>
      <contour>
        <pt x="291" y="52" on="0"/>
        <pt x="332" y="103" on="0"/>
        <pt x="332" y="158" on="0"/>
        <pt x="326" y="177" on="1"/>
        <pt x="286" y="177" on="0"/>
        <pt x="208" y="133" on="0"/>
        <pt x="208" y="103" on="1"/>
        <pt x="208" y="82" on="0"/>
        <pt x="238" y="52" on="0"/>
      </contour>
    </TTGlyph>
    <TTGlyph name="T" xMin="-33" yMin="-22" xMax="671" yMax="734">
      <contour>
        <pt x="205" y="596" on="1"/>
        <pt x="122" y="596" on="0"/>
        <pt x="71" y="555" on="1"/>
        <pt x="40" y="571" on="0"/>
        <pt x="35" y="581" on="1"/>
        <pt x="35" y="641" on="0"/>
        <pt x="95" y="734" on="0"/>
        <pt x="153" y="734" on="1"/>
        <pt x="213" y="734" on="0"/>
        <pt x="343" y="668" on="1"/>
        <pt x="391" y="643" on="0"/>
        <pt x="406" y="639" on="1"/>
        <pt x="445" y="670" on="0"/>
        <pt x="540" y="710" on="0"/>
        <pt x="611" y="710" on="0"/>
        <pt x="671" y="668" on="0"/>
        <pt x="671" y="584" on="0"/>
        <pt x="604" y="520" on="0"/>
        <pt x="544" y="520" on="1"/>
        <pt x="517" y="520" on="0"/>
        <pt x="452" y="537" on="0"/>
        <pt x="445" y="538" on="1"/>
        <pt x="414" y="507" on="0"/>
        <pt x="339" y="398" on="0"/>
        <pt x="313" y="339" on="1"/>
        <pt x="329" y="341" on="0"/>
        <pt x="337" y="341" on="1"/>
        <pt x="414" y="341" on="0"/>
        <pt x="535" y="252" on="0"/>
        <pt x="535" y="96" on="0"/>
        <pt x="420" y="-22" on="0"/>
        <pt x="224" y="-22" on="0"/>
        <pt x="119" y="108" on="0"/>
        <pt x="119" y="195" on="1"/>
        <pt x="56" y="136" on="0"/>
        <pt x="38" y="66" on="1"/>
        <pt x="15" y="70" on="0"/>
        <pt x="-27" y="91" on="0"/>
        <pt x="-33" y="101" on="1"/>
        <pt x="6" y="200" on="0"/>
        <pt x="133" y="287" on="1"/>
        <pt x="157" y="365" on="0"/>
        <pt x="264" y="517" on="0"/>
        <pt x="325" y="576" on="1"/>
        <pt x="262" y="596" on="0"/>
      </contour>
      <contour>
        <pt x="466" y="220" on="0"/>
        <pt x="392" y="275" on="0"/>
        <pt x="314" y="275" on="0"/>
        <pt x="287" y="264" on="1"/>
        <pt x="277" y="230" on="0"/>
        <pt x="277" y="135" on="0"/>
        <pt x="330" y="66" on="0"/>
        <pt x="413" y="66" on="0"/>
        <pt x="466" y="135" on="0"/>
      </contour>
      <contour>
        <pt x="608" y="619" on="1"/>
        <pt x="608" y="638" on="0"/>
        <pt x="551" y="638" on="0"/>
        <pt x="503" y="596" on="1"/>
        <pt x="521" y="586" on="0"/>
        <pt x="573" y="586" on="0"/>
        <pt x="608" y="604" on="0"/>
      </contour>
    </TTGlyph>
    <TTGlyph name="Thorn" xMin="44" yMin="-3" xMax="569" yMax="710">
      <contour>
        <pt x="315" y="587" on="1"/>
        <pt x="358" y="588" on="1"/>
        <pt x="569" y="588" on="0"/>
        <pt x="569" y="420" on="1"/>
        <pt x="569" y="309" on="0"/>
        <pt x="413" y="155" on="0"/>
        <pt x="265" y="155" on="1"/>
        <pt x="239" y="155" on="0"/>
        <pt x="225" y="156" on="1"/>
        <pt x="207" y="58" on="0"/>
        <pt x="206" y="17" on="1"/>
        <pt x="170" y="-3" on="0"/>
        <pt x="54" y="-3" on="1"/>
        <pt x="44" y="-3" on="1"/>
        <pt x="47" y="41" on="0"/>
        <pt x="148" y="479" on="0"/>
        <pt x="160" y="589" on="1"/>
        <pt x="160" y="605" on="0"/>
        <pt x="140" y="650" on="0"/>
        <pt x="130" y="664" on="1"/>
        <pt x="119" y="678" on="1"/>
        <pt x="122" y="693" on="1"/>
        <pt x="181" y="710" on="0"/>
        <pt x="309" y="710" on="1"/>
        <pt x="321" y="690" on="0"/>
        <pt x="321" y="624" on="0"/>
      </contour>
      <contour>
        <pt x="418" y="474" on="0"/>
        <pt x="379" y="526" on="0"/>
        <pt x="323" y="526" on="0"/>
        <pt x="302" y="520" on="1"/>
        <pt x="293" y="473" on="0"/>
        <pt x="246" y="267" on="0"/>
        <pt x="237" y="222" on="1"/>
        <pt x="249" y="222" on="1"/>
        <pt x="327" y="222" on="0"/>
        <pt x="418" y="340" on="0"/>
        <pt x="418" y="435" on="1"/>
      </contour>
    </TTGlyph>
    <TTGlyph name="U" xMin="3" yMin="-12" xMax="786" yMax="710">
      <contour>
        <pt x="376" y="516" on="0"/>
        <pt x="278" y="193" on="0"/>
        <pt x="278" y="104" on="0"/>
        <pt x="361" y="104" on="0"/>
        <pt x="433" y="165" on="1"/>
        <pt x="436" y="216" on="0"/>
        <pt x="450" y="287" on="1"/>
        <pt x="492" y="510" on="0"/>
        <pt x="612" y="710" on="0"/>
        <pt x="692" y="710" on="1"/>
        <pt x="739" y="710" on="0"/>
        <pt x="786" y="655" on="0"/>
        <pt x="786" y="610" on="1"/>
        <pt x="786" y="468" on="0"/>
        <pt x="592" y="228" on="1"/>
        <pt x="589" y="189" on="0"/>
        <pt x="589" y="149" on="1"/>
        <pt x="589" y="66" on="0"/>
        <pt x="617" y="66" on="1"/>
        <pt x="634" y="66" on="0"/>
        <pt x="646" y="70" on="1"/>
        <pt x="661" y="32" on="1"/>
        <pt x="599" y="-12" on="0"/>
        <pt x="537" y="-12" on="1"/>
        <pt x="447" y="-12" on="0"/>
        <pt x="434" y="93" on="1"/>
        <pt x="314" y="-12" on="0"/>
        <pt x="229" y="-12" on="1"/>
        <pt x="178" y="-12" on="0"/>
        <pt x="115" y="51" on="0"/>
        <pt x="115" y="111" on="1"/>
        <pt x="115" y="146" on="0"/>
        <pt x="162" y="303" on="0"/>
        <pt x="166" y="317" on="1"/>
        <pt x="3" y="384" on="0"/>
        <pt x="3" y="503" on="1"/>
        <pt x="3" y="585" on="0"/>
        <pt x="155" y="710" on="0"/>
        <pt x="248" y="710" on="1"/>
        <pt x="376" y="710" on="0"/>
        <pt x="376" y="583" on="1"/>
      </contour>
      <contour>
        <pt x="185" y="389" on="1"/>
        <pt x="220" y="511" on="0"/>
        <pt x="220" y="631" on="0"/>
        <pt x="135" y="631" on="0"/>
        <pt x="65" y="555" on="0"/>
        <pt x="65" y="464" on="0"/>
        <pt x="135" y="403" on="0"/>
      </contour>
      <contour>
        <pt x="726" y="612" on="1"/>
        <pt x="726" y="639" on="0"/>
        <pt x="706" y="639" on="1"/>
        <pt x="662" y="639" on="0"/>
        <pt x="605" y="335" on="1"/>
        <pt x="650" y="394" on="0"/>
        <pt x="726" y="559" on="0"/>
      </contour>
    </TTGlyph>
    <TTGlyph name="Uacute" xMin="3" yMin="-12" xMax="786" yMax="931">
      <contour>
        <pt x="376" y="516" on="0"/>
        <pt x="278" y="193" on="0"/>
        <pt x="278" y="104" on="0"/>
        <pt x="361" y="104" on="0"/>
        <pt x="433" y="165" on="1"/>
        <pt x="436" y="216" on="0"/>
        <pt x="450" y="287" on="1"/>
        <pt x="492" y="510" on="0"/>
        <pt x="612" y="710" on="0"/>
        <pt x="692" y="710" on="1"/>
        <pt x="739" y="710" on="0"/>
        <pt x="786" y="655" on="0"/>
        <pt x="786" y="610" on="1"/>
        <pt x="786" y="468" on="0"/>
        <pt x="592" y="228" on="1"/>
        <pt x="589" y="189" on="0"/>
        <pt x="589" y="149" on="1"/>
        <pt x="589" y="66" on="0"/>
        <pt x="617" y="66" on="1"/>
        <pt x="634" y="66" on="0"/>
        <pt x="646" y="70" on="1"/>
        <pt x="661" y="32" on="1"/>
        <pt x="599" y="-12" on="0"/>
        <pt x="537" y="-12" on="1"/>
        <pt x="447" y="-12" on="0"/>
        <pt x="434" y="93" on="1"/>
        <pt x="314" y="-12" on="0"/>
        <pt x="229" y="-12" on="1"/>
        <pt x="178" y="-12" on="0"/>
        <pt x="115" y="51" on="0"/>
        <pt x="115" y="111" on="1"/>
        <pt x="115" y="146" on="0"/>
        <pt x="162" y="303" on="0"/>
        <pt x="166" y="317" on="1"/>
        <pt x="3" y="384" on="0"/>
        <pt x="3" y="503" on="1"/>
        <pt x="3" y="585" on="0"/>
        <pt x="155" y="710" on="0"/>
        <pt x="248" y="710" on="1"/>
        <pt x="376" y="710" on="0"/>
        <pt x="376" y="583" on="1"/>
      </contour>
      <contour>
        <pt x="675" y="846" on="1"/>
        <pt x="675" y="818" on="0"/>
        <pt x="638" y="802" on="1"/>
        <pt x="547" y="776" on="0"/>
        <pt x="376" y="750" on="1"/>
        <pt x="355" y="796" on="1"/>
        <pt x="565" y="891" on="0"/>
        <pt x="638" y="931" on="1"/>
        <pt x="649" y="915" on="0"/>
        <pt x="675" y="856" on="0"/>
      </contour>
      <contour>
        <pt x="185" y="389" on="1"/>
        <pt x="220" y="511" on="0"/>
        <pt x="220" y="631" on="0"/>
        <pt x="135" y="631" on="0"/>
        <pt x="65" y="555" on="0"/>
        <pt x="65" y="464" on="0"/>
        <pt x="135" y="403" on="0"/>
      </contour>
      <contour>
        <pt x="726" y="612" on="1"/>
        <pt x="726" y="639" on="0"/>
        <pt x="706" y="639" on="1"/>
        <pt x="662" y="639" on="0"/>
        <pt x="605" y="335" on="1"/>
        <pt x="650" y="394" on="0"/>
        <pt x="726" y="559" on="0"/>
      </contour>
    </TTGlyph>
    <TTGlyph name="Ucircumflex" xMin="3" yMin="-12" xMax="786" yMax="919">
      <contour>
        <pt x="376" y="516" on="0"/>
        <pt x="278" y="193" on="0"/>
        <pt x="278" y="104" on="0"/>
        <pt x="361" y="104" on="0"/>
        <pt x="433" y="165" on="1"/>
        <pt x="436" y="216" on="0"/>
        <pt x="450" y="287" on="1"/>
        <pt x="492" y="510" on="0"/>
        <pt x="612" y="710" on="0"/>
        <pt x="692" y="710" on="1"/>
        <pt x="739" y="710" on="0"/>
        <pt x="786" y="655" on="0"/>
        <pt x="786" y="610" on="1"/>
        <pt x="786" y="468" on="0"/>
        <pt x="592" y="228" on="1"/>
        <pt x="589" y="189" on="0"/>
        <pt x="589" y="149" on="1"/>
        <pt x="589" y="66" on="0"/>
        <pt x="617" y="66" on="1"/>
        <pt x="634" y="66" on="0"/>
        <pt x="646" y="70" on="1"/>
        <pt x="661" y="32" on="1"/>
        <pt x="599" y="-12" on="0"/>
        <pt x="537" y="-12" on="1"/>
        <pt x="447" y="-12" on="0"/>
        <pt x="434" y="93" on="1"/>
        <pt x="314" y="-12" on="0"/>
        <pt x="229" y="-12" on="1"/>
        <pt x="178" y="-12" on="0"/>
        <pt x="115" y="51" on="0"/>
        <pt x="115" y="111" on="1"/>
        <pt x="115" y="146" on="0"/>
        <pt x="162" y="303" on="0"/>
        <pt x="166" y="317" on="1"/>
        <pt x="3" y="384" on="0"/>
        <pt x="3" y="503" on="1"/>
        <pt x="3" y="585" on="0"/>
        <pt x="155" y="710" on="0"/>
        <pt x="248" y="710" on="1"/>
        <pt x="376" y="710" on="0"/>
        <pt x="376" y="583" on="1"/>
      </contour>
      <contour>
        <pt x="347" y="819" on="0"/>
        <pt x="527" y="919" on="0"/>
        <pt x="580" y="919" on="0"/>
        <pt x="668" y="816" on="0"/>
        <pt x="695" y="775" on="1"/>
        <pt x="661" y="743" on="1"/>
        <pt x="554" y="797" on="0"/>
        <pt x="522" y="804" on="1"/>
        <pt x="471" y="795" on="0"/>
        <pt x="332" y="742" on="0"/>
        <pt x="323" y="739" on="1"/>
        <pt x="296" y="776" on="1"/>
      </contour>
      <contour>
        <pt x="185" y="389" on="1"/>
        <pt x="220" y="511" on="0"/>
        <pt x="220" y="631" on="0"/>
        <pt x="135" y="631" on="0"/>
        <pt x="65" y="555" on="0"/>
        <pt x="65" y="464" on="0"/>
        <pt x="135" y="403" on="0"/>
      </contour>
      <contour>
        <pt x="726" y="612" on="1"/>
        <pt x="726" y="639" on="0"/>
        <pt x="706" y="639" on="1"/>
        <pt x="662" y="639" on="0"/>
        <pt x="605" y="335" on="1"/>
        <pt x="650" y="394" on="0"/>
        <pt x="726" y="559" on="0"/>
      </contour>
    </TTGlyph>
    <TTGlyph name="Udieresis" xMin="3" yMin="-12" xMax="786" yMax="899">
      <contour>
        <pt x="376" y="516" on="0"/>
        <pt x="278" y="193" on="0"/>
        <pt x="278" y="104" on="0"/>
        <pt x="361" y="104" on="0"/>
        <pt x="433" y="165" on="1"/>
        <pt x="436" y="216" on="0"/>
        <pt x="450" y="287" on="1"/>
        <pt x="492" y="510" on="0"/>
        <pt x="612" y="710" on="0"/>
        <pt x="692" y="710" on="1"/>
        <pt x="739" y="710" on="0"/>
        <pt x="786" y="655" on="0"/>
        <pt x="786" y="610" on="1"/>
        <pt x="786" y="468" on="0"/>
        <pt x="592" y="228" on="1"/>
        <pt x="589" y="189" on="0"/>
        <pt x="589" y="149" on="1"/>
        <pt x="589" y="66" on="0"/>
        <pt x="617" y="66" on="1"/>
        <pt x="634" y="66" on="0"/>
        <pt x="646" y="70" on="1"/>
        <pt x="661" y="32" on="1"/>
        <pt x="599" y="-12" on="0"/>
        <pt x="537" y="-12" on="1"/>
        <pt x="447" y="-12" on="0"/>
        <pt x="434" y="93" on="1"/>
        <pt x="314" y="-12" on="0"/>
        <pt x="229" y="-12" on="1"/>
        <pt x="178" y="-12" on="0"/>
        <pt x="115" y="51" on="0"/>
        <pt x="115" y="111" on="1"/>
        <pt x="115" y="146" on="0"/>
        <pt x="162" y="303" on="0"/>
        <pt x="166" y="317" on="1"/>
        <pt x="3" y="384" on="0"/>
        <pt x="3" y="503" on="1"/>
        <pt x="3" y="585" on="0"/>
        <pt x="155" y="710" on="0"/>
        <pt x="248" y="710" on="1"/>
        <pt x="376" y="710" on="0"/>
        <pt x="376" y="583" on="1"/>
      </contour>
      <contour>
        <pt x="185" y="389" on="1"/>
        <pt x="220" y="511" on="0"/>
        <pt x="220" y="631" on="0"/>
        <pt x="135" y="631" on="0"/>
        <pt x="65" y="555" on="0"/>
        <pt x="65" y="464" on="0"/>
        <pt x="135" y="403" on="0"/>
      </contour>
      <contour>
        <pt x="554" y="765" on="0"/>
        <pt x="522" y="799" on="0"/>
        <pt x="522" y="858" on="0"/>
        <pt x="567" y="899" on="0"/>
        <pt x="598" y="899" on="1"/>
        <pt x="664" y="899" on="0"/>
        <pt x="664" y="836" on="1"/>
        <pt x="664" y="808" on="0"/>
        <pt x="616" y="765" on="0"/>
      </contour>
      <contour>
        <pt x="349" y="765" on="0"/>
        <pt x="316" y="799" on="0"/>
        <pt x="316" y="858" on="0"/>
        <pt x="362" y="899" on="0"/>
        <pt x="393" y="899" on="1"/>
        <pt x="458" y="899" on="0"/>
        <pt x="458" y="836" on="1"/>
        <pt x="458" y="808" on="0"/>
        <pt x="411" y="765" on="0"/>
      </contour>
      <contour>
        <pt x="726" y="612" on="1"/>
        <pt x="726" y="639" on="0"/>
        <pt x="706" y="639" on="1"/>
        <pt x="662" y="639" on="0"/>
        <pt x="605" y="335" on="1"/>
        <pt x="650" y="394" on="0"/>
        <pt x="726" y="559" on="0"/>
      </contour>
    </TTGlyph>
    <TTGlyph name="Ugrave" xMin="3" yMin="-12" xMax="786" yMax="915">
      <contour>
        <pt x="376" y="516" on="0"/>
        <pt x="278" y="193" on="0"/>
        <pt x="278" y="104" on="0"/>
        <pt x="361" y="104" on="0"/>
        <pt x="433" y="165" on="1"/>
        <pt x="436" y="216" on="0"/>
        <pt x="450" y="287" on="1"/>
        <pt x="492" y="510" on="0"/>
        <pt x="612" y="710" on="0"/>
        <pt x="692" y="710" on="1"/>
        <pt x="739" y="710" on="0"/>
        <pt x="786" y="655" on="0"/>
        <pt x="786" y="610" on="1"/>
        <pt x="786" y="468" on="0"/>
        <pt x="592" y="228" on="1"/>
        <pt x="589" y="189" on="0"/>
        <pt x="589" y="149" on="1"/>
        <pt x="589" y="66" on="0"/>
        <pt x="617" y="66" on="1"/>
        <pt x="634" y="66" on="0"/>
        <pt x="646" y="70" on="1"/>
        <pt x="661" y="32" on="1"/>
        <pt x="599" y="-12" on="0"/>
        <pt x="537" y="-12" on="1"/>
        <pt x="447" y="-12" on="0"/>
        <pt x="434" y="93" on="1"/>
        <pt x="314" y="-12" on="0"/>
        <pt x="229" y="-12" on="1"/>
        <pt x="178" y="-12" on="0"/>
        <pt x="115" y="51" on="0"/>
        <pt x="115" y="111" on="1"/>
        <pt x="115" y="146" on="0"/>
        <pt x="162" y="303" on="0"/>
        <pt x="166" y="317" on="1"/>
        <pt x="3" y="384" on="0"/>
        <pt x="3" y="503" on="1"/>
        <pt x="3" y="585" on="0"/>
        <pt x="155" y="710" on="0"/>
        <pt x="248" y="710" on="1"/>
        <pt x="376" y="710" on="0"/>
        <pt x="376" y="583" on="1"/>
      </contour>
      <contour>
        <pt x="185" y="389" on="1"/>
        <pt x="220" y="511" on="0"/>
        <pt x="220" y="631" on="0"/>
        <pt x="135" y="631" on="0"/>
        <pt x="65" y="555" on="0"/>
        <pt x="65" y="464" on="0"/>
        <pt x="135" y="403" on="0"/>
      </contour>
      <contour>
        <pt x="322" y="915" on="1"/>
        <pt x="362" y="915" on="0"/>
        <pt x="581" y="783" on="1"/>
        <pt x="564" y="736" on="1"/>
        <pt x="469" y="764" on="0"/>
        <pt x="258" y="819" on="1"/>
        <pt x="284" y="915" on="0"/>
      </contour>
      <contour>
        <pt x="726" y="612" on="1"/>
        <pt x="726" y="639" on="0"/>
        <pt x="706" y="639" on="1"/>
        <pt x="662" y="639" on="0"/>
        <pt x="605" y="335" on="1"/>
        <pt x="650" y="394" on="0"/>
        <pt x="726" y="559" on="0"/>
      </contour>
    </TTGlyph>
    <TTGlyph name="V" xMin="-11" yMin="-12" xMax="708" yMax="776">
      <contour>
        <pt x="358" y="305" on="1"/>
        <pt x="346" y="214" on="0"/>
        <pt x="346" y="114" on="0"/>
        <pt x="408" y="114" on="0"/>
        <pt x="493" y="206" on="0"/>
        <pt x="567" y="366" on="0"/>
        <pt x="575" y="448" on="1"/>
        <pt x="575" y="531" on="0"/>
        <pt x="490" y="637" on="1"/>
        <pt x="510" y="680" on="0"/>
        <pt x="574" y="749" on="0"/>
        <pt x="596" y="762" on="1"/>
        <pt x="618" y="776" on="1"/>
        <pt x="655" y="776" on="0"/>
        <pt x="708" y="669" on="0"/>
        <pt x="708" y="604" on="1"/>
        <pt x="708" y="492" on="0"/>
        <pt x="578" y="200" on="0"/>
        <pt x="384" y="-12" on="0"/>
        <pt x="302" y="-12" on="1"/>
        <pt x="249" y="-12" on="0"/>
        <pt x="190" y="65" on="0"/>
        <pt x="190" y="173" on="0"/>
        <pt x="203" y="296" on="1"/>
        <pt x="110" y="305" on="0"/>
        <pt x="-11" y="414" on="0"/>
        <pt x="-11" y="573" on="0"/>
        <pt x="138" y="710" on="0"/>
        <pt x="234" y="710" on="1"/>
        <pt x="381" y="710" on="0"/>
        <pt x="381" y="527" on="1"/>
        <pt x="381" y="481" on="0"/>
        <pt x="374" y="433" on="1"/>
        <pt x="367" y="374" on="1"/>
        <pt x="417" y="386" on="0"/>
        <pt x="447" y="403" on="1"/>
        <pt x="458" y="409" on="1"/>
        <pt x="479" y="388" on="0"/>
        <pt x="480" y="345" on="1"/>
        <pt x="418" y="316" on="0"/>
      </contour>
      <contour>
        <pt x="225" y="578" on="0"/>
        <pt x="203" y="623" on="0"/>
        <pt x="138" y="623" on="0"/>
        <pt x="51" y="548" on="0"/>
        <pt x="51" y="437" on="0"/>
        <pt x="144" y="362" on="0"/>
        <pt x="210" y="362" on="1"/>
        <pt x="225" y="474" on="0"/>
      </contour>
    </TTGlyph>
    <TTGlyph name="W" xMin="-10" yMin="-12" xMax="1016" yMax="804">
      <contour>
        <pt x="210" y="123" on="1"/>
        <pt x="216" y="293" on="1"/>
        <pt x="120" y="305" on="0"/>
        <pt x="-10" y="411" on="0"/>
        <pt x="-10" y="500" on="1"/>
        <pt x="-10" y="573" on="0"/>
        <pt x="134" y="710" on="0"/>
        <pt x="234" y="710" on="1"/>
        <pt x="381" y="710" on="0"/>
        <pt x="381" y="519" on="1"/>
        <pt x="381" y="463" on="0"/>
        <pt x="366" y="232" on="0"/>
        <pt x="366" y="114" on="0"/>
        <pt x="398" y="114" on="1"/>
        <pt x="417" y="114" on="0"/>
        <pt x="490" y="179" on="0"/>
        <pt x="515" y="217" on="1"/>
        <pt x="537" y="443" on="0"/>
        <pt x="537" y="531" on="0"/>
        <pt x="536" y="563" on="0"/>
        <pt x="533" y="593" on="0"/>
        <pt x="532" y="608" on="0"/>
        <pt x="525" y="634" on="0"/>
        <pt x="524" y="638" on="0"/>
        <pt x="515" y="668" on="0"/>
        <pt x="515" y="669" on="1"/>
        <pt x="566" y="696" on="0"/>
        <pt x="682" y="710" on="1"/>
        <pt x="682" y="709" on="1"/>
        <pt x="693" y="674" on="0"/>
        <pt x="693" y="543" on="0"/>
        <pt x="653" y="219" on="0"/>
        <pt x="653" y="114" on="0"/>
        <pt x="714" y="114" on="0"/>
        <pt x="801" y="222" on="0"/>
        <pt x="874" y="396" on="0"/>
        <pt x="883" y="478" on="1"/>
        <pt x="883" y="559" on="0"/>
        <pt x="798" y="665" on="1"/>
        <pt x="818" y="708" on="0"/>
        <pt x="882" y="777" on="0"/>
        <pt x="904" y="790" on="1"/>
        <pt x="926" y="804" on="1"/>
        <pt x="963" y="804" on="0"/>
        <pt x="1016" y="699" on="0"/>
        <pt x="1016" y="558" on="0"/>
        <pt x="940" y="337" on="0"/>
        <pt x="825" y="133" on="0"/>
        <pt x="670" y="-12" on="0"/>
        <pt x="600" y="-12" on="1"/>
        <pt x="564" y="-12" on="0"/>
        <pt x="510" y="60" on="0"/>
        <pt x="509" y="116" on="1"/>
        <pt x="466" y="56" on="0"/>
        <pt x="370" y="-12" on="0"/>
        <pt x="274" y="-12" on="0"/>
        <pt x="210" y="66" on="0"/>
      </contour>
      <contour>
        <pt x="225" y="579" on="0"/>
        <pt x="202" y="624" on="0"/>
        <pt x="137" y="624" on="0"/>
        <pt x="52" y="552" on="0"/>
        <pt x="52" y="436" on="0"/>
        <pt x="153" y="360" on="0"/>
        <pt x="220" y="360" on="1"/>
        <pt x="225" y="455" on="0"/>
      </contour>
    </TTGlyph>
    <TTGlyph name="X" xMin="-6" yMin="-12" xMax="659" yMax="722">
      <contour>
        <pt x="533" y="109" on="0"/>
        <pt x="574" y="69" on="0"/>
        <pt x="597" y="69" on="0"/>
        <pt x="623" y="76" on="1"/>
        <pt x="638" y="37" on="1"/>
        <pt x="608" y="15" on="0"/>
        <pt x="521" y="-12" on="0"/>
        <pt x="488" y="-12" on="1"/>
        <pt x="411" y="-12" on="0"/>
        <pt x="374" y="62" on="1"/>
        <pt x="353" y="104" on="0"/>
        <pt x="306" y="243" on="1"/>
        <pt x="214" y="124" on="0"/>
        <pt x="140" y="5" on="1"/>
        <pt x="130" y="-12" on="0"/>
        <pt x="100" y="-12" on="0"/>
        <pt x="50" y="11" on="0"/>
        <pt x="36" y="28" on="1"/>
        <pt x="74" y="89" on="0"/>
        <pt x="156" y="187" on="0"/>
        <pt x="190" y="227" on="0"/>
        <pt x="265" y="309" on="0"/>
        <pt x="279" y="325" on="1"/>
        <pt x="236" y="446" on="0"/>
        <pt x="235" y="448" on="1"/>
        <pt x="184" y="416" on="0"/>
        <pt x="67" y="416" on="0"/>
        <pt x="-6" y="491" on="0"/>
        <pt x="-6" y="549" on="1"/>
        <pt x="-6" y="623" on="0"/>
        <pt x="106" y="722" on="0"/>
        <pt x="177" y="722" on="1"/>
        <pt x="272" y="722" on="0"/>
        <pt x="320" y="637" on="1"/>
        <pt x="342" y="597" on="0"/>
        <pt x="392" y="455" on="1"/>
        <pt x="474" y="560" on="0"/>
        <pt x="554" y="693" on="1"/>
        <pt x="563" y="710" on="0"/>
        <pt x="581" y="710" on="1"/>
        <pt x="623" y="710" on="0"/>
        <pt x="659" y="672" on="1"/>
        <pt x="619" y="603" on="0"/>
        <pt x="558" y="533" on="1"/>
        <pt x="538" y="509" on="0"/>
        <pt x="439" y="397" on="0"/>
        <pt x="421" y="376" on="1"/>
        <pt x="476" y="221" on="0"/>
      </contour>
      <contour>
        <pt x="56" y="520" on="0"/>
        <pt x="95" y="475" on="0"/>
        <pt x="169" y="475" on="0"/>
        <pt x="211" y="508" on="1"/>
        <pt x="204" y="525" on="0"/>
        <pt x="196" y="542" on="1"/>
        <pt x="160" y="613" on="0"/>
        <pt x="113" y="613" on="1"/>
        <pt x="87" y="613" on="0"/>
        <pt x="56" y="576" on="0"/>
      </contour>
    </TTGlyph>
    <TTGlyph name="Y" xMin="8" yMin="-224" xMax="797" yMax="710">
      <contour>
        <pt x="703" y="23" on="1"/>
        <pt x="691" y="-29" on="0"/>
        <pt x="681" y="-42" on="1"/>
        <pt x="617" y="-22" on="0"/>
        <pt x="538" y="-22" on="1"/>
        <pt x="537" y="-22" on="1"/>
        <pt x="438" y="-224" on="0"/>
        <pt x="270" y="-224" on="1"/>
        <pt x="223" y="-224" on="0"/>
        <pt x="159" y="-169" on="0"/>
        <pt x="159" y="-92" on="0"/>
        <pt x="209" y="-30" on="0"/>
        <pt x="250" y="-10" on="1"/>
        <pt x="324" y="25" on="0"/>
        <pt x="405" y="39" on="1"/>
        <pt x="425" y="113" on="1"/>
        <pt x="331" y="54" on="0"/>
        <pt x="258" y="54" on="1"/>
        <pt x="212" y="54" on="0"/>
        <pt x="157" y="109" on="0"/>
        <pt x="157" y="168" on="1"/>
        <pt x="157" y="215" on="0"/>
        <pt x="181" y="309" on="0"/>
        <pt x="182" y="314" on="1"/>
        <pt x="113" y="335" on="0"/>
        <pt x="8" y="438" on="0"/>
        <pt x="8" y="596" on="0"/>
        <pt x="150" y="710" on="0"/>
        <pt x="318" y="710" on="0"/>
        <pt x="398" y="625" on="0"/>
        <pt x="398" y="503" on="0"/>
        <pt x="313" y="248" on="0"/>
        <pt x="313" y="215" on="1"/>
        <pt x="313" y="170" on="0"/>
        <pt x="393" y="170" on="0"/>
        <pt x="450" y="212" on="1"/>
        <pt x="471" y="317" on="1"/>
        <pt x="508" y="502" on="0"/>
        <pt x="542" y="590" on="0"/>
        <pt x="575" y="653" on="0"/>
        <pt x="593" y="670" on="1"/>
        <pt x="635" y="710" on="0"/>
        <pt x="741" y="710" on="0"/>
        <pt x="797" y="656" on="0"/>
        <pt x="797" y="543" on="0"/>
        <pt x="706" y="363" on="0"/>
        <pt x="626" y="273" on="1"/>
        <pt x="602" y="138" on="0"/>
        <pt x="563" y="38" on="1"/>
        <pt x="572" y="38" on="1"/>
        <pt x="651" y="36" on="0"/>
        <pt x="689" y="26" on="1"/>
      </contour>
      <contour>
        <pt x="194" y="389" on="1"/>
        <pt x="232" y="506" on="0"/>
        <pt x="232" y="640" on="0"/>
        <pt x="181" y="640" on="1"/>
        <pt x="140" y="640" on="0"/>
        <pt x="70" y="569" on="0"/>
        <pt x="70" y="467" on="0"/>
        <pt x="146" y="403" on="0"/>
      </contour>
      <contour>
        <pt x="683" y="425" on="0"/>
        <pt x="737" y="562" on="0"/>
        <pt x="737" y="638" on="0"/>
        <pt x="723" y="638" on="1"/>
        <pt x="711" y="638" on="0"/>
        <pt x="696" y="610" on="1"/>
        <pt x="670" y="560" on="0"/>
        <pt x="641" y="378" on="1"/>
        <pt x="643" y="379" on="1"/>
      </contour>
      <contour>
        <pt x="233" y="-119" on="1"/>
        <pt x="233" y="-143" on="0"/>
        <pt x="301" y="-143" on="0"/>
        <pt x="370" y="-82" on="0"/>
        <pt x="391" y="-31" on="1"/>
        <pt x="334" y="-36" on="0"/>
        <pt x="233" y="-90" on="0"/>
      </contour>
    </TTGlyph>
    <TTGlyph name="Yacute" xMin="8" yMin="-224" xMax="797" yMax="931">
      <contour>
        <pt x="703" y="23" on="1"/>
        <pt x="691" y="-29" on="0"/>
        <pt x="681" y="-42" on="1"/>
        <pt x="617" y="-22" on="0"/>
        <pt x="538" y="-22" on="1"/>
        <pt x="537" y="-22" on="1"/>
        <pt x="438" y="-224" on="0"/>
        <pt x="270" y="-224" on="1"/>
        <pt x="223" y="-224" on="0"/>
        <pt x="159" y="-169" on="0"/>
        <pt x="159" y="-92" on="0"/>
        <pt x="209" y="-30" on="0"/>
        <pt x="250" y="-10" on="1"/>
        <pt x="324" y="25" on="0"/>
        <pt x="405" y="39" on="1"/>
        <pt x="425" y="113" on="1"/>
        <pt x="331" y="54" on="0"/>
        <pt x="258" y="54" on="1"/>
        <pt x="212" y="54" on="0"/>
        <pt x="157" y="109" on="0"/>
        <pt x="157" y="168" on="1"/>
        <pt x="157" y="215" on="0"/>
        <pt x="181" y="309" on="0"/>
        <pt x="182" y="314" on="1"/>
        <pt x="113" y="335" on="0"/>
        <pt x="8" y="438" on="0"/>
        <pt x="8" y="596" on="0"/>
        <pt x="150" y="710" on="0"/>
        <pt x="318" y="710" on="0"/>
        <pt x="398" y="625" on="0"/>
        <pt x="398" y="503" on="0"/>
        <pt x="313" y="248" on="0"/>
        <pt x="313" y="215" on="1"/>
        <pt x="313" y="170" on="0"/>
        <pt x="393" y="170" on="0"/>
        <pt x="450" y="212" on="1"/>
        <pt x="471" y="317" on="1"/>
        <pt x="508" y="502" on="0"/>
        <pt x="542" y="590" on="0"/>
        <pt x="575" y="653" on="0"/>
        <pt x="593" y="670" on="1"/>
        <pt x="635" y="710" on="0"/>
        <pt x="741" y="710" on="0"/>
        <pt x="797" y="656" on="0"/>
        <pt x="797" y="543" on="0"/>
        <pt x="706" y="363" on="0"/>
        <pt x="626" y="273" on="1"/>
        <pt x="602" y="138" on="0"/>
        <pt x="563" y="38" on="1"/>
        <pt x="572" y="38" on="1"/>
        <pt x="651" y="36" on="0"/>
        <pt x="689" y="26" on="1"/>
      </contour>
      <contour>
        <pt x="194" y="389" on="1"/>
        <pt x="232" y="506" on="0"/>
        <pt x="232" y="640" on="0"/>
        <pt x="181" y="640" on="1"/>
        <pt x="140" y="640" on="0"/>
        <pt x="70" y="569" on="0"/>
        <pt x="70" y="467" on="0"/>
        <pt x="146" y="403" on="0"/>
      </contour>
      <contour>
        <pt x="693" y="846" on="1"/>
        <pt x="693" y="818" on="0"/>
        <pt x="656" y="802" on="1"/>
        <pt x="565" y="776" on="0"/>
        <pt x="394" y="750" on="1"/>
        <pt x="373" y="796" on="1"/>
        <pt x="583" y="891" on="0"/>
        <pt x="656" y="931" on="1"/>
        <pt x="667" y="915" on="0"/>
        <pt x="693" y="856" on="0"/>
      </contour>
      <contour>
        <pt x="683" y="425" on="0"/>
        <pt x="737" y="562" on="0"/>
        <pt x="737" y="638" on="0"/>
        <pt x="723" y="638" on="1"/>
        <pt x="711" y="638" on="0"/>
        <pt x="696" y="610" on="1"/>
        <pt x="670" y="560" on="0"/>
        <pt x="641" y="378" on="1"/>
        <pt x="643" y="379" on="1"/>
      </contour>
      <contour>
        <pt x="233" y="-119" on="1"/>
        <pt x="233" y="-143" on="0"/>
        <pt x="301" y="-143" on="0"/>
        <pt x="370" y="-82" on="0"/>
        <pt x="391" y="-31" on="1"/>
        <pt x="334" y="-36" on="0"/>
        <pt x="233" y="-90" on="0"/>
      </contour>
    </TTGlyph>
    <TTGlyph name="Z" xMin="-35" yMin="-80" xMax="568" yMax="855">
      <contour>
        <pt x="320" y="709" on="1"/>
        <pt x="332" y="764" on="0"/>
        <pt x="332" y="830" on="0"/>
        <pt x="328" y="848" on="1"/>
        <pt x="349" y="854" on="0"/>
        <pt x="388" y="854" on="0"/>
        <pt x="406" y="849" on="1"/>
        <pt x="401" y="775" on="0"/>
        <pt x="376" y="697" on="1"/>
        <pt x="439" y="685" on="0"/>
        <pt x="510" y="685" on="0"/>
        <pt x="533" y="688" on="1"/>
        <pt x="517" y="536" on="0"/>
        <pt x="388" y="287" on="0"/>
        <pt x="279" y="146" on="1"/>
        <pt x="296" y="138" on="0"/>
        <pt x="366" y="102" on="0"/>
        <pt x="386" y="92" on="1"/>
        <pt x="440" y="65" on="0"/>
        <pt x="504" y="65" on="0"/>
        <pt x="521" y="85" on="1"/>
        <pt x="548" y="77" on="0"/>
        <pt x="568" y="53" on="1"/>
        <pt x="552" y="-3" on="0"/>
        <pt x="490" y="-80" on="0"/>
        <pt x="409" y="-80" on="0"/>
        <pt x="333" y="-40" on="0"/>
        <pt x="220" y="43" on="0"/>
        <pt x="200" y="56" on="1"/>
        <pt x="135" y="-17" on="0"/>
        <pt x="64" y="-17" on="1"/>
        <pt x="20" y="-17" on="0"/>
        <pt x="-35" y="31" on="0"/>
        <pt x="-35" y="126" on="0"/>
        <pt x="46" y="194" on="0"/>
        <pt x="110" y="194" on="1"/>
        <pt x="147" y="194" on="0"/>
        <pt x="197" y="176" on="1"/>
        <pt x="266" y="265" on="0"/>
        <pt x="369" y="469" on="0"/>
        <pt x="382" y="548" on="1"/>
        <pt x="323" y="563" on="1"/>
        <pt x="284" y="505" on="0"/>
        <pt x="177" y="431" on="0"/>
        <pt x="57" y="431" on="0"/>
        <pt x="-21" y="510" on="0"/>
        <pt x="-21" y="641" on="0"/>
        <pt x="67" y="734" on="0"/>
        <pt x="151" y="734" on="1"/>
        <pt x="212" y="734" on="0"/>
      </contour>
      <contour>
        <pt x="124" y="491" on="1"/>
        <pt x="199" y="491" on="0"/>
        <pt x="264" y="581" on="1"/>
        <pt x="183" y="603" on="0"/>
        <pt x="143" y="603" on="1"/>
        <pt x="59" y="603" on="0"/>
        <pt x="59" y="546" on="1"/>
        <pt x="59" y="523" on="0"/>
        <pt x="91" y="491" on="0"/>
      </contour>
      <contour>
        <pt x="60" y="108" on="0"/>
        <pt x="33" y="92" on="0"/>
        <pt x="33" y="65" on="0"/>
        <pt x="51" y="49" on="0"/>
        <pt x="64" y="49" on="1"/>
        <pt x="94" y="49" on="0"/>
        <pt x="138" y="96" on="1"/>
        <pt x="106" y="108" on="0"/>
      </contour>
    </TTGlyph>
    <TTGlyph name="a" xMin="32" yMin="-12" xMax="492" yMax="443">
      <contour>
        <pt x="328" y="414" on="1"/>
        <pt x="330" y="416" on="0"/>
        <pt x="339" y="440" on="1"/>
        <pt x="386" y="440" on="0"/>
        <pt x="465" y="412" on="1"/>
        <pt x="440" y="329" on="0"/>
        <pt x="410" y="148" on="0"/>
        <pt x="410" y="71" on="0"/>
        <pt x="418" y="71" on="1"/>
        <pt x="424" y="71" on="0"/>
        <pt x="462" y="90" on="1"/>
        <pt x="474" y="96" on="1"/>
        <pt x="492" y="61" on="1"/>
        <pt x="483" y="53" on="0"/>
        <pt x="454" y="29" on="0"/>
        <pt x="374" y="-12" on="0"/>
        <pt x="342" y="-12" on="1"/>
        <pt x="280" y="-12" on="0"/>
        <pt x="270" y="44" on="1"/>
        <pt x="206" y="-12" on="0"/>
        <pt x="103" y="-12" on="0"/>
        <pt x="32" y="68" on="0"/>
        <pt x="32" y="154" on="1"/>
        <pt x="32" y="288" on="0"/>
        <pt x="142" y="443" on="0"/>
        <pt x="220" y="443" on="1"/>
        <pt x="276" y="443" on="0"/>
      </contour>
      <contour>
        <pt x="214" y="73" on="1"/>
        <pt x="238" y="73" on="0"/>
        <pt x="268" y="92" on="1"/>
        <pt x="275" y="233" on="0"/>
        <pt x="315" y="371" on="1"/>
        <pt x="285" y="384" on="0"/>
        <pt x="264" y="384" on="1"/>
        <pt x="228" y="384" on="0"/>
        <pt x="177" y="243" on="0"/>
        <pt x="177" y="73" on="0"/>
      </contour>
    </TTGlyph>
    <TTGlyph name="aacute" xMin="32" yMin="-12" xMax="492" yMax="705">
      <contour>
        <pt x="328" y="414" on="1"/>
        <pt x="330" y="416" on="0"/>
        <pt x="339" y="440" on="1"/>
        <pt x="386" y="440" on="0"/>
        <pt x="465" y="412" on="1"/>
        <pt x="440" y="329" on="0"/>
        <pt x="410" y="148" on="0"/>
        <pt x="410" y="71" on="0"/>
        <pt x="418" y="71" on="1"/>
        <pt x="424" y="71" on="0"/>
        <pt x="462" y="90" on="1"/>
        <pt x="474" y="96" on="1"/>
        <pt x="492" y="61" on="1"/>
        <pt x="483" y="53" on="0"/>
        <pt x="454" y="29" on="0"/>
        <pt x="374" y="-12" on="0"/>
        <pt x="342" y="-12" on="1"/>
        <pt x="280" y="-12" on="0"/>
        <pt x="270" y="44" on="1"/>
        <pt x="206" y="-12" on="0"/>
        <pt x="103" y="-12" on="0"/>
        <pt x="32" y="68" on="0"/>
        <pt x="32" y="154" on="1"/>
        <pt x="32" y="288" on="0"/>
        <pt x="142" y="443" on="0"/>
        <pt x="220" y="443" on="1"/>
        <pt x="276" y="443" on="0"/>
      </contour>
      <contour>
        <pt x="214" y="73" on="1"/>
        <pt x="238" y="73" on="0"/>
        <pt x="268" y="92" on="1"/>
        <pt x="275" y="233" on="0"/>
        <pt x="315" y="371" on="1"/>
        <pt x="285" y="384" on="0"/>
        <pt x="264" y="384" on="1"/>
        <pt x="228" y="384" on="0"/>
        <pt x="177" y="243" on="0"/>
        <pt x="177" y="73" on="0"/>
      </contour>
      <contour>
        <pt x="467" y="616" on="1"/>
        <pt x="467" y="588" on="0"/>
        <pt x="431" y="571" on="1"/>
        <pt x="382" y="548" on="0"/>
        <pt x="186" y="503" on="1"/>
        <pt x="168" y="543" on="1"/>
        <pt x="262" y="592" on="0"/>
        <pt x="414" y="694" on="0"/>
        <pt x="432" y="705" on="1"/>
        <pt x="442" y="691" on="0"/>
        <pt x="467" y="631" on="0"/>
      </contour>
    </TTGlyph>
    <TTGlyph name="acircumflex" xMin="32" yMin="-12" xMax="492" yMax="705">
      <contour>
        <pt x="328" y="414" on="1"/>
        <pt x="330" y="416" on="0"/>
        <pt x="339" y="440" on="1"/>
        <pt x="386" y="440" on="0"/>
        <pt x="465" y="412" on="1"/>
        <pt x="440" y="329" on="0"/>
        <pt x="410" y="148" on="0"/>
        <pt x="410" y="71" on="0"/>
        <pt x="418" y="71" on="1"/>
        <pt x="424" y="71" on="0"/>
        <pt x="462" y="90" on="1"/>
        <pt x="474" y="96" on="1"/>
        <pt x="492" y="61" on="1"/>
        <pt x="483" y="53" on="0"/>
        <pt x="454" y="29" on="0"/>
        <pt x="374" y="-12" on="0"/>
        <pt x="342" y="-12" on="1"/>
        <pt x="280" y="-12" on="0"/>
        <pt x="270" y="44" on="1"/>
        <pt x="206" y="-12" on="0"/>
        <pt x="103" y="-12" on="0"/>
        <pt x="32" y="68" on="0"/>
        <pt x="32" y="154" on="1"/>
        <pt x="32" y="288" on="0"/>
        <pt x="142" y="443" on="0"/>
        <pt x="220" y="443" on="1"/>
        <pt x="276" y="443" on="0"/>
      </contour>
      <contour>
        <pt x="214" y="73" on="1"/>
        <pt x="238" y="73" on="0"/>
        <pt x="268" y="92" on="1"/>
        <pt x="275" y="233" on="0"/>
        <pt x="315" y="371" on="1"/>
        <pt x="285" y="384" on="0"/>
        <pt x="264" y="384" on="1"/>
        <pt x="228" y="384" on="0"/>
        <pt x="177" y="243" on="0"/>
        <pt x="177" y="73" on="0"/>
      </contour>
      <contour>
        <pt x="358" y="705" on="1"/>
        <pt x="391" y="705" on="0"/>
        <pt x="485" y="536" on="1"/>
        <pt x="454" y="507" on="1"/>
        <pt x="368" y="574" on="0"/>
        <pt x="325" y="590" on="1"/>
        <pt x="244" y="568" on="0"/>
        <pt x="136" y="503" on="1"/>
        <pt x="109" y="540" on="1"/>
        <pt x="162" y="591" on="0"/>
        <pt x="331" y="705" on="0"/>
      </contour>
    </TTGlyph>
    <TTGlyph name="acute" xMin="148" yMin="503" xMax="447" yMax="705">
      <contour>
        <pt x="447" y="616" on="1"/>
        <pt x="447" y="588" on="0"/>
        <pt x="411" y="571" on="1"/>
        <pt x="362" y="548" on="0"/>
        <pt x="166" y="503" on="1"/>
        <pt x="148" y="543" on="1"/>
        <pt x="242" y="592" on="0"/>
        <pt x="394" y="694" on="0"/>
        <pt x="412" y="705" on="1"/>
        <pt x="422" y="691" on="0"/>
        <pt x="447" y="631" on="0"/>
      </contour>
    </TTGlyph>
    <TTGlyph name="acute.cap" xMin="149" yMin="750" xMax="469" yMax="931">
      <contour>
        <pt x="469" y="846" on="1"/>
        <pt x="469" y="818" on="0"/>
        <pt x="432" y="802" on="1"/>
        <pt x="341" y="776" on="0"/>
        <pt x="170" y="750" on="1"/>
        <pt x="149" y="796" on="1"/>
        <pt x="359" y="891" on="0"/>
        <pt x="432" y="931" on="1"/>
        <pt x="443" y="915" on="0"/>
        <pt x="469" y="856" on="0"/>
      </contour>
    </TTGlyph>
    <TTGlyph name="adieresis" xMin="32" yMin="-12" xMax="492" yMax="678">
      <contour>
        <pt x="328" y="414" on="1"/>
        <pt x="330" y="416" on="0"/>
        <pt x="339" y="440" on="1"/>
        <pt x="386" y="440" on="0"/>
        <pt x="465" y="412" on="1"/>
        <pt x="440" y="329" on="0"/>
        <pt x="410" y="148" on="0"/>
        <pt x="410" y="71" on="0"/>
        <pt x="418" y="71" on="1"/>
        <pt x="424" y="71" on="0"/>
        <pt x="462" y="90" on="1"/>
        <pt x="474" y="96" on="1"/>
        <pt x="492" y="61" on="1"/>
        <pt x="483" y="53" on="0"/>
        <pt x="454" y="29" on="0"/>
        <pt x="374" y="-12" on="0"/>
        <pt x="342" y="-12" on="1"/>
        <pt x="280" y="-12" on="0"/>
        <pt x="270" y="44" on="1"/>
        <pt x="206" y="-12" on="0"/>
        <pt x="103" y="-12" on="0"/>
        <pt x="32" y="68" on="0"/>
        <pt x="32" y="154" on="1"/>
        <pt x="32" y="288" on="0"/>
        <pt x="142" y="443" on="0"/>
        <pt x="220" y="443" on="1"/>
        <pt x="276" y="443" on="0"/>
      </contour>
      <contour>
        <pt x="214" y="73" on="1"/>
        <pt x="238" y="73" on="0"/>
        <pt x="268" y="92" on="1"/>
        <pt x="275" y="233" on="0"/>
        <pt x="315" y="371" on="1"/>
        <pt x="285" y="384" on="0"/>
        <pt x="264" y="384" on="1"/>
        <pt x="228" y="384" on="0"/>
        <pt x="177" y="243" on="0"/>
        <pt x="177" y="73" on="0"/>
      </contour>
      <contour>
        <pt x="177" y="539" on="0"/>
        <pt x="145" y="575" on="0"/>
        <pt x="145" y="635" on="0"/>
        <pt x="190" y="678" on="0"/>
        <pt x="219" y="678" on="1"/>
        <pt x="282" y="678" on="0"/>
        <pt x="282" y="613" on="1"/>
        <pt x="282" y="584" on="0"/>
        <pt x="236" y="539" on="0"/>
      </contour>
      <contour>
        <pt x="372" y="539" on="0"/>
        <pt x="341" y="574" on="0"/>
        <pt x="341" y="635" on="0"/>
        <pt x="386" y="678" on="0"/>
        <pt x="446" y="678" on="0"/>
        <pt x="478" y="643" on="0"/>
        <pt x="478" y="584" on="0"/>
        <pt x="432" y="539" on="0"/>
      </contour>
    </TTGlyph>
    <TTGlyph name="ae" xMin="32" yMin="-12" xMax="654" yMax="443">
      <contour>
        <pt x="220" y="443" on="1"/>
        <pt x="275" y="443" on="0"/>
        <pt x="326" y="415" on="1"/>
        <pt x="332" y="430" on="0"/>
        <pt x="339" y="440" on="1"/>
        <pt x="367" y="435" on="0"/>
        <pt x="411" y="414" on="1"/>
        <pt x="464" y="443" on="0"/>
        <pt x="578" y="443" on="0"/>
        <pt x="654" y="385" on="0"/>
        <pt x="654" y="288" on="0"/>
        <pt x="605" y="222" on="0"/>
        <pt x="570" y="204" on="1"/>
        <pt x="499" y="169" on="0"/>
        <pt x="440" y="160" on="1"/>
        <pt x="416" y="157" on="1"/>
        <pt x="423" y="63" on="0"/>
        <pt x="493" y="63" on="1"/>
        <pt x="517" y="63" on="0"/>
        <pt x="571" y="87" on="0"/>
        <pt x="586" y="99" on="1"/>
        <pt x="601" y="111" on="1"/>
        <pt x="625" y="79" on="1"/>
        <pt x="617" y="68" on="0"/>
        <pt x="569" y="32" on="0"/>
        <pt x="548" y="20" on="1"/>
        <pt x="490" y="-12" on="0"/>
        <pt x="428" y="-12" on="1"/>
        <pt x="335" y="-12" on="0"/>
        <pt x="297" y="70" on="1"/>
        <pt x="273" y="39" on="0"/>
        <pt x="181" y="-12" on="0"/>
        <pt x="149" y="-12" on="1"/>
        <pt x="103" y="-12" on="0"/>
        <pt x="32" y="68" on="0"/>
        <pt x="32" y="154" on="1"/>
        <pt x="32" y="288" on="0"/>
        <pt x="142" y="443" on="0"/>
      </contour>
      <contour>
        <pt x="285" y="106" on="1"/>
        <pt x="278" y="126" on="0"/>
        <pt x="278" y="286" on="0"/>
        <pt x="308" y="374" on="1"/>
        <pt x="285" y="384" on="0"/>
        <pt x="264" y="384" on="1"/>
        <pt x="228" y="384" on="0"/>
        <pt x="177" y="243" on="0"/>
        <pt x="177" y="73" on="0"/>
        <pt x="252" y="73" on="0"/>
      </contour>
      <contour>
        <pt x="466" y="215" on="0"/>
        <pt x="526" y="283" on="0"/>
        <pt x="526" y="391" on="0"/>
        <pt x="494" y="391" on="1"/>
        <pt x="456" y="391" on="0"/>
        <pt x="415" y="262" on="0"/>
        <pt x="415" y="206" on="1"/>
      </contour>
    </TTGlyph>
    <TTGlyph name="agrave" xMin="32" yMin="-12" xMax="492" yMax="693">
      <contour>
        <pt x="328" y="414" on="1"/>
        <pt x="330" y="416" on="0"/>
        <pt x="339" y="440" on="1"/>
        <pt x="386" y="440" on="0"/>
        <pt x="465" y="412" on="1"/>
        <pt x="440" y="329" on="0"/>
        <pt x="410" y="148" on="0"/>
        <pt x="410" y="71" on="0"/>
        <pt x="418" y="71" on="1"/>
        <pt x="424" y="71" on="0"/>
        <pt x="462" y="90" on="1"/>
        <pt x="474" y="96" on="1"/>
        <pt x="492" y="61" on="1"/>
        <pt x="483" y="53" on="0"/>
        <pt x="454" y="29" on="0"/>
        <pt x="374" y="-12" on="0"/>
        <pt x="342" y="-12" on="1"/>
        <pt x="280" y="-12" on="0"/>
        <pt x="270" y="44" on="1"/>
        <pt x="206" y="-12" on="0"/>
        <pt x="103" y="-12" on="0"/>
        <pt x="32" y="68" on="0"/>
        <pt x="32" y="154" on="1"/>
        <pt x="32" y="288" on="0"/>
        <pt x="142" y="443" on="0"/>
        <pt x="220" y="443" on="1"/>
        <pt x="276" y="443" on="0"/>
      </contour>
      <contour>
        <pt x="214" y="73" on="1"/>
        <pt x="238" y="73" on="0"/>
        <pt x="268" y="92" on="1"/>
        <pt x="275" y="233" on="0"/>
        <pt x="315" y="371" on="1"/>
        <pt x="285" y="384" on="0"/>
        <pt x="264" y="384" on="1"/>
        <pt x="228" y="384" on="0"/>
        <pt x="177" y="243" on="0"/>
        <pt x="177" y="73" on="0"/>
      </contour>
      <contour>
        <pt x="203" y="693" on="1"/>
        <pt x="230" y="693" on="0"/>
        <pt x="291" y="651" on="1"/>
        <pt x="307" y="640" on="0"/>
        <pt x="332" y="623" on="0"/>
        <pt x="370" y="595" on="0"/>
        <pt x="382" y="586" on="1"/>
        <pt x="412" y="561" on="0"/>
        <pt x="446" y="537" on="1"/>
        <pt x="424" y="499" on="1"/>
        <pt x="301" y="546" on="0"/>
        <pt x="132" y="600" on="1"/>
        <pt x="170" y="693" on="0"/>
      </contour>
    </TTGlyph>
    <TTGlyph name="ampersand" xMin="82" yMin="-20" xMax="808" yMax="710">
      <contour>
        <pt x="386" y="315" on="1"/>
        <pt x="392" y="286" on="0"/>
        <pt x="441" y="286" on="0"/>
        <pt x="517" y="326" on="0"/>
        <pt x="583" y="373" on="0"/>
        <pt x="669" y="413" on="0"/>
        <pt x="750" y="413" on="0"/>
        <pt x="808" y="359" on="0"/>
        <pt x="808" y="270" on="0"/>
        <pt x="746" y="203" on="0"/>
        <pt x="700" y="203" on="1"/>
        <pt x="639" y="203" on="0"/>
        <pt x="572" y="265" on="1"/>
        <pt x="573" y="255" on="0"/>
        <pt x="573" y="236" on="1"/>
        <pt x="573" y="125" on="0"/>
        <pt x="419" y="-20" on="0"/>
        <pt x="314" y="-20" on="1"/>
        <pt x="240" y="-20" on="0"/>
        <pt x="167" y="24" on="1"/>
        <pt x="130" y="47" on="0"/>
        <pt x="82" y="132" on="0"/>
        <pt x="82" y="188" on="1"/>
        <pt x="82" y="284" on="0"/>
        <pt x="213" y="403" on="0"/>
        <pt x="298" y="412" on="1"/>
        <pt x="175" y="444" on="0"/>
        <pt x="175" y="549" on="1"/>
        <pt x="175" y="624" on="0"/>
        <pt x="297" y="710" on="0"/>
        <pt x="456" y="710" on="0"/>
        <pt x="563" y="641" on="0"/>
        <pt x="563" y="583" on="1"/>
        <pt x="563" y="546" on="0"/>
        <pt x="517" y="492" on="0"/>
        <pt x="445" y="492" on="0"/>
        <pt x="395" y="535" on="0"/>
        <pt x="395" y="572" on="1"/>
        <pt x="395" y="623" on="0"/>
        <pt x="440" y="645" on="1"/>
        <pt x="426" y="647" on="0"/>
        <pt x="419" y="647" on="1"/>
        <pt x="385" y="647" on="0"/>
        <pt x="363" y="626" on="1"/>
        <pt x="328" y="593" on="0"/>
        <pt x="328" y="514" on="0"/>
        <pt x="346" y="468" on="0"/>
        <pt x="363" y="456" on="1"/>
        <pt x="389" y="438" on="0"/>
        <pt x="421" y="431" on="1"/>
        <pt x="422" y="431" on="0"/>
        <pt x="425" y="430" on="0"/>
        <pt x="426" y="430" on="1"/>
        <pt x="417" y="382" on="1"/>
        <pt x="411" y="382" on="1"/>
        <pt x="344" y="382" on="0"/>
        <pt x="242" y="288" on="0"/>
        <pt x="242" y="139" on="0"/>
        <pt x="313" y="75" on="0"/>
        <pt x="363" y="75" on="1"/>
        <pt x="429" y="75" on="0"/>
        <pt x="513" y="182" on="0"/>
        <pt x="525" y="256" on="1"/>
        <pt x="462" y="227" on="0"/>
        <pt x="386" y="227" on="0"/>
        <pt x="345" y="265" on="0"/>
        <pt x="343" y="299" on="1"/>
        <pt x="357" y="313" on="0"/>
      </contour>
      <contour>
        <pt x="747" y="314" on="0"/>
        <pt x="728" y="333" on="0"/>
        <pt x="676" y="333" on="0"/>
        <pt x="618" y="304" on="1"/>
        <pt x="664" y="263" on="0"/>
        <pt x="707" y="263" on="1"/>
        <pt x="724" y="264" on="0"/>
        <pt x="747" y="286" on="0"/>
      </contour>
      <contour>
        <pt x="476" y="544" on="1"/>
        <pt x="503" y="544" on="0"/>
        <pt x="503" y="589" on="1"/>
        <pt x="503" y="607" on="0"/>
        <pt x="486" y="624" on="1"/>
        <pt x="470" y="619" on="0"/>
        <pt x="449" y="591" on="0"/>
        <pt x="449" y="559" on="0"/>
        <pt x="466" y="544" on="0"/>
      </contour>
    </TTGlyph>
    <TTGlyph name="aring" xMin="32" yMin="-12" xMax="492" yMax="732">
      <contour>
        <pt x="328" y="414" on="1"/>
        <pt x="330" y="416" on="0"/>
        <pt x="339" y="440" on="1"/>
        <pt x="386" y="440" on="0"/>
        <pt x="465" y="412" on="1"/>
        <pt x="440" y="329" on="0"/>
        <pt x="410" y="148" on="0"/>
        <pt x="410" y="71" on="0"/>
        <pt x="418" y="71" on="1"/>
        <pt x="424" y="71" on="0"/>
        <pt x="462" y="90" on="1"/>
        <pt x="474" y="96" on="1"/>
        <pt x="492" y="61" on="1"/>
        <pt x="483" y="53" on="0"/>
        <pt x="454" y="29" on="0"/>
        <pt x="374" y="-12" on="0"/>
        <pt x="342" y="-12" on="1"/>
        <pt x="280" y="-12" on="0"/>
        <pt x="270" y="44" on="1"/>
        <pt x="206" y="-12" on="0"/>
        <pt x="103" y="-12" on="0"/>
        <pt x="32" y="68" on="0"/>
        <pt x="32" y="154" on="1"/>
        <pt x="32" y="288" on="0"/>
        <pt x="142" y="443" on="0"/>
        <pt x="220" y="443" on="1"/>
        <pt x="276" y="443" on="0"/>
      </contour>
      <contour>
        <pt x="214" y="73" on="1"/>
        <pt x="238" y="73" on="0"/>
        <pt x="268" y="92" on="1"/>
        <pt x="275" y="233" on="0"/>
        <pt x="315" y="371" on="1"/>
        <pt x="285" y="384" on="0"/>
        <pt x="264" y="384" on="1"/>
        <pt x="228" y="384" on="0"/>
        <pt x="177" y="243" on="0"/>
        <pt x="177" y="73" on="0"/>
      </contour>
      <contour>
        <pt x="203" y="581" on="0"/>
        <pt x="203" y="673" on="0"/>
        <pt x="260" y="732" on="0"/>
        <pt x="366" y="732" on="0"/>
        <pt x="423" y="673" on="0"/>
        <pt x="423" y="581" on="0"/>
        <pt x="366" y="521" on="0"/>
        <pt x="260" y="521" on="0"/>
      </contour>
      <contour>
        <pt x="261" y="649" on="0"/>
        <pt x="261" y="605" on="0"/>
        <pt x="288" y="578" on="0"/>
        <pt x="337" y="578" on="0"/>
        <pt x="362" y="605" on="0"/>
        <pt x="362" y="649" on="0"/>
        <pt x="337" y="676" on="0"/>
        <pt x="288" y="676" on="0"/>
      </contour>
    </TTGlyph>
    <TTGlyph name="asciicircum" xMin="21" yMin="284" xMax="437" yMax="674">
      <contour>
        <pt x="21" y="287" on="1"/>
        <pt x="193" y="674" on="1"/>
        <pt x="268" y="674" on="1"/>
        <pt x="291" y="621" on="0"/>
        <pt x="322" y="548" on="1"/>
        <pt x="388" y="393" on="0"/>
        <pt x="437" y="287" on="1"/>
        <pt x="411" y="284" on="0"/>
        <pt x="379" y="284" on="0"/>
        <pt x="339" y="288" on="1"/>
        <pt x="268" y="467" on="0"/>
        <pt x="230" y="556" on="1"/>
        <pt x="191" y="466" on="0"/>
        <pt x="118" y="288" on="1"/>
        <pt x="78" y="284" on="0"/>
        <pt x="46" y="284" on="0"/>
      </contour>
    </TTGlyph>
    <TTGlyph name="asciitilde" xMin="47" yMin="226" xMax="505" yMax="369">
      <contour>
        <pt x="376" y="235" on="1"/>
        <pt x="350" y="235" on="0"/>
        <pt x="200" y="261" on="0"/>
        <pt x="133" y="261" on="0"/>
        <pt x="124" y="260" on="1"/>
        <pt x="97" y="255" on="0"/>
        <pt x="78" y="226" on="1"/>
        <pt x="47" y="233" on="1"/>
        <pt x="55" y="288" on="0"/>
        <pt x="120" y="361" on="0"/>
        <pt x="213" y="361" on="0"/>
        <pt x="367" y="337" on="0"/>
        <pt x="428" y="337" on="0"/>
        <pt x="460" y="349" on="0"/>
        <pt x="474" y="369" on="1"/>
        <pt x="505" y="363" on="1"/>
        <pt x="495" y="305" on="0"/>
        <pt x="439" y="235" on="0"/>
      </contour>
    </TTGlyph>
    <TTGlyph name="asterisk" xMin="38" yMin="363" xMax="403" yMax="736">
      <contour>
        <pt x="266" y="529" on="1"/>
        <pt x="297" y="504" on="0"/>
        <pt x="340" y="504" on="0"/>
        <pt x="364" y="512" on="1"/>
        <pt x="376" y="505" on="0"/>
        <pt x="394" y="466" on="0"/>
        <pt x="394" y="439" on="0"/>
        <pt x="393" y="435" on="1"/>
        <pt x="367" y="406" on="0"/>
        <pt x="330" y="406" on="1"/>
        <pt x="322" y="406" on="0"/>
        <pt x="300" y="416" on="0"/>
        <pt x="243" y="480" on="0"/>
        <pt x="226" y="512" on="1"/>
        <pt x="209" y="481" on="0"/>
        <pt x="209" y="466" on="1"/>
        <pt x="209" y="442" on="0"/>
        <pt x="222" y="415" on="1"/>
        <pt x="227" y="406" on="1"/>
        <pt x="218" y="391" on="0"/>
        <pt x="175" y="363" on="0"/>
        <pt x="156" y="363" on="1"/>
        <pt x="139" y="373" on="0"/>
        <pt x="115" y="411" on="0"/>
        <pt x="115" y="450" on="0"/>
        <pt x="169" y="515" on="0"/>
        <pt x="201" y="541" on="1"/>
        <pt x="186" y="544" on="0"/>
        <pt x="154" y="544" on="0"/>
        <pt x="138" y="540" on="0"/>
        <pt x="113" y="524" on="0"/>
        <pt x="106" y="516" on="1"/>
        <pt x="99" y="509" on="1"/>
        <pt x="82" y="512" on="0"/>
        <pt x="40" y="544" on="0"/>
        <pt x="38" y="563" on="1"/>
        <pt x="42" y="584" on="0"/>
        <pt x="79" y="623" on="0"/>
        <pt x="112" y="623" on="0"/>
        <pt x="183" y="595" on="0"/>
        <pt x="213" y="576" on="1"/>
        <pt x="211" y="614" on="0"/>
        <pt x="206" y="624" on="1"/>
        <pt x="197" y="641" on="0"/>
        <pt x="170" y="658" on="1"/>
        <pt x="161" y="663" on="1"/>
        <pt x="161" y="687" on="0"/>
        <pt x="182" y="730" on="0"/>
        <pt x="197" y="736" on="1"/>
        <pt x="219" y="736" on="0"/>
        <pt x="264" y="712" on="0"/>
        <pt x="270" y="696" on="1"/>
        <pt x="272" y="688" on="0"/>
        <pt x="272" y="677" on="1"/>
        <pt x="272" y="619" on="0"/>
        <pt x="254" y="568" on="1"/>
        <pt x="286" y="584" on="0"/>
        <pt x="294" y="594" on="1"/>
        <pt x="308" y="611" on="0"/>
        <pt x="312" y="642" on="1"/>
        <pt x="314" y="652" on="1"/>
        <pt x="332" y="658" on="0"/>
        <pt x="383" y="658" on="0"/>
        <pt x="395" y="646" on="1"/>
        <pt x="403" y="630" on="0"/>
        <pt x="403" y="580" on="0"/>
        <pt x="377" y="554" on="0"/>
        <pt x="302" y="532" on="0"/>
      </contour>
    </TTGlyph>
    <TTGlyph name="at" xMin="48" yMin="-12" xMax="759" yMax="710">
      <contour>
        <pt x="362" y="-12" on="1"/>
        <pt x="208" y="-12" on="0"/>
        <pt x="48" y="169" on="0"/>
        <pt x="48" y="305" on="1"/>
        <pt x="48" y="385" on="0"/>
        <pt x="105" y="531" on="0"/>
        <pt x="207" y="643" on="0"/>
        <pt x="361" y="710" on="0"/>
        <pt x="451" y="710" on="1"/>
        <pt x="595" y="710" on="0"/>
        <pt x="759" y="556" on="0"/>
        <pt x="759" y="433" on="1"/>
        <pt x="759" y="365" on="0"/>
        <pt x="707" y="252" on="0"/>
        <pt x="631" y="187" on="0"/>
        <pt x="559" y="152" on="0"/>
        <pt x="534" y="152" on="1"/>
        <pt x="491" y="152" on="0"/>
        <pt x="477" y="206" on="1"/>
        <pt x="412" y="152" on="0"/>
        <pt x="309" y="152" on="0"/>
        <pt x="246" y="222" on="0"/>
        <pt x="246" y="420" on="0"/>
        <pt x="350" y="557" on="0"/>
        <pt x="432" y="557" on="1"/>
        <pt x="463" y="557" on="0"/>
        <pt x="512" y="543" on="0"/>
        <pt x="563" y="527" on="0"/>
        <pt x="582" y="522" on="1"/>
        <pt x="546" y="381" on="0"/>
        <pt x="546" y="253" on="1"/>
        <pt x="546" y="235" on="0"/>
        <pt x="551" y="221" on="0"/>
        <pt x="560" y="221" on="1"/>
        <pt x="594" y="221" on="0"/>
        <pt x="673" y="346" on="0"/>
        <pt x="673" y="522" on="0"/>
        <pt x="569" y="647" on="0"/>
        <pt x="452" y="647" on="1"/>
        <pt x="313" y="647" on="0"/>
        <pt x="146" y="452" on="0"/>
        <pt x="146" y="209" on="0"/>
        <pt x="260" y="56" on="0"/>
        <pt x="373" y="56" on="1"/>
        <pt x="430" y="56" on="0"/>
        <pt x="475" y="78" on="1"/>
        <pt x="489" y="56" on="0"/>
        <pt x="495" y="24" on="1"/>
        <pt x="497" y="14" on="1"/>
        <pt x="430" y="-12" on="0"/>
      </contour>
      <contour>
        <pt x="390" y="225" on="1"/>
        <pt x="422" y="225" on="0"/>
        <pt x="456" y="261" on="1"/>
        <pt x="466" y="406" on="0"/>
        <pt x="484" y="483" on="1"/>
        <pt x="458" y="496" on="0"/>
        <pt x="436" y="496" on="1"/>
        <pt x="394" y="496" on="0"/>
        <pt x="344" y="396" on="0"/>
        <pt x="344" y="225" on="0"/>
      </contour>
    </TTGlyph>
    <TTGlyph name="atilde" xMin="32" yMin="-12" xMax="502" yMax="674">
      <contour>
        <pt x="328" y="414" on="1"/>
        <pt x="330" y="416" on="0"/>
        <pt x="339" y="440" on="1"/>
        <pt x="386" y="440" on="0"/>
        <pt x="465" y="412" on="1"/>
        <pt x="440" y="329" on="0"/>
        <pt x="410" y="148" on="0"/>
        <pt x="410" y="71" on="0"/>
        <pt x="418" y="71" on="1"/>
        <pt x="424" y="71" on="0"/>
        <pt x="462" y="90" on="1"/>
        <pt x="474" y="96" on="1"/>
        <pt x="492" y="61" on="1"/>
        <pt x="483" y="53" on="0"/>
        <pt x="454" y="29" on="0"/>
        <pt x="374" y="-12" on="0"/>
        <pt x="342" y="-12" on="1"/>
        <pt x="280" y="-12" on="0"/>
        <pt x="270" y="44" on="1"/>
        <pt x="206" y="-12" on="0"/>
        <pt x="103" y="-12" on="0"/>
        <pt x="32" y="68" on="0"/>
        <pt x="32" y="154" on="1"/>
        <pt x="32" y="288" on="0"/>
        <pt x="142" y="443" on="0"/>
        <pt x="220" y="443" on="1"/>
        <pt x="276" y="443" on="0"/>
      </contour>
      <contour>
        <pt x="214" y="73" on="1"/>
        <pt x="238" y="73" on="0"/>
        <pt x="268" y="92" on="1"/>
        <pt x="275" y="233" on="0"/>
        <pt x="315" y="371" on="1"/>
        <pt x="285" y="384" on="0"/>
        <pt x="264" y="384" on="1"/>
        <pt x="228" y="384" on="0"/>
        <pt x="177" y="243" on="0"/>
        <pt x="177" y="73" on="0"/>
      </contour>
      <contour>
        <pt x="115" y="531" on="1"/>
        <pt x="129" y="673" on="0"/>
        <pt x="216" y="673" on="1"/>
        <pt x="250" y="673" on="0"/>
        <pt x="381" y="638" on="0"/>
        <pt x="435" y="638" on="0"/>
        <pt x="457" y="650" on="0"/>
        <pt x="471" y="674" on="1"/>
        <pt x="502" y="668" on="1"/>
        <pt x="498" y="622" on="0"/>
        <pt x="486" y="591" on="1"/>
        <pt x="463" y="532" on="0"/>
        <pt x="400" y="532" on="1"/>
        <pt x="377" y="532" on="0"/>
        <pt x="252" y="567" on="0"/>
        <pt x="191" y="567" on="0"/>
        <pt x="162" y="550" on="0"/>
        <pt x="147" y="524" on="1"/>
      </contour>
    </TTGlyph>
    <TTGlyph name="b" xMin="28" yMin="-12" xMax="464" yMax="734">
      <contour>
        <pt x="289" y="698" on="1"/>
        <pt x="289" y="622" on="0"/>
        <pt x="238" y="400" on="1"/>
        <pt x="298" y="443" on="0"/>
        <pt x="395" y="443" on="0"/>
        <pt x="464" y="362" on="0"/>
        <pt x="464" y="279" on="1"/>
        <pt x="464" y="140" on="0"/>
        <pt x="355" y="-12" on="0"/>
        <pt x="277" y="-12" on="1"/>
        <pt x="248" y="-12" on="0"/>
        <pt x="189" y="2" on="0"/>
        <pt x="174" y="10" on="1"/>
        <pt x="159" y="17" on="1"/>
        <pt x="95" y="-5" on="0"/>
        <pt x="34" y="-5" on="1"/>
        <pt x="28" y="0" on="0"/>
        <pt x="28" y="87" on="0"/>
        <pt x="140" y="576" on="0"/>
        <pt x="140" y="666" on="1"/>
        <pt x="140" y="682" on="0"/>
        <pt x="135" y="707" on="1"/>
        <pt x="213" y="734" on="0"/>
        <pt x="284" y="734" on="1"/>
        <pt x="289" y="720" on="0"/>
      </contour>
      <contour>
        <pt x="280" y="358" on="1"/>
        <pt x="261" y="358" on="0"/>
        <pt x="223" y="340" on="1"/>
        <pt x="177" y="146" on="0"/>
        <pt x="173" y="62" on="1"/>
        <pt x="203" y="49" on="0"/>
        <pt x="230" y="49" on="1"/>
        <pt x="268" y="49" on="0"/>
        <pt x="319" y="189" on="0"/>
        <pt x="319" y="358" on="0"/>
      </contour>
    </TTGlyph>
</ttFont>
